<svg width="56" height="56" viewBox="0 0 56 56" fill="none" xmlns="http://www.w3.org/2000/svg">
<path d="M26.6875 0.173542C25.725 0.425102 24.9375 0.873539 24.2156 1.58448C21.875 3.87041 22.1266 7.76416 24.7297 9.71104L25.2656 10.1048V10.9032V11.7017L15.1812 11.7235L5.08594 11.7564L2.625 13.736C0.0109375 15.836 -0.185937 16.0548 0.120312 16.6017C0.2625 16.8642 2.76719 18.9642 4.51719 20.2985L5.1625 20.7798H15.2141H25.2656V27.1235V33.4673H15.1594H5.05312L2.58125 35.447C0.0328125 37.4813 -0.142187 37.6782 0.065625 38.247C0.120312 38.3892 1.24687 39.3626 2.625 40.4673L5.08594 42.436H15.1812H25.2656V44.3501C25.2656 45.4001 25.2547 46.2642 25.2328 46.2642C25.2109 46.2642 24.6641 46.0235 23.9969 45.7173C23.3406 45.422 22.7062 45.1704 22.5859 45.1704C22.4656 45.1704 17.9266 47.1829 12.5016 49.6548L2.63594 54.1392H1.3125H0V55.0688V55.9985H28H56V55.0688V54.1392H55.1578H54.3266L45.8062 49.6548C41.125 47.1829 37.1875 45.1704 37.0672 45.1704C36.7062 45.1704 36.4766 45.3345 34.0922 47.3251L31.8062 49.2392L31.3031 49.0313L30.7891 48.8235L30.7563 40.2157L30.7344 31.6079H40.7531C48.0375 31.6079 50.8266 31.5751 51.0016 31.4876C51.5703 31.1814 55.7375 27.736 55.8797 27.4517C56.175 26.8501 56.0328 26.686 53.4516 24.6189C52.1063 23.547 50.8922 22.6392 50.7391 22.6063C50.5969 22.5626 46.0359 22.5298 40.6109 22.5298H30.7344V21.6548V20.7798H40.7859H50.8375L51.4828 20.2985C53.2328 18.9642 55.7375 16.8642 55.8797 16.6017C56.1969 16.0548 56 15.8251 53.3859 13.7251L50.9359 11.7564L40.8297 11.7235L30.7344 11.7017V10.8923V10.0939L31.15 9.79854C32.0578 9.1751 32.8891 7.99385 33.2062 6.91104C33.4578 6.05791 33.425 4.6251 33.1406 3.77198C32.2328 1.04854 29.3891 -0.548332 26.6875 0.173542ZM29.5531 2.16417C30.2641 2.51416 30.9203 3.19229 31.2594 3.91417C31.675 4.8001 31.675 6.0251 31.2594 6.91104C29.9906 9.62354 26.1297 9.71104 24.8281 7.06417C23.8547 5.08448 24.7297 2.79854 26.7641 2.02198C27.4203 1.77042 28.9187 1.84698 29.5531 2.16417ZM28.875 29.3329C28.875 39.5485 28.8531 47.9048 28.8312 47.9048C28.8094 47.9048 28.4156 47.7298 27.9562 47.522L27.125 47.1282V28.9501V10.772H28H28.875V29.3329ZM25.2656 16.2407V18.9204H15.4766H5.67656L4.03594 17.597C2.65781 16.4923 2.40625 16.2517 2.52656 16.1314C2.61406 16.0438 3.35781 15.4423 4.2 14.7751L5.70937 13.561H15.4875H25.2656V16.2407ZM51.8 14.7751C52.6422 15.4423 53.3859 16.0438 53.4734 16.1314C53.5938 16.2517 53.3422 16.4923 51.9641 17.597L50.3234 18.9204H40.5234H30.7344V16.2407V13.561H40.5125H50.2906L51.8 14.7751ZM51.9422 25.7126C52.85 26.4454 53.5938 27.0798 53.5938 27.1126C53.5828 27.1454 52.8172 27.7798 51.8875 28.5126L50.1922 29.8579H40.4578H30.7344V27.1235V24.3892H40.5125H50.2906L51.9422 25.7126ZM25.2656 37.9517V40.686H15.5312H5.79688L4.10156 39.3407C3.18281 38.6079 2.42812 37.9735 2.43906 37.9188C2.45 37.8751 3.20469 37.2517 4.10156 36.5298L5.74219 35.2173H15.5094H25.2656V37.9517ZM30.7016 50.7485L38.0406 54.0845L30.3516 54.1173C26.1187 54.1282 19.1625 54.1282 14.8969 54.1173L7.13125 54.0845L14.8531 50.5735L22.575 47.0626L22.9688 47.2376C23.1875 47.336 26.6656 48.911 30.7016 50.7485ZM43.8047 50.6392L50.3453 54.0845L46.4406 54.1173L42.5469 54.1392L38.1937 52.1704C35.8094 51.0767 33.8187 50.1579 33.775 50.1142C33.6875 50.0267 37.0672 47.1282 37.1984 47.172C37.2313 47.1829 40.2062 48.747 43.8047 50.6392Z" fill="#FAFAFA"/>
<path d="M14.4375 16.2407V17.1704H15.3672H16.3078L16.275 16.2626L16.2422 15.3657L15.3453 15.3329L14.4375 15.3001V16.2407Z" fill="#FAFAFA"/>
<path d="M18.0469 16.2407V17.1704H18.9766H19.9172L19.8844 16.2626L19.8516 15.3657L18.9547 15.3329L18.0469 15.3001V16.2407Z" fill="#FAFAFA"/>
<path d="M21.7328 15.3767C21.6891 15.4204 21.6562 15.847 21.6562 16.3173V17.1704H22.5859H23.5266L23.4937 16.2626L23.4609 15.3657L22.6406 15.3329C22.1812 15.322 21.7766 15.3329 21.7328 15.3767Z" fill="#FAFAFA"/>
<path d="M32.5609 15.3767C32.5172 15.4204 32.4844 15.847 32.4844 16.3173V17.1704H33.4141H34.3547L34.3219 16.2626L34.2891 15.3657L33.4687 15.3329C33.0094 15.322 32.6047 15.3329 32.5609 15.3767Z" fill="#FAFAFA"/>
<path d="M36.1703 15.3876C36.1266 15.4204 36.0938 15.847 36.0938 16.3173V17.1704H37.0234H37.9531V16.2407V15.311H37.1C36.6297 15.311 36.2031 15.3438 36.1703 15.3876Z" fill="#FAFAFA"/>
<path d="M39.7797 15.3876C39.7359 15.4204 39.7031 15.847 39.7031 16.3173V17.1704H40.6328H41.5625V16.2407V15.311H40.7094C40.2391 15.311 39.8125 15.3438 39.7797 15.3876Z" fill="#FAFAFA"/>
<path d="M32.5609 26.2048C32.5172 26.2485 32.4844 26.6751 32.4844 27.1454V27.9985H33.4141H34.3547L34.3219 27.0907L34.2891 26.1938L33.4687 26.161C33.0094 26.1501 32.6047 26.161 32.5609 26.2048Z" fill="#FAFAFA"/>
<path d="M36.1703 26.2048C36.1266 26.2485 36.0938 26.6751 36.0938 27.1454V27.9985H37.0234H37.9641L37.9312 27.0907L37.8984 26.1938L37.0781 26.161C36.6187 26.1501 36.2141 26.161 36.1703 26.2048Z" fill="#FAFAFA"/>
<path d="M39.7797 26.2048C39.7359 26.2485 39.7031 26.6751 39.7031 27.1454V27.9985H40.6328H41.5734L41.5406 27.0907L41.5078 26.1938L40.6875 26.161C40.2281 26.1501 39.8234 26.161 39.7797 26.2048Z" fill="#FAFAFA"/>
<path d="M14.4375 37.9517V38.8267H15.3672H16.2969V37.9517V37.0767H15.3672H14.4375V37.9517Z" fill="#FAFAFA"/>
<path d="M18.0469 37.9517V38.8267H18.9766H19.9062V37.9517V37.0767H18.9766H18.0469V37.9517Z" fill="#FAFAFA"/>
<path d="M21.6562 37.9517V38.8267H22.5859H23.5156V37.9517V37.0767H22.5859H21.6562V37.9517Z" fill="#FAFAFA"/>
</svg>
