<svg width="64" height="60" viewBox="0 0 64 60" fill="none" xmlns="http://www.w3.org/2000/svg">
<path d="M43.444 0.130959C43.0545 0.290649 42.564 0.842304 42.3765 1.33589C42.2899 1.56816 42.2178 2.36661 42.2178 3.12151V4.48613H21.9647C2.505 4.48613 1.69719 4.50064 1.37983 4.74744C0.932649 5.12489 0.932649 5.87978 1.37983 6.25723C1.69719 6.50402 2.505 6.51854 21.9647 6.51854H42.2178V8.18802V9.84298L41.7562 10.0898C40.6743 10.6414 40.631 10.7285 40.631 12.7609C40.631 15.2579 40.6022 15.2289 42.665 15.2289H44.2374V21.4713V27.6992L43.6315 27.8589C43.2853 27.9314 42.6217 28.1928 42.1457 28.425C41.6697 28.6718 40.5301 29.0202 39.6213 29.2235C38.7125 29.4412 37.1401 29.8332 36.1448 30.1235L34.3272 30.6462L33.981 30.2978C33.6781 30.0074 33.3895 29.9203 32.1201 29.7606C31.2835 29.6735 30.4179 29.5574 30.1727 29.5138L29.7399 29.4412L29.7832 28.4831C29.8986 26.291 29.1774 24.4328 27.5906 22.8359C26.0471 21.2971 24.417 20.6002 22.3109 20.6002C20.2048 20.6002 18.5603 21.2971 17.0313 22.8359C15.5022 24.3747 14.8098 26.0297 14.8098 28.1492C14.8098 30.2687 15.5022 31.9092 17.0457 33.477L18.0843 34.5223L17.3486 35.0304C16.4398 35.6546 11.3477 40.7937 11.3477 41.0841C11.3333 41.2002 9.55897 42.3325 7.22207 43.6826C2.14437 46.6442 0.49989 47.8055 0.153683 48.7056C-0.235799 49.7363 0.139258 50.9993 1.00478 51.5219C1.61064 51.8994 2.53386 51.8994 4.07736 51.5074C5.26023 51.2026 5.31794 51.2026 5.77954 51.4494C6.12575 51.6381 6.47196 51.6961 7.1788 51.6381C8.23184 51.58 8.88098 51.2171 9.34259 50.4622C9.53012 50.1283 10.136 49.7363 11.5785 48.9669C13.4682 47.9652 13.5548 47.9362 13.9443 48.1394C14.4347 48.3717 14.3482 48.4153 16.9447 46.9055C17.8391 46.3974 18.5892 45.9909 18.618 46.0199C18.6469 46.0489 18.7767 46.4409 18.921 46.8764C19.3682 48.2991 20.4501 50.9848 21.1136 52.3204C22.0945 54.2802 23.2486 55.9642 24.4747 57.1837C25.6864 58.3886 26.7251 59.0564 28.1964 59.6226C29.0764 59.971 29.3505 60 31.2546 60L33.3463 59.9855L37.169 58.9548C41.7129 57.7063 41.5687 57.8079 41.4389 56.1239L41.3667 54.9916L41.7562 55.0641C45.4491 55.819 55.7487 57.6482 56.2969 57.6627C57.725 57.6627 58.4463 57.2853 59.9609 55.7465C61.8074 53.8737 63.7548 50.8687 63.9423 49.6202C64.1154 48.5024 62.8893 47.1668 61.692 47.1668C61.0861 47.1668 60.5379 47.4862 58.4174 49.0105L56.7874 50.1864L55.5324 49.925C54.8255 49.7799 54.1331 49.6347 53.9744 49.6057C53.7869 49.5766 54.2197 49.3298 55.1717 48.9234C55.9795 48.5604 56.9028 48.0668 57.2201 47.791C58.5761 46.6151 59.182 44.1472 59.0666 40.1259C58.9944 37.5419 58.8357 36.9612 58.0424 36.395C57.1336 35.7417 55.5035 35.9595 54.9409 36.8305C54.8255 37.0192 54.3495 38.1661 53.8879 39.371L53.0656 41.5631L46.8916 44.1762L40.7032 46.8038L38.6836 46.7313L36.6641 46.6587L38.9721 45.8602L41.2802 45.0618L43.444 39.8791C45.5645 34.8126 45.6222 34.682 46.0982 34.5223C46.7906 34.29 47.6994 33.419 48.0312 32.6641C48.363 31.9092 48.3918 30.6026 48.0889 29.8768C47.8004 29.1799 47.0791 28.367 46.5454 28.1492L46.1126 27.9605L46.1415 21.631L46.1848 15.3015L47.6994 15.2579C49.7622 15.1998 49.719 15.2434 49.719 12.8916C49.719 11.8754 49.6757 10.9318 49.6324 10.8011C49.5747 10.6705 49.2285 10.4092 48.839 10.2059L48.1322 9.8575V8.18802V6.51854H55.7055H63.2932L63.6394 6.15561C63.8413 5.96688 64 5.66202 64 5.50233C64 5.34264 63.8413 5.03778 63.6394 4.84906L63.2932 4.48613H55.7055H48.1322V3.01989C48.1322 0.479374 47.6562 -0.0142136 45.2327 0.000305176C44.4105 0.000305176 43.6026 0.0583725 43.444 0.130959ZM46.2569 5.37168V8.85581L45.9395 8.73967C45.5212 8.5945 44.8144 8.60902 44.497 8.75419C44.2518 8.87033 44.2374 8.65257 44.2374 5.37168V1.87303H45.2471H46.2569V5.37168ZM47.0214 11.4689L47.8437 11.8899V12.6158V13.3416H45.175H42.5063V12.6448V11.9625L43.8335 11.2947C45.3337 10.5398 45.1606 10.5253 47.0214 11.4689ZM24.3737 22.923C26.0615 23.5618 27.4607 25.3329 27.8214 27.2491C28.2541 29.5574 26.8982 32.156 24.7199 33.2157C22.686 34.2174 20.2048 33.8254 18.5315 32.2431C16.2667 30.1235 16.108 26.6975 18.1564 24.4473C18.5603 23.9973 19.1518 23.4747 19.4836 23.2859C20.9117 22.4439 22.7437 22.3133 24.3737 22.923ZM45.4635 29.8042C45.7376 29.9203 46.0549 30.2107 46.1703 30.4574C46.7474 31.5608 46.1848 32.5334 44.7999 32.8238C44.3528 32.9109 43.9056 32.9544 43.7757 32.9109C43.6459 32.8528 43.4728 32.3592 43.3141 31.5753C43.0112 30.1235 43.0689 29.9784 43.9921 29.7606C44.8432 29.5719 44.9153 29.5719 45.4635 29.8042ZM41.3379 31.6479C41.4244 32.0543 41.4677 32.4318 41.4244 32.5044C41.2225 32.8238 36.9093 34.4932 35.2648 34.8852C34.8898 34.9723 34.8753 34.9578 34.7599 33.9851C34.7022 33.448 34.6445 32.9254 34.6445 32.8092C34.6445 32.6786 35.0773 32.4753 35.7986 32.2576C37.3276 31.7785 40.6455 30.922 40.9484 30.9075C41.1215 30.9075 41.2225 31.1107 41.3379 31.6479ZM31.8605 31.7059C32.4375 31.793 32.4519 31.8221 32.6971 33.1722C33.1155 35.6111 33.6492 43.6391 33.3607 43.3778C33.303 43.3197 33.1587 42.6084 33.0433 41.7809C32.6971 39.4291 32.0336 36.5256 31.2546 33.9706C30.8507 32.6931 30.5333 31.6043 30.5333 31.5608C30.5333 31.5317 30.7064 31.5172 30.9372 31.5608C31.1536 31.5898 31.572 31.6624 31.8605 31.7059ZM29.2783 34.1739C29.5668 35.0449 29.9563 36.424 30.1583 37.2225C30.5189 38.6597 31.2546 42.4777 31.2546 42.9132C31.2546 43.2762 24.8065 39.8356 20.3924 37.1209L18.9931 36.2498L19.5701 35.8288C20.1183 35.4223 20.176 35.4223 20.8972 35.5675C21.3156 35.6691 22.1667 35.6982 22.8158 35.6546C24.8498 35.524 26.4943 34.7255 27.8647 33.1867C28.2686 32.7512 28.6292 32.4318 28.6725 32.4899C28.7302 32.5334 29.0043 33.2883 29.2783 34.1739ZM43.3718 34.9723C43.3718 35.0304 42.5784 36.9466 41.5975 39.2549L39.8376 43.4649L38.1787 44.0746C35.8995 44.9021 36.0438 44.9021 35.712 44.0601C35.5101 43.4939 35.4091 42.6664 35.2937 40.3582C35.2216 38.7032 35.1494 37.266 35.1494 37.1354C35.1494 36.9757 35.3225 36.8595 35.6255 36.8015C36.5631 36.6127 39.3039 35.6546 40.7753 34.9868L42.2899 34.319L42.8237 34.6094C43.1266 34.7691 43.3718 34.9288 43.3718 34.9723ZM19.1951 38.6597C21.4743 40.0969 24.316 41.7083 27.2011 43.2181C28.6725 43.9875 29.7976 44.6263 29.6967 44.6698C29.2351 44.815 23.6525 42.6955 20.9982 41.3454C19.3826 40.5324 16.3966 38.7758 16.3966 38.6306C16.3966 38.4129 17.3486 37.5854 17.5217 37.658C17.6371 37.7015 18.3872 38.1516 19.1951 38.6597ZM57.1191 39.0371C57.1913 39.6323 57.2057 40.8808 57.148 41.7954C57.0182 44.4956 56.6143 45.8747 55.8209 46.3974C55.417 46.6732 41.3235 52.8575 41.2658 52.7849C41.2225 52.7414 40.9051 48.8653 40.9628 48.8363C40.9772 48.8217 43.8767 47.5878 47.4109 46.078C50.9451 44.5827 54.0033 43.2762 54.2197 43.16C54.6091 42.9568 54.6813 42.7826 56.1382 38.921C56.4267 38.1371 56.5854 37.8757 56.7729 37.9048C56.946 37.9483 57.0326 38.2096 57.1191 39.0371ZM15.5743 40.4743C17.2765 41.6502 20.7241 43.4939 23.1332 44.5101C23.8256 44.8005 25.5133 45.4102 26.8549 45.8747C28.3118 46.3683 29.3072 46.7748 29.3072 46.8909C29.3072 46.9926 27.8935 47.5442 25.7009 48.2846C23.7246 48.9379 22.0657 49.4895 22.0224 49.4895C21.9214 49.4895 21.7195 48.9669 20.7818 46.2232C20.3491 44.9456 19.8875 43.8133 19.7576 43.7117C19.3249 43.3923 18.9498 43.5229 16.9014 44.6988L14.8819 45.8602L14.1606 43.6826L13.4538 41.5051L14.1606 40.7792C14.5501 40.3872 14.8963 40.0533 14.9252 40.0533C14.954 40.0533 15.2425 40.2421 15.5743 40.4743ZM12.444 44.6553C12.7902 45.8457 12.8191 46.078 12.646 46.1796C12.5306 46.2522 11.4343 46.8329 10.2225 47.4862C8.28955 48.5024 7.97219 48.7056 7.79909 49.1411C7.53943 49.7654 6.99127 49.9396 6.54409 49.5331C6.01035 49.0395 5.93822 49.0395 4.12064 49.4895C2.01455 49.9976 1.97127 50.0121 1.97127 49.6492C1.97127 49.475 2.31748 49.0976 2.86564 48.662C3.77443 47.9652 11.5785 43.2762 11.867 43.2616C11.9536 43.2471 12.2132 43.8714 12.444 44.6553ZM34.3993 46.1506C34.558 46.6296 34.6445 47.0506 34.5724 47.0942C34.5147 47.1232 33.8944 47.37 33.202 47.6168C32.1922 47.9652 31.9037 48.0233 31.8172 47.8636C31.6152 47.5587 31.2113 46.2812 31.2979 46.2086C31.3844 46.1215 33.7358 45.3086 33.9521 45.2941C34.0387 45.2795 34.2406 45.6715 34.3993 46.1506ZM39.2462 52.4075C39.3905 54.4835 39.477 56.211 39.4482 56.24C39.3183 56.3707 33.9233 57.7643 33.779 57.7063C33.5626 57.6337 33.1155 53.3947 33.0866 51.2461L33.0578 49.7508L34.5003 49.1992C35.813 48.6911 36.0726 48.6475 37.4575 48.633L38.9866 48.6185L39.2462 52.4075ZM30.2593 49.2863C30.3314 49.504 30.5622 49.867 30.7497 50.0993C31.0382 50.4477 31.1103 50.6945 31.1103 51.3477C31.1103 52.0736 31.3267 54.5125 31.6297 57.3143L31.7306 58.2434L30.7064 58.1563C28.6148 57.9531 26.5952 56.8352 25.1527 55.0787C24.3882 54.1496 22.8879 51.7542 22.8879 51.4639C22.8879 51.3332 29.5091 48.9669 29.9996 48.9234C30.0573 48.9088 30.1727 49.083 30.2593 49.2863ZM61.9805 49.3444C61.9805 49.6492 61.1149 51.188 60.3216 52.3204C58.8357 54.4254 57.3788 55.7174 56.47 55.7465C56.0228 55.7465 44.6701 53.6415 44.6701 53.5544C44.6701 53.5108 45.9972 52.9011 47.6129 52.2042L50.5412 50.9267L53.5705 51.5074C55.2294 51.8413 56.7874 52.1026 57.0326 52.1026C57.3499 52.1026 57.9991 51.7252 59.4705 50.6509C61.3313 49.3153 61.9805 48.9814 61.9805 49.3444Z" fill="#FAFAFA"/>
</svg>
