<svg width="50" height="50" viewBox="0 0 50 50" fill="none" xmlns="http://www.w3.org/2000/svg">
<g clip-path="url(#clip0_159_289)">
<path d="M3.52539 7.5293C1.8457 7.86133 0.419922 9.30664 0.0976562 11.0254C-0.0390625 11.748 -0.0390625 38.252 0.0976562 38.9746C0.429688 40.7324 1.8457 42.1484 3.60352 42.4805C4.32617 42.6172 45.6738 42.6172 46.3965 42.4805C48.1543 42.1484 49.5703 40.7324 49.9023 38.9746C50.0391 38.252 50.0391 11.748 49.9023 11.0254C49.5703 9.26758 48.1543 7.85156 46.3965 7.51953C45.7422 7.40234 4.16016 7.40234 3.52539 7.5293ZM36.377 18.9062C30.5176 24.7363 27.6172 27.5586 27.2461 27.7832C25.8789 28.6133 24.1211 28.6133 22.7539 27.7832C22.3828 27.5586 19.4824 24.7363 13.623 18.9062L5.0293 10.3613H25H44.9707L36.377 18.9062ZM11.6699 21.084L15.5762 25L10.6934 29.8926C8.00781 32.5781 5.16602 35.4004 4.375 36.1523L2.92969 37.5195V25V12.4805L5.35156 14.8242C6.67969 16.1133 9.52148 18.9355 11.6699 21.084ZM47.0508 31.2695L47.0215 37.5488L40.7227 31.2695L34.4238 25L40.7227 18.7305L47.0215 12.4609L47.0508 18.7305C47.0605 22.1777 47.0605 27.8223 47.0508 31.2695ZM18.7012 28.1348C20.4688 29.9121 21.4941 30.625 22.9492 31.0742C23.5645 31.2598 23.8965 31.2988 25 31.2988C26.5039 31.2988 27.2852 31.1133 28.418 30.498C29.2578 30.0488 29.6973 29.6777 31.123 28.291L32.3145 27.1191L34.6387 29.375C35.918 30.6152 38.7598 33.4277 40.9668 35.6348L44.9707 39.6484H25L5.0293 39.6387L11.3086 33.3984C14.7656 29.9609 17.6172 27.1484 17.6562 27.1484C17.6953 27.1484 18.1641 27.5879 18.7012 28.1348Z" fill="url(#paint0_linear_159_289)"/>
</g>
<defs>
<linearGradient id="paint0_linear_159_289" x1="-0.00488251" y1="36.9339" x2="51.5411" y2="28.236" gradientUnits="userSpaceOnUse">
<stop stop-color="#2A3676"/>
<stop offset="1" stop-color="#00A445"/>
</linearGradient>
<clipPath id="clip0_159_289">
<rect width="50" height="50" fill="white"/>
</clipPath>
</defs>
</svg>
