<svg width="50" height="50" viewBox="0 0 50 50" fill="none" xmlns="http://www.w3.org/2000/svg">
<path d="M23.7301 0.0585899C21.4938 0.312496 20.2145 0.585934 18.7692 1.12304C14.9411 2.55859 11.738 5.18554 9.56022 8.6914C7.50944 12.0019 6.56217 16.2891 7.03092 20.1172C7.79264 26.2793 12.1872 34.7754 19.4723 44.1895C21.1911 46.416 23.4079 49.082 23.9157 49.541C24.5895 50.1465 25.4098 50.1465 26.0837 49.541C26.5915 49.082 28.8083 46.416 30.527 44.1895C37.0798 35.7227 41.2887 28.0273 42.6169 22.0508C42.9587 20.5176 43.0661 19.5215 43.0661 17.9199C43.0563 13.2324 41.1813 8.75 37.7926 5.37109C34.9997 2.56836 31.7087 0.878902 27.8317 0.244137C26.9137 0.0976524 24.3942 -0.0195351 23.7301 0.0585899ZM27.0505 3.42773C30.5075 3.88671 33.7692 5.64453 36.1032 8.30078C39.1403 11.748 40.4098 16.3281 39.5602 20.752C38.6715 25.3906 35.82 31.1523 31.1032 37.8809C29.0719 40.7812 25.2048 45.8008 24.9997 45.8008C24.7946 45.8008 20.9274 40.7812 18.8962 37.8809C14.1794 31.1523 11.3278 25.3906 10.4391 20.752C9.24772 14.5703 12.2458 8.25195 17.861 5.09765C20.5173 3.61328 23.8864 2.99804 27.0505 3.42773Z" fill="url(#paint0_linear_159_296)"/>
<path d="M23.5837 9.1311C22.5583 9.29711 21.8942 9.51196 20.9372 9.98071C18.7399 11.0452 16.8942 13.2815 16.2106 15.7229C15.947 16.6506 15.8493 18.5159 16.0056 19.5315C16.4646 22.4221 18.3591 24.9612 21.0446 26.2698C22.6267 27.0413 24.2478 27.3342 25.9079 27.1487C27.1872 27.0022 27.8415 26.8166 28.9548 26.2698C31.6403 24.9612 33.5349 22.4221 33.9939 19.5315C34.1501 18.5159 34.0524 16.6506 33.7888 15.7229C33.1149 13.301 31.2497 11.0452 29.0622 9.98071C27.2653 9.1018 25.4587 8.82836 23.5837 9.1311ZM26.8942 12.5784C28.3298 13.0959 29.531 14.1506 30.1755 15.4592C30.82 16.7678 30.9958 17.969 30.7126 19.2678C30.361 20.9573 29.238 22.4612 27.7341 23.2815C27.0603 23.6526 25.8786 23.926 24.9997 23.926C24.1208 23.926 22.9392 23.6526 22.2653 23.2815C20.4196 22.2756 19.1403 20.1663 19.1403 18.1155C19.1403 16.9436 19.6677 15.469 20.4294 14.4827C21.1325 13.5647 22.4216 12.7346 23.5837 12.4319C24.3454 12.2366 26.1814 12.3245 26.8942 12.5784Z" fill="url(#paint1_linear_159_296)"/>
<defs>
<linearGradient id="paint0_linear_159_296" x1="6.91309" y1="41.9656" x2="44.9575" y2="38.7006" gradientUnits="userSpaceOnUse">
<stop stop-color="#2A3676"/>
<stop offset="1" stop-color="#00A445"/>
</linearGradient>
<linearGradient id="paint1_linear_159_296" x1="15.9307" y1="24.2792" x2="34.8931" y2="22.0367" gradientUnits="userSpaceOnUse">
<stop stop-color="#2A3676"/>
<stop offset="1" stop-color="#00A445"/>
</linearGradient>
</defs>
</svg>
