<svg width="50" height="50" viewBox="0 0 50 50" fill="none" xmlns="http://www.w3.org/2000/svg">
<g clip-path="url(#clip0_159_280)">
<path d="M8.94505 0.146561C8.15403 0.351639 7.34349 0.800858 6.51341 1.51375C5.59544 2.30476 2.30442 5.65437 1.76731 6.34773C-0.410419 9.13094 -0.449482 13.4571 1.65989 19.043C4.22825 25.8692 9.04271 32.7833 15.1365 38.3985C23.5349 46.1427 34.7849 51.1524 40.5759 49.7462C41.4353 49.5411 42.8611 48.877 43.5154 48.379C44.1794 47.8809 48.5935 43.3497 49.0036 42.754C49.7654 41.6505 50.0583 40.1759 49.7654 38.9259C49.4333 37.5294 49.3259 37.4024 45.0779 33.1446C40.7907 28.8575 40.654 28.7501 39.238 28.4571C38.115 28.2227 36.9724 28.4278 35.8689 29.0626C35.615 29.2188 34.404 30.3223 33.1833 31.5333L30.9665 33.7208L30.2536 33.3497C28.5056 32.4415 27.2165 31.5723 25.2927 29.9903C23.32 28.3692 20.5661 25.5274 19.0427 23.5352C17.9392 22.0899 16.3181 19.4239 16.3083 19.0626C16.3083 18.9942 17.07 18.1934 17.9978 17.2852C19.9509 15.3809 20.7224 14.4923 21.1618 13.6524C21.7087 12.588 21.8161 11.2403 21.4353 10.127C21.0544 8.99422 20.6833 8.56453 16.9529 4.8243C13.2615 1.13289 12.695 0.644608 11.6404 0.283279C10.9079 0.0196075 9.697 -0.0389862 8.94505 0.146561ZM11.2107 2.8907C11.4841 3.04695 13.0466 4.52156 15.1462 6.63094C18.945 10.4395 19.0915 10.6153 19.0818 11.6212C19.0818 12.5098 18.8474 12.8223 16.2986 15.3712C15.0095 16.6505 13.8865 17.8321 13.8083 17.9981C13.6911 18.2032 13.6618 18.4864 13.6911 18.9649C13.7204 19.5509 13.7986 19.7755 14.3943 20.9571C15.7419 23.6329 17.5193 25.9864 20.4587 28.9942C23.3786 31.9825 26.2888 34.2091 29.2868 35.752C30.3513 36.2989 30.5564 36.377 31.0447 36.3673C31.3767 36.3673 31.7283 36.2989 31.9333 36.1915C32.1189 36.0938 33.3298 34.961 34.6189 33.6817C36.279 32.0313 37.0896 31.2989 37.4021 31.1622C37.988 30.8985 38.7497 30.8985 39.2868 31.1622C39.8728 31.4552 46.7771 38.3497 47.0798 38.9552C47.2458 39.2774 47.3142 39.5704 47.3142 39.9903C47.3142 40.9962 47.1091 41.2696 44.3357 44.0528C41.5915 46.8067 41.3376 46.9923 39.8728 47.3243C38.4568 47.6368 36.0837 47.3829 33.6814 46.67C30.0193 45.586 25.0974 42.9884 21.0447 40.0001C13.2419 34.2579 6.5427 25.4786 3.7595 17.3634C2.43138 13.5059 2.28489 10.7423 3.30052 8.69148C3.61302 8.03719 3.90599 7.70515 5.93724 5.64461C7.18724 4.37508 8.38841 3.22273 8.59349 3.07625C9.47239 2.47078 10.3708 2.40242 11.2107 2.8907Z" fill="url(#paint0_linear_159_280)"/>
</g>
<defs>
<linearGradient id="paint0_linear_159_280" x1="0.105469" y1="41.9557" x2="52.1399" y2="35.8057" gradientUnits="userSpaceOnUse">
<stop stop-color="#2A3676"/>
<stop offset="1" stop-color="#00A445"/>
</linearGradient>
<clipPath id="clip0_159_280">
<rect width="50" height="50" fill="white"/>
</clipPath>
</defs>
</svg>
