<svg width="50" height="50" viewBox="0 0 50 50" fill="none" xmlns="http://www.w3.org/2000/svg">
<path d="M23.0278 1.66004C14.9126 2.39246 7.76414 7.24598 4.09227 14.5018C1.82664 19.0038 1.06492 24.1405 1.95359 29.1014C2.81297 33.9257 5.16649 38.3202 8.75047 41.7968C15.4009 48.2421 25.1274 50.1659 33.7114 46.7186C39.9516 44.2186 45.02 38.8768 47.1489 32.5487C49.0825 26.8261 48.7895 20.8397 46.2993 15.3319C43.272 8.64246 37.0415 3.61316 29.8735 2.09949C27.8813 1.67957 24.9419 1.48426 23.0278 1.66004ZM27.6567 5.61512C34.9126 6.61121 41.104 11.6991 43.4868 18.6034C44.6684 22.0409 44.8638 25.9471 44.0337 29.5214C42.3735 36.6112 36.6118 42.3729 29.522 44.0331C26.6411 44.7069 23.3598 44.7069 20.479 44.0331C17.0317 43.2225 13.7309 41.3768 11.1821 38.8182C8.26219 35.9081 6.40672 32.2948 5.645 28.0272C5.46922 27.0409 5.46922 22.9686 5.645 21.9725C6.65086 16.3085 9.65867 11.6893 14.3657 8.59364C16.5337 7.15809 19.4927 6.02527 21.9731 5.67371C22.3735 5.61512 22.813 5.54676 22.9497 5.52723C23.6626 5.42957 26.6606 5.48816 27.6567 5.61512Z" fill="url(#paint0_linear_159_304)"/>
<path d="M24.4246 10.1075C23.9558 10.254 23.5066 10.6251 23.2625 11.0841C23.116 11.3477 23.0964 12.0313 23.0671 17.8223L23.0378 24.2677L20.5574 26.7579C18.9265 28.3985 18.0183 29.3751 17.9207 29.6095C17.2761 31.1817 18.9265 32.754 20.4597 32.0411C21.0066 31.7872 26.7195 26.0352 26.8269 25.6348C26.9246 25.2637 26.9343 11.6602 26.8269 11.2989C26.7 10.8302 26.1043 10.2735 25.5574 10.1075C24.9714 9.93172 24.9812 9.93172 24.4246 10.1075Z" fill="url(#paint1_linear_159_304)"/>
<defs>
<linearGradient id="paint0_linear_159_304" x1="1.5918" y1="40.8839" x2="50.5343" y2="35.0784" gradientUnits="userSpaceOnUse">
<stop stop-color="#2A3676"/>
<stop offset="1" stop-color="#00A445"/>
</linearGradient>
<linearGradient id="paint1_linear_159_304" x1="17.7773" y1="28.6431" x2="27.4292" y2="28.1734" gradientUnits="userSpaceOnUse">
<stop stop-color="#2A3676"/>
<stop offset="1" stop-color="#00A445"/>
</linearGradient>
</defs>
</svg>
