<svg width="100" height="131" viewBox="0 0 100 131" fill="none" xmlns="http://www.w3.org/2000/svg">
<path d="M19.0059 1.27275C14.4819 5.96891 19.3133 15.5368 25.0671 13.3423C25.9017 13.0351 27.4389 10.5773 27.966 8.73394C29.108 4.78389 25.9017 -4.48227e-05 22.1244 -4.48227e-05C20.5871 -4.48227e-05 19.9722 0.263291 19.0059 1.27275Z" fill="#FDFDFD"/>
<path d="M58.7121 2.19441C57.5262 3.37943 57.5262 6.10056 58.7561 7.63669C60.1616 9.39227 62.7091 10.5334 65.3883 10.5334C67.277 10.5334 68.6385 10.0945 72.899 8.07558C77.2034 6.01279 78.6089 5.53 81.1124 5.35445C84.8897 5.09111 87.2615 5.74945 90.0286 7.72447C92.8836 9.83116 92.7518 10.3578 89.282 10.1823C86.8223 10.0506 86.3831 10.1384 85.2411 11.1478L83.9674 12.289L86.1196 11.3673C88.0082 10.5334 88.4914 10.4895 89.9847 10.9284C92.5322 11.7184 94.9479 14.0884 95.6507 16.5462C96.573 19.6624 96.3534 25.1924 95.2115 28.133C93.3228 33.0486 89.809 35.7259 86.6027 34.6725C85.1972 34.2336 83.3086 32.4342 83.3086 31.5564C83.3086 31.3808 84.1431 30.8103 85.1972 30.3714C87.3933 29.4058 89.282 27.343 89.6773 25.4558C90.3361 22.4274 87.7447 18.8724 84.8458 18.8724C81.5956 18.8724 79.2238 22.6469 79.4873 27.4308C79.5752 29.0986 79.4873 29.1864 78.3453 29.1864C77.2034 29.1864 76.8959 28.7914 75.139 25.5436C73.5139 22.4713 73.2065 21.4618 73.2065 19.4429C73.2065 17.2924 74.2167 14.4834 74.9633 14.4834C75.139 14.4834 75.6222 14.2201 76.0614 13.869C76.7641 13.3423 76.8081 13.1668 76.3249 12.5523C75.3147 11.3234 72.9429 11.6745 71.186 13.2984C68.0676 16.1512 67.8919 20.4963 70.659 26.5091C71.4496 28.2208 71.8888 29.6253 71.6253 29.713C69.8684 30.2836 67.9797 31.732 67.1452 33.1803C65.7397 35.5942 65.9593 39.1931 67.6723 41.4754C68.9021 43.0993 71.757 44.7232 73.3382 44.7671C75.139 44.7671 77.1155 43.3626 78.0818 41.3876C79.0042 39.4565 79.0481 38.3592 78.3893 32.0831C78.2575 31.2053 78.4771 31.0297 79.4434 30.9858C80.3658 30.9419 81.0246 31.3808 82.1666 32.7414C84.8458 35.9014 89.5455 37.3059 92.4444 35.8137C97.4954 33.1803 100.438 23.6563 98.5056 16.3268C97.6272 13.079 96.0021 10.4895 93.191 7.98781C89.4577 4.69611 86.427 3.33554 82.3862 3.11609C78.2136 2.94053 75.4904 3.68665 70.2637 6.40779C67.0573 8.07558 66.135 8.38281 64.7295 8.20725C62.5773 7.90003 62.3577 7.68058 63.2361 6.67113C64.993 4.69611 63.4997 1.31662 60.9082 1.31662C60.1616 1.31662 59.1953 1.71163 58.7121 2.19441ZM86.3831 23.2613C87.0419 24.5341 86.6027 25.5874 84.8019 27.2113C82.5619 29.1425 81.9909 28.5719 82.8693 25.368C83.6599 22.5591 85.4607 21.5057 86.3831 23.2613ZM73.6457 32.3464C75.6222 36.6914 76.3688 40.5537 75.3147 41.6071C74.3924 42.5287 72.0645 42.2215 70.615 40.9926C67.804 38.6226 67.8479 33.7509 70.7029 32.0392C72.5476 30.8981 72.9429 30.9419 73.6457 32.3464Z" fill="#FDFDFD"/>
<path d="M33.7659 8.16308C29.5055 10.2698 26.7823 15.7998 28.4074 18.916C29.198 20.3643 30.1643 19.8815 31.2623 17.4237C33.151 13.2981 35.1275 11.762 38.4656 11.762C41.1009 11.762 43.6045 13.0348 45.0539 15.1854C47.0743 18.126 46.152 23.3488 43.3409 24.7971C41.5841 25.7188 40.6617 25.631 38.3338 24.4021C37.2358 23.8316 36.0938 23.261 35.7863 23.1732C35.4789 23.0416 35.962 21.7688 37.1918 19.4426C38.8609 16.4143 39.0366 15.7998 38.5534 15.1854C37.4115 13.8248 34.7761 14.7026 32.8875 17.1165C31.3941 19.0476 29.7251 22.7344 29.0223 25.7627C27.9243 30.3272 28.8027 42.8357 30.2521 43.7135C31.3941 44.4157 32.0529 42.5284 32.6239 36.9984C33.1949 31.6 33.9855 27.2111 34.3808 27.2111C35.5228 27.2111 37.7628 29.4055 41.3644 34.0139C47.1622 41.519 50.4124 43.8012 55.8148 44.1962C59.68 44.4596 62.0079 43.1868 63.6769 39.9829C65.0824 37.1739 65.1703 35.5939 63.9844 33.0483C62.491 29.6689 58.8015 28.3961 56.7372 30.5028C53.6187 33.575 57.6596 38.2273 61.2612 35.7256C62.1836 35.0673 62.2275 35.1111 62.2275 36.2962C62.2275 38.0956 60.6902 40.334 58.8894 41.0801C57.6157 41.6068 57.0007 41.6507 55.727 41.2118C52.7842 40.2901 50.8516 38.5784 46.7669 33.2239C43.6923 29.1861 42.9017 27.9133 43.3849 27.6061C43.7362 27.3866 44.1755 27.2111 44.3951 27.2111C45.4492 27.2111 47.7771 24.7533 48.8751 22.5588C50.5442 19.1793 50.5003 15.8876 48.7873 12.7276C45.9763 7.54863 39.1683 5.48583 33.7659 8.16308Z" fill="#FDFDFD"/>
<path d="M8.948 9.96325C8.24525 10.6655 8.86016 11.5872 12.8571 15.8005C17.8642 21.0673 18.8744 22.9984 21.378 32.259C23.3545 39.3691 24.5404 41.5197 26.1216 40.5541C29.0204 38.7108 28.4494 32.6102 24.6721 24.7101C21.378 17.9511 16.2391 12.3333 11.5394 10.3582C9.65076 9.56824 9.3433 9.52435 8.948 9.96325Z" fill="#FDFDFD"/>
<path d="M56.0343 13.2986C54.3213 14.4397 52.5645 17.5558 52.5645 19.5309C52.5645 26.0704 58.4061 29.9326 63.6768 26.8604C66.8392 25.017 67.5419 19.3553 64.9066 17.0292C62.5787 14.9664 58.9332 15.8441 59.2406 18.3458C59.3724 19.6625 60.9536 20.1892 62.0077 19.3114C63.8964 17.7753 64.7748 21.2864 63.0619 23.437C62.0077 24.7537 60.6901 24.8854 59.1528 23.832C56.6492 22.1203 56.0782 20.1453 57.352 17.5997C58.3622 15.6686 59.3724 14.9225 61.0854 14.9225C62.6226 14.9225 62.974 14.0447 61.7881 13.0791C60.4265 11.9819 57.879 12.0697 56.0343 13.2986Z" fill="#FDFDFD"/>
<path d="M83.7461 13.5615C83.7461 13.825 83.9218 14.1325 84.1853 14.2642C84.4488 14.396 84.4928 14.2203 84.361 13.8689C84.0535 13.0783 83.7461 12.9466 83.7461 13.5615Z" fill="#FDFDFD"/>
<path d="M5.69732 15.6687C4.59926 16.1076 5.17025 17.951 7.32244 20.8916C11.7586 26.9483 16.4143 37.394 17.9077 44.5479C18.6544 48.2346 18.6983 48.5419 17.9955 49.0246C17.6002 49.3319 16.8096 49.5952 16.2826 49.5952C14.8331 49.5952 9.60639 51.5702 8.59618 52.4919C7.58597 53.4136 7.49812 54.5547 8.42049 55.3008C8.99148 55.7836 9.86992 55.6958 13.2519 54.9497C16.9414 54.0719 19.1375 53.7647 19.1814 54.0719C19.2253 54.1597 19.4889 56.9686 19.7963 60.3481C20.6309 68.9065 21.4654 70.706 22.9148 67.0632C23.4858 65.6148 23.6176 63.9909 23.5297 59.2947L23.4419 53.3258L27.1753 53.1941L30.9526 53.0625L30.733 59.2947C30.5133 64.7809 30.5573 65.7026 31.26 66.9754C32.2702 68.8187 32.7534 68.8187 33.9832 67.0193C35.3009 65.0443 35.7401 63.0253 36.9699 52.2286C38.8586 35.5506 38.8146 32.9611 36.6625 32.5661C35.5644 32.3467 35.213 33.3561 33.4561 41.4757C32.5777 45.5574 31.7871 48.9807 31.7432 49.0246C31.6553 49.1124 29.6349 49.0246 27.1753 48.893L22.783 48.5857L22.256 44.8113C20.8505 34.1023 17.2928 25.3683 11.8464 19.3115C10.2213 17.5121 7.01498 15.2298 6.35615 15.4054C6.2683 15.4054 5.96085 15.5371 5.69732 15.6687Z" fill="#FDFDFD"/>
<path d="M6.3583 32.1274C5.47986 33.7952 5.74339 37.3063 7.01714 39.7203C8.46657 42.6608 11.1019 45.2942 12.3317 45.1186C13.1662 44.987 13.2541 44.7236 13.2541 42.3097C13.2541 39.9836 12.9466 39.0619 11.1458 35.3752C9.34501 31.7763 8.90579 31.1618 7.98342 31.1618C7.32459 31.1618 6.70968 31.5568 6.3583 32.1274Z" fill="#FDFDFD"/>
<path d="M2.00978 41.9584C0.999573 43.1873 2.36116 44.8112 6.13847 46.6984C8.7738 48.0151 9.65224 48.2785 10.1354 47.8834C11.0138 47.1373 10.5307 45.8206 8.72988 44.2845C7.1926 42.9239 4.11805 41.3 3.10784 41.2562C2.8443 41.2562 2.31724 41.5634 2.00978 41.9584Z" fill="#FDFDFD"/>
<path d="M85.4611 43.9773C85.1097 44.5918 85.0219 46.4351 85.1976 49.4196C85.3733 53.1941 85.2854 54.028 84.6705 54.5985C84.0117 55.2569 84.0556 55.3446 84.978 55.5641C86.1199 55.8713 86.1639 56.2663 85.2415 58.9875C84.5387 61.0942 81.7277 64.5175 80.7175 64.5175C80.41 64.5175 79.7073 64.0347 79.0924 63.4203L78.0383 62.3231L79.7512 60.6114C82.2548 58.1097 83.0893 54.7302 81.7716 52.2285C81.2446 51.1752 80.8053 50.9118 79.6194 50.9118C76.8524 50.9118 75.0515 54.2913 74.8319 60.1286C74.7002 62.762 74.4366 63.8592 73.69 64.9125C72.4601 66.6242 70.835 67.107 69.693 66.0537C68.5071 64.9564 68.595 64.4297 70.1762 63.2447C72.0648 61.8403 73.8217 57.9341 73.4703 55.9591C73.2947 55.1252 72.7237 54.1596 72.1966 53.7646C69.166 51.6579 65.74 55.3446 65.74 60.6992C65.74 62.6742 64.9934 63.1131 62.7094 62.4547C61.831 62.2353 60.8208 61.9281 60.4694 61.8403C60.0302 61.7086 59.8105 61.9719 59.8105 62.5425C59.8105 63.7275 62.4459 65.3953 64.3345 65.3953C65.5644 65.3953 66.2232 65.7464 67.3212 66.9314C69.6491 69.477 71.9331 68.9504 73.9096 65.4831C74.5684 64.342 75.1833 63.3325 75.2272 63.2447C75.3151 63.157 76.0618 63.6836 76.9402 64.4736C79.9708 67.107 83.0454 66.0975 85.5929 61.6208C86.2956 60.3041 86.9984 59.2508 87.0862 59.2508C87.1741 59.2508 87.6133 59.9969 88.0964 60.9625C89.3263 63.2886 91.0831 65.3075 92.6204 66.0975L93.982 66.7998L93.6306 65.132C93.4989 64.2103 92.9718 62.762 92.5326 61.8842C91.4784 59.8214 89.8972 54.9496 89.8972 53.7646C89.8972 53.1502 90.6878 52.1407 92.0494 50.9996C95.3436 48.2346 98.1546 43.4506 96.4856 43.4506C95.3875 43.4506 92.5765 45.294 91.0392 46.9618C89.2823 48.8929 88.5796 48.9368 88.5796 47.0057C88.5796 43.6701 86.647 41.7828 85.4611 43.9773ZM80.5857 53.8085C80.7175 54.7741 79.1802 57.4952 78.4775 57.4952C77.8626 57.4952 77.9504 55.9591 78.6971 54.1596C79.3559 52.5357 80.3661 52.3163 80.5857 53.8085ZM71.4499 56.5736C71.4499 57.8463 69.6052 60.5675 68.7707 60.5675C68.1558 60.5675 68.3314 59.163 69.2538 57.1441C70.2201 54.9935 71.4499 54.6424 71.4499 56.5736Z" fill="#FDFDFD"/>
<path d="M57.834 47.9271C54.0128 49.8582 52.2998 54.5105 51.7728 64.1661L51.4653 70.0034L46.9413 70.3106C39.211 70.8373 35.1263 72.6368 33.2815 76.4551C30.3827 82.5119 35.4776 91.6847 41.8024 91.7286C47.4684 91.7286 51.9045 86.5936 54.452 76.9818C55.3744 73.5146 55.6379 73.0757 56.5603 72.944C58.2732 72.7245 60.4694 71.9345 60.4694 71.5395C60.4694 71.3201 59.547 71.0129 58.4489 70.8373C57.3509 70.7056 56.3407 70.3106 56.2528 70.0034C56.1211 69.7401 56.4285 66.4484 56.9117 62.7178C58.3172 52.1843 60.0301 47.5759 60.0301 54.3349C60.0301 56.7488 60.2058 57.9777 60.6011 58.3288C61.5674 59.1188 62.6215 57.4949 63.1486 54.4666C63.6757 51.2188 63.1047 48.6293 61.6553 47.6198C60.4254 46.742 60.118 46.7859 57.834 47.9271ZM51.0261 75.1385C50.4551 78.7813 49.0057 83.653 47.9515 85.1891C46.5899 87.2958 43.4275 88.8319 41.3632 88.4808C39.4306 88.0858 37.4102 86.3741 36.3122 84.2236C35.0823 81.8974 35.2141 81.4585 36.7514 82.5997C38.5961 83.9602 41.0118 83.8286 42.3295 82.2924C43.4275 81.0196 43.5593 80.2296 42.9005 78.9568C42.2856 77.8596 40.7044 77.8596 40.7044 78.9568C40.7044 79.4396 40.924 79.9663 41.1436 80.098C41.8903 80.5369 41.6267 81.5902 40.6605 82.073C39.4306 82.7752 37.4541 81.9413 36.7953 80.493C36.1365 79.0007 37.1906 76.7185 39.1232 75.5335C40.7922 74.4801 45.7993 73.3829 48.9617 73.339L51.3335 73.2951L51.0261 75.1385Z" fill="#FDFDFD"/>
<path d="M1.21866 48.8489C-0.23077 49.5512 -0.362537 50.2534 0.691595 51.3067C1.87749 52.4917 3.76615 52.4917 6.26971 51.3506C8.33405 50.385 8.72935 49.4634 7.36777 48.7173C6.18187 48.1028 2.4924 48.1906 1.21866 48.8489Z" fill="#FDFDFD"/>
<path d="M45.0969 49.4634C43.6475 49.99 41.5393 52.5356 40.6608 54.8179C39.3871 58.1973 39.0357 63.4641 40.002 65.2635C41.2757 67.8091 43.6475 67.458 45.3605 64.5174C45.7997 63.8152 46.2828 63.2007 46.4146 63.2007C46.5464 63.2007 46.9417 64.1224 47.2931 65.2635C48.0397 67.5897 49.2696 68.643 49.9284 67.5897C50.148 67.2386 50.3676 63.5518 50.3676 59.4262V51.9212L48.6546 50.5606C46.9417 49.1561 46.3707 48.9806 45.0969 49.4634ZM45.5362 57.144C44.7895 58.8996 43.911 60.8307 43.5597 61.4452L42.9448 62.5424L42.9008 61.3135C42.9008 59.6896 44.3503 55.6518 45.624 53.8962C47.1613 51.7017 47.1613 53.3256 45.5362 57.144Z" fill="#FDFDFD"/>
<path d="M3.89624 54.5107C3.10564 55.3007 3.2374 56.5296 4.20369 57.0563C5.43351 57.7147 7.32217 56.1346 6.61941 54.9935C6.0045 54.0279 4.64291 53.7646 3.89624 54.5107Z" fill="#FDFDFD"/>
<path d="M40.7051 95.6354C40.7051 96.7326 41.32 97.4348 42.2863 97.4348C43.1208 97.4348 43.3404 97.2154 43.3404 96.3376C43.3404 95.4159 43.1208 95.2403 42.0227 95.2403C41.32 95.2403 40.7051 95.4159 40.7051 95.6354Z" fill="#FDFDFD"/>
<path d="M7.76367 97.4345C7.76367 98.444 7.93936 98.7512 8.64212 98.7512C9.34487 98.7512 9.52056 98.444 9.52056 97.4345C9.52056 96.4251 9.34487 96.1179 8.64212 96.1179C7.93936 96.1179 7.76367 96.4251 7.76367 97.4345Z" fill="#FDFDFD"/>
<path d="M3.98782 97.6538C3.63644 99.0582 4.25135 99.7604 5.61294 99.541C6.44746 99.4532 6.66707 99.146 6.66707 98.0927C6.66707 96.9954 6.49138 96.7321 5.48117 96.6443C4.51488 96.5126 4.20743 96.7321 3.98782 97.6538Z" fill="#FDFDFD"/>
<path d="M74.8309 96.8199C74.6552 96.9955 74.5234 97.6099 74.5234 98.1805C74.5234 99.1021 74.6991 99.2338 75.7533 99.1021C76.6756 99.0144 76.9392 98.751 76.9392 97.8732C76.9392 97.0832 76.6756 96.7321 76.0607 96.6443C75.5336 96.5566 75.0066 96.6443 74.8309 96.8199Z" fill="#FDFDFD"/>
<path d="M58.3177 99.2777L56.8683 100.199L58.9766 102.13C60.1625 103.14 61.9633 104.632 62.9735 105.422C63.9837 106.212 64.8621 107.046 64.8621 107.266C64.8621 107.485 63.4127 107.529 61.4801 107.353C59.6354 107.222 55.0675 107.09 51.3341 107.09C45.9317 107.09 44.6579 106.958 45.0093 106.519C45.2728 106.212 45.6242 104.808 45.756 103.359C46.0195 101.209 45.9317 100.594 45.3607 100.112C44.2187 99.1899 41.4516 99.0143 39.9143 99.8043C38.5967 100.507 38.5088 100.682 38.5088 102.964C38.5088 104.281 38.7284 105.773 38.948 106.256C39.3873 107.046 39.2116 107.09 33.0625 107.09H26.6938L26.562 103.667L26.4302 100.287H24.8929H23.3557L23.5314 102.482C23.6192 103.667 23.751 105.159 23.751 105.773L23.7949 106.871H18.3046H12.8143V104.018C12.8143 101.209 12.8143 101.165 11.5406 101.033C9.87156 100.814 9.60802 101.428 10.0472 104.325C10.2669 105.773 10.2669 106.958 10.0472 107.178C9.82764 107.397 8.46605 107.529 7.06054 107.441L4.46913 107.309V104.544C4.46913 101.779 4.46913 101.735 2.97578 101.121L1.48242 100.507L1.78988 104.764C1.96557 107.309 2.31694 109.197 2.6244 109.416C2.93185 109.592 4.11775 109.636 5.34757 109.504C6.53347 109.328 14.6591 109.241 23.3557 109.241C33.7652 109.284 39.6508 109.109 40.6171 108.802C41.7151 108.451 42.2422 108.451 42.5936 108.802C43.1206 109.328 55.5067 109.46 62.1829 108.977C65.8284 108.758 66.3116 108.582 66.9265 107.661C67.5853 106.651 67.5414 106.519 65.477 104.105C64.2911 102.745 62.7539 100.858 62.095 99.936C60.6895 98.0927 60.3821 98.0488 58.3177 99.2777ZM43.5159 102.087C44.3505 104.281 43.1206 106.607 41.5394 105.773C40.9245 105.422 40.7049 104.852 40.7049 103.623C40.7049 102.701 40.8367 101.823 41.0124 101.692C41.5394 101.121 43.2524 101.384 43.5159 102.087Z" fill="#FDFDFD"/>
<path d="M82.5181 99.9801C80.2341 100.156 79.7949 100.99 79.7949 105.071C79.7949 108.451 80.4098 109.153 83.5283 109.372C85.1534 109.46 85.7683 109.68 85.8562 110.206C85.944 110.777 85.5048 111.04 83.7479 111.26L81.464 111.567L82.4742 112.62C83.0012 113.191 83.7918 113.674 84.1871 113.674C85.2852 113.674 88.0962 111.391 88.4037 110.25C88.5354 109.724 88.8429 109.285 89.0625 109.285C89.326 109.285 89.2821 108.934 89.0186 108.451C88.799 107.968 88.5794 106.212 88.5794 104.501C88.5794 101.78 88.4476 101.341 87.6131 100.77C86.3393 99.9801 84.8899 99.7607 82.5181 99.9801ZM84.5385 101.911C84.7581 102.218 85.0656 103.667 85.1534 105.115L85.2852 107.749H83.7479H82.2106L82.0789 105.159C81.991 103.755 82.035 102.306 82.1667 101.999C82.4742 101.253 83.9236 101.209 84.5385 101.911Z" fill="#FDFDFD"/>
<path d="M94.0268 104.325C94.3781 108.582 93.5875 110.25 90.8204 111.084C89.1953 111.567 89.0636 111.742 89.3271 112.752C89.4589 113.366 89.6785 114.025 89.7663 114.2C90.513 115.561 94.7295 112.796 95.6958 110.338C96.0911 109.372 96.5303 106.914 96.706 104.764L97.0135 100.945H95.3883H93.7193L94.0268 104.325Z" fill="#FDFDFD"/>
<path d="M76.1943 101.735C74.7888 101.911 74.7888 101.779 75.4476 105.027C75.8429 106.958 75.8429 107.792 75.4037 108.845C74.701 110.513 72.988 111.918 71.6264 111.918C70.3966 111.918 70.4405 111.83 71.0554 113.629C71.319 114.419 71.846 114.99 72.2413 114.99C73.4712 114.99 75.799 113.322 76.6775 111.874C77.6438 110.294 78.2147 105.51 77.6877 103.14C77.4241 101.779 77.2485 101.604 76.1943 101.735Z" fill="#FDFDFD"/>
<path d="M25.9897 111.084C25.814 111.348 25.1552 111.392 24.4085 111.26C23.2665 110.997 23.1348 111.084 23.1348 112.094C23.1348 112.796 23.3983 113.235 23.7936 113.235C24.145 113.235 24.4524 113.016 24.4524 112.708C24.4524 112.313 24.5842 112.313 24.9795 112.708C25.287 113.016 25.8579 113.235 26.2972 113.235C26.8682 113.235 27.0878 112.884 27.0878 111.918C27.0878 110.602 26.5168 110.163 25.9897 111.084Z" fill="#FDFDFD"/>
<path d="M1.0888 123.11L0.957031 130.352H2.14293C3.24098 130.352 3.32883 130.22 3.4606 128.245C3.54844 127.016 3.81197 126.182 4.11943 126.182C4.38296 126.182 5.21748 127.016 5.96416 128.025C7.06221 129.518 7.58928 129.913 8.64341 129.913C9.39009 129.913 9.96108 129.781 9.96108 129.649C9.96108 129.474 9.25832 128.42 8.4238 127.279C7.58928 126.138 6.88653 125.085 6.88653 124.953C6.88653 124.778 7.36967 124.207 7.98458 123.593C9.25832 122.32 9.43401 120.433 8.37988 118.282C7.58928 116.614 5.96416 115.868 3.10922 115.868H1.22056L1.0888 123.11ZM6.35946 119.116C7.15006 119.906 6.57907 121.003 5.08572 121.53C3.59236 122.056 3.41667 121.837 3.72413 119.686C3.89982 118.238 4.03158 118.063 4.86611 118.326C5.34925 118.458 6.052 118.853 6.35946 119.116Z" fill="#FDFDFD"/>
<path d="M23.6637 117.316C22.6974 117.755 22.0386 119.291 22.1704 120.871C22.1704 121.354 23.0927 122.627 24.2347 123.724C25.3328 124.865 26.2112 126.094 26.2112 126.489C26.2112 127.542 24.9375 127.806 23.488 127.06C22.2582 126.445 22.1264 126.489 21.3798 127.411C20.7649 128.113 20.7209 128.508 21.0723 128.947C21.7751 129.825 23.6198 130.659 25.5963 130.922C27.8363 131.273 29.154 130.439 29.5054 128.42C29.8567 126.577 29.0661 124.953 26.6943 122.759C25.6841 121.837 24.8935 120.784 24.8935 120.432C24.8935 119.555 26.1673 119.16 27.1336 119.73C27.7924 120.169 28.012 120.081 28.4073 119.379C28.7587 118.677 28.6708 118.414 27.8802 117.931C26.3869 117.009 24.8057 116.746 23.6637 117.316Z" fill="#FDFDFD"/>
<path d="M13.6036 117.887C12.5056 118.37 11.2758 121.091 11.0122 123.593C10.7048 126.84 11.6271 128.815 14.0429 130.176C16.0193 131.273 17.4249 131.098 18.8304 129.605C19.7088 128.64 19.8406 128.069 19.8406 124.953C19.8406 120.564 19.1378 118.721 17.337 118.106C15.9315 117.624 14.526 117.536 13.6036 117.887ZM17.1613 121.661C17.5566 122.188 17.8641 123.505 17.8641 124.514C17.8641 126.007 17.6445 126.533 16.766 127.104C15.7558 127.762 15.5801 127.762 14.5699 127.104C13.6476 126.489 13.4719 126.007 13.4719 124.427C13.4719 121.266 15.7119 119.599 17.1613 121.661Z" fill="#FDFDFD"/>
<path d="M30.8219 118.15C30.7341 118.458 30.5584 121.354 30.4706 124.514L30.207 130.352H33.9404H37.6299V129.035C37.6299 127.762 37.586 127.718 35.4777 127.718C33.6769 127.718 33.2377 127.543 33.0181 126.84C32.6228 125.655 32.9741 125.26 34.5553 124.953C35.4777 124.734 35.873 124.426 35.873 123.768C35.873 123.11 35.5655 122.89 34.5992 122.89C33.6769 122.89 33.1937 122.627 33.0181 122.013C32.5788 120.652 33.1059 120.257 35.4777 120.257C37.4542 120.257 37.6299 120.169 37.6299 119.204C37.6299 117.887 36.9271 117.624 33.633 117.624C31.92 117.624 30.9537 117.799 30.8219 118.15Z" fill="#FDFDFD"/>
<path d="M73.4706 122.408C73.3388 124.909 73.207 127.718 73.207 128.684V130.352H76.7208H80.2346V129.035C80.2346 127.762 80.1907 127.718 78.0385 127.718C75.8863 127.718 75.8424 127.674 75.8424 126.445C75.8424 125.348 76.062 125.085 77.2039 124.865C78.873 124.47 78.7851 123.154 77.0283 122.978C76.0181 122.846 75.8424 122.627 75.8424 121.53C75.8424 120.301 75.8863 120.257 77.9945 120.257C79.4001 120.257 80.2346 120.038 80.3663 119.686C80.8056 118.545 79.971 118.15 76.8965 117.975L73.778 117.843L73.4706 122.408Z" fill="#FDFDFD"/>
<path d="M81.5495 119.423C81.5495 120.301 81.4177 123.11 81.242 125.655L80.9785 130.352H84.5362H88.1378V129.035C88.1378 127.762 88.0939 127.718 85.9417 127.718C83.7895 127.718 83.7456 127.674 83.7456 126.445C83.7456 125.348 83.9652 125.085 85.0633 124.865C86.7762 124.47 86.7762 123.373 85.0633 123.022C83.9652 122.846 83.7456 122.583 83.7456 121.53C83.7456 120.301 83.8335 120.257 85.9417 120.257C87.9621 120.257 88.1378 120.169 88.1378 119.204C88.1378 118.194 88.0061 118.106 84.8437 117.975L81.5495 117.843V119.423Z" fill="#FDFDFD"/>
<path d="M89.1064 119.028C89.2381 120.388 89.3699 120.476 91.1268 120.608L92.9715 120.739V125.787V130.79H94.2453C95.519 130.79 95.5629 130.746 95.7825 128.069C95.9582 126.533 96.09 124.207 96.1778 122.89L96.2657 120.476L98.1543 120.344C99.8673 120.213 99.9991 120.125 99.9991 118.896V117.623H94.4649H88.9746L89.1064 119.028Z" fill="#FDFDFD"/>
<path d="M44.0868 121.661C43.9111 123.68 43.7793 126.445 43.7793 127.806C43.7793 130.22 43.8232 130.351 44.8334 130.351C45.8436 130.351 45.9315 130.132 46.0633 128.245C46.195 126.27 46.2389 126.182 47.6444 126.05L49.05 125.918V128.332C49.05 130.746 49.05 130.79 50.3676 130.79C51.9049 130.79 52.0367 130.22 52.2124 122.978L52.3441 118.062H51.1582C50.0602 118.062 49.9723 118.194 49.8406 120.344L49.7088 122.671L48.0837 122.802L46.4146 122.934V120.52C46.4146 118.238 46.3268 118.062 45.3605 118.062C44.3942 118.062 44.3503 118.238 44.0868 121.661Z" fill="#FDFDFD"/>
<path d="M56.7356 118.589C56.6039 118.897 56.2525 120.126 55.9011 121.355C55.5497 122.54 54.847 124.91 54.3638 126.621C53.2219 130.527 53.2219 130.352 54.7152 130.352C55.8572 130.352 56.0329 130.132 56.4721 128.333C56.9552 126.402 56.9992 126.358 58.5804 126.49C60.0298 126.621 60.2494 126.797 60.8204 128.508C61.3914 130.264 61.5232 130.352 63.1044 130.352H64.8173L64.1585 128.245C63.8071 127.104 63.1044 124.778 62.5773 123.11C61.0839 118.151 61.04 118.063 58.8439 118.063C57.7019 118.063 56.8235 118.282 56.7356 118.589ZM60.2055 120.96C60.9522 122.891 60.2933 123.768 58.4047 123.417C57.5702 123.242 57.4384 123.022 57.658 122.057C57.8337 121.442 58.0533 120.784 58.1411 120.565C58.4925 119.994 59.942 120.257 60.2055 120.96Z" fill="#FDFDFD"/>
<path d="M65.564 122.759C65.2126 128.728 65.4761 130.352 66.8816 130.352C67.9797 130.352 68.0236 130.22 68.1554 126.84C68.1554 125.963 68.4628 125.699 69.3852 125.612C70.4393 125.48 70.615 125.304 70.4832 124.295C70.3954 123.373 70.0879 123.066 69.1656 122.978C68.1993 122.846 67.9357 122.583 67.9357 121.793C67.9357 120.871 68.1554 120.74 70.044 120.608C71.9327 120.476 72.1084 120.389 72.2401 119.248L72.3719 118.063H69.1216H65.8714L65.564 122.759Z" fill="#FDFDFD"/>
</svg>
