<svg id="_0073_meditation" xmlns="http://www.w3.org/2000/svg" viewBox="0 0 500 500" data-imageid="meditation-54" imageName="Meditation" class="illustrations_image" style="width: 215px;"><defs><style>.cls-1_meditation-54{fill:#e6e6e6;opacity:.45;}.cls-2_meditation-54{fill:#f4a28c;}.cls-3_meditation-54{opacity:.03;}.cls-3_meditation-54,.cls-4_meditation-54{fill:#000001;}.cls-5_meditation-54{fill:#ce8172;opacity:.31;}.cls-6_meditation-54{fill:#fff;opacity:.46;}.cls-7_meditation-54{fill:#24285b;}.cls-4_meditation-54{opacity:.08;}.cls-8_meditation-54{fill:#ffd200;}.cls-9_meditation-54{fill:#68e1fd;}</style></defs><ellipse id="sd_meditation-54" class="cls-3_meditation-54" cx="250" cy="409.78" rx="218.6" ry="30.6"/><g id="person_meditation-54"><path class="cls-2_meditation-54" d="m289.93,226.72c-.87-20.52,22.93-32.58,39.12-19.95,16.76,13.07,33.01,38.27,32.27,86.83-1.5,99.12,78.61,67.15,78.61,67.15l1.25,18.08s-100.63,28.55-127.2-60.58c-2.93-9.83-6.4-19.5-10.06-29.09-5.69-14.92-12.97-38.34-14-62.44Z"/><path class="cls-2_meditation-54" d="m213.16,226.72c.87-20.52-22.93-32.58-39.12-19.95-16.76,13.07-33.01,38.27-32.27,86.83,1.5,99.12-78.61,67.15-78.61,67.15l-1.25,18.08s100.63,28.55,127.2-60.58c2.93-9.83,6.4-19.5,10.06-29.09,5.69-14.92,12.97-38.34,14-62.44Z"/><path class="cls-4_meditation-54" d="m163.96,245.3s-4.02,43.43,19.69,87.54l7.25-20.37-26.94-67.17Z"/><path class="cls-2_meditation-54" d="m256.25,144.23s4.66,11.73,5.04,20.35c.15,3.5-2.6,6.5-6.1,6.6-4.34.13-10.26-.96-13.52-6.94l-6.78-9.48s-4.04-6.09,1.3-13.04c5.34-6.95,17.58-4.79,20.06,2.5Z"/><polygon class="cls-2_meditation-54" points="237.53 157.01 231.99 198.01 254.8 199.45 249.8 169.81 237.53 157.01"/><path class="cls-2_meditation-54" d="m258.81,151.78l4.77,3.65c1.18.9,1.02,2.72-.3,3.4l-4.36,2.26-.11-9.31Z"/><path class="cls-5_meditation-54" d="m249.94,170.65s-4.77-1.12-7.21-4.02c0,0-2.04,8.83,8.64,12.51l-1.43-8.49Z"/><path class="cls-2_meditation-54" d="m245,156.97s-1.49-4.63-4.88-3.22c-3.39,1.41-1.28,8.11,3.66,7.31l1.22-4.09Z"/><path class="cls-7_meditation-54" d="m258.63,138.31l3.33,10.15-16.76,5.25s-1.62,10.95,4.04,13.31c0,0-3.59-.05-6.81-3.85-1.39-1.64-3.76-2-5.46-.68l-.22.17s-7.21-7.62-8.47-17.45c-1.26-9.83,9.67-10.64,9.67-10.64,0,0,15.01-9.19,20.67,3.73Z"/><path class="cls-9_meditation-54 targetColor" d="m163.96,245.3c-8.92-22.24,6.07-46.84,29.93-49.03,13.83-1.27,28.05-2.25,38.63-2.21,29.2.11,75.73-1.16,93.16,10.52,5.81,3.89,9.6,13.37,12.07,24.28,5.94,26.19,2.65,53.63-8.51,78.06l-35.12,76.85h-83.02l-20.21-71.28-26.94-67.17Z" style="fill: rgb(104, 225, 253);"/><path class="cls-7_meditation-54" d="m237.96,134.58s-.16-9.39-17.06-8.95-1.52,24.19-16.66,44.48c0,0,25.74-3.78,27.91-26.52l5.82-9.01Z"/><path class="cls-8_meditation-54" d="m239.06,133.98s-3.22-2.53-8.17.18c-4.95,2.71-7.74,13.58-.49,17.83,0,0-5.29-15.29,8.66-18.01Z"/><path class="cls-2_meditation-54" d="m204.23,195.38s7.44,30.35,43.13,31.39c39.3,1.15,42.54-31.31,42.54-31.31l-17.12-2.75c-18.4-2.95-37.15-2.83-55.51.38l-13.05,2.28Z"/><path class="cls-7_meditation-54" d="m251.37,383.74s-75.07-45.96-94.94-17.28c-19.88,28.68,107.94,38.88,107.94,38.88l4.62-13.23-17.61-8.37Z"/><path class="cls-2_meditation-54" d="m269.01,394.19s27.31,6.86,23.16,18.78c-4.14,11.91-27.22-7.17-27.22-7.17l4.05-11.61Z"/><path class="cls-7_meditation-54" d="m254.41,383.74s75.07-45.96,94.94-17.28c19.88,28.68-107.94,38.88-107.94,38.88l-4.62-13.23,17.61-8.37Z"/><path class="cls-2_meditation-54" d="m236.77,394.19s-27.31,6.86-23.16,18.78c4.14,11.91,27.22-7.17,27.22-7.17l-4.05-11.61Z"/><path class="cls-2_meditation-54" d="m63.15,360.76s-3.64-11.16-10.39-11.16,0,11.16,0,11.16c0,0-2.81-5.26-9.56-3.71s-12.66,21.23,18.7,21.79l1.25-18.08Z"/><rect class="cls-8_meditation-54" x="61.08" y="357.94" width="12.67" height="24.44" transform="translate(56.01 -5.92) rotate(8.59)"/><path class="cls-2_meditation-54" d="m435.28,361.93s3.64-11.16,10.39-11.16,0,11.16,0,11.16c0,0,2.81-5.26,9.56-3.71s12.66,21.23-18.7,21.79l-1.25-18.08Z"/><rect class="cls-8_meditation-54" x="424.68" y="359.11" width="12.67" height="24.44" transform="translate(912.63 674.16) rotate(171.41)"/><path class="cls-4_meditation-54" d="m333.34,296.81s-35.51,22.63-82.33,15.46c0,0,9.05,5.7,19.69,11.61,9.98,5.55,12.94,18.54,6.35,27.86l-22.64,32,50.12-22.78s25.88-54.89,28.81-64.16Z"/><rect class="cls-9_meditation-54 targetColor" x="229.56" y="186.16" width="26.03" height="5.69" style="fill: rgb(104, 225, 253);"/><rect class="cls-6_meditation-54" x="229.56" y="186.16" width="26.03" height="5.69"/></g><g id="bg_meditation-54"><path class="cls-1_meditation-54" d="m55.58,300.56c-1.4,0-2.53-1.13-2.53-2.53v-5.06c0-1.4,1.13-2.53,2.53-2.53s2.53,1.13,2.53,2.53v5.06c0,1.4-1.13,2.53-2.53,2.53Zm392.36-18.36c-1.4,0-2.53-1.13-2.53-2.53v-5.06c0-1.4,1.13-2.53,2.53-2.53s2.53,1.13,2.53,2.53v5.06c0,1.4-1.13,2.53-2.53,2.53Zm-392.36-6.95c-1.4,0-2.53-1.13-2.53-2.53v-5.06c0-1.4,1.13-2.53,2.53-2.53s2.53,1.13,2.53,2.53v5.06c0,1.4-1.13,2.53-2.53,2.53Zm392.05-18.35c-1.33,0-2.45-1.04-2.53-2.39-.09-1.67-.21-3.33-.35-4.98-.12-1.39.92-2.62,2.31-2.73,1.37-.12,2.61.92,2.73,2.31.14,1.7.26,3.4.36,5.11.08,1.4-.99,2.59-2.38,2.67-.05,0-.1,0-.14,0Zm-391.21-6.92c-.08,0-.16,0-.24-.01-1.39-.13-2.42-1.36-2.29-2.75.16-1.71.34-3.4.53-5.1.16-1.39,1.43-2.38,2.81-2.22,1.39.16,2.38,1.42,2.22,2.81-.19,1.65-.37,3.31-.52,4.97-.12,1.31-1.22,2.3-2.52,2.3Zm388.17-18.17c-1.19,0-2.26-.85-2.48-2.07-.3-1.64-.63-3.27-.98-4.9-.29-1.37.58-2.71,1.94-3,1.37-.29,2.71.58,3.01,1.94.36,1.67.69,3.34,1.01,5.03.26,1.37-.65,2.7-2.02,2.95-.16.03-.31.04-.47.04Zm-384.24-6.8c-.18,0-.37-.02-.56-.06-1.36-.31-2.22-1.66-1.91-3.02.38-1.67.77-3.33,1.19-4.99.34-1.35,1.72-2.18,3.07-1.84,1.35.34,2.18,1.72,1.83,3.07-.41,1.61-.79,3.23-1.16,4.86-.27,1.18-1.31,1.98-2.47,1.98Zm377.99-17.7c-1.07,0-2.06-.68-2.41-1.75-.52-1.58-1.05-3.16-1.61-4.73-.47-1.32.22-2.76,1.54-3.23,1.32-.47,2.76.22,3.23,1.54.57,1.61,1.12,3.23,1.65,4.85.43,1.33-.29,2.76-1.62,3.19-.26.09-.53.13-.79.13Zm-370.86-6.56c-.29,0-.58-.05-.87-.15-1.31-.48-1.99-1.93-1.51-3.25.59-1.61,1.2-3.21,1.83-4.81.52-1.3,1.99-1.93,3.29-1.42,1.3.51,1.93,1.99,1.42,3.29-.61,1.55-1.21,3.11-1.78,4.68-.38,1.03-1.35,1.66-2.38,1.66Zm361.49-16.92c-.95,0-1.85-.53-2.29-1.44-.72-1.5-1.45-2.99-2.2-4.47-.63-1.25-.14-2.77,1.11-3.4,1.24-.63,2.77-.14,3.4,1.11.77,1.52,1.53,3.05,2.26,4.59.6,1.26.07,2.77-1.19,3.37-.35.17-.72.25-1.09.25Zm-351.27-6.23c-.39,0-.79-.09-1.17-.29-1.24-.65-1.72-2.17-1.08-3.41.79-1.52,1.6-3.03,2.43-4.52.68-1.22,2.22-1.66,3.44-.99,1.22.68,1.66,2.22.99,3.44-.81,1.46-1.6,2.93-2.37,4.41-.45.87-1.33,1.36-2.25,1.36Zm338.95-15.83c-.83,0-1.64-.41-2.13-1.16-.9-1.4-1.82-2.78-2.76-4.15-.79-1.15-.49-2.73.66-3.52,1.15-.79,2.73-.49,3.52.66.96,1.41,1.91,2.83,2.83,4.26.76,1.17.42,2.74-.75,3.5-.42.27-.9.4-1.37.4Zm-325.84-5.8c-.5,0-1.01-.15-1.45-.46-1.15-.8-1.43-2.38-.63-3.52.98-1.4,1.98-2.79,2.99-4.17.83-1.12,2.42-1.36,3.54-.53,1.13.83,1.36,2.41.53,3.54-.99,1.34-1.96,2.7-2.92,4.06-.49.7-1.28,1.08-2.08,1.08Zm310.79-14.5c-.72,0-1.43-.3-1.93-.9-1.07-1.27-2.16-2.53-3.27-3.77-.93-1.04-.84-2.64.2-3.57,1.04-.93,2.64-.84,3.57.2,1.14,1.27,2.26,2.56,3.36,3.87.9,1.07.77,2.66-.3,3.57-.48.4-1.06.6-1.63.6Zm-295-5.27c-.61,0-1.22-.22-1.7-.66-1.03-.94-1.11-2.54-.17-3.58,1.15-1.26,2.31-2.51,3.5-3.75.97-1.01,2.57-1.04,3.58-.08,1.01.97,1.04,2.57.08,3.58-1.15,1.2-2.29,2.42-3.41,3.65-.5.55-1.18.83-1.87.83Zm277.47-12.94c-.61,0-1.22-.22-1.71-.66-1.23-1.12-2.47-2.23-3.73-3.32-1.06-.92-1.17-2.51-.26-3.57.92-1.06,2.52-1.17,3.57-.25,1.29,1.12,2.57,2.26,3.83,3.41,1.03.94,1.1,2.54.16,3.58-.5.55-1.18.82-1.87.82Zm-259.29-4.64c-.72,0-1.43-.3-1.93-.89-.91-1.06-.78-2.66.29-3.57,1.3-1.11,2.61-2.19,3.95-3.27,1.09-.87,2.68-.71,3.56.38.88,1.09.71,2.68-.38,3.56-1.29,1.05-2.58,2.11-3.84,3.18-.48.41-1.06.6-1.64.6Zm239.57-11.19c-.5,0-1.01-.15-1.45-.46-1.36-.96-2.74-1.9-4.13-2.82-1.16-.77-1.48-2.34-.71-3.51.77-1.16,2.34-1.48,3.51-.71,1.43.95,2.84,1.91,4.24,2.89,1.15.8,1.42,2.38.62,3.52-.49.7-1.28,1.08-2.07,1.08Zm-219.3-3.92c-.83,0-1.64-.41-2.12-1.15-.76-1.17-.43-2.74.74-3.5,1.43-.93,2.87-1.84,4.33-2.73,1.19-.73,2.75-.36,3.48.83s.36,2.75-.83,3.48c-1.42.87-2.82,1.76-4.21,2.66-.43.28-.9.41-1.38.41Zm197.71-9.24c-.4,0-.8-.09-1.17-.29-1.48-.77-2.96-1.53-4.46-2.27-1.26-.62-1.77-2.13-1.16-3.39.62-1.26,2.14-1.77,3.39-1.15,1.54.76,3.07,1.53,4.58,2.33,1.24.65,1.72,2.18,1.07,3.42-.45.86-1.33,1.36-2.24,1.36Zm-175.67-3.13c-.94,0-1.85-.53-2.28-1.44-.6-1.26-.07-2.77,1.19-3.38,1.54-.74,3.08-1.45,4.64-2.15,1.27-.57,2.77,0,3.34,1.28.57,1.28,0,2.77-1.28,3.34-1.52.68-3.02,1.38-4.51,2.09-.35.17-.73.25-1.09.25Zm152.55-7.14c-.29,0-.59-.05-.87-.16-1.57-.58-3.14-1.13-4.73-1.67-1.32-.45-2.03-1.89-1.58-3.21.45-1.32,1.89-2.03,3.21-1.58,1.62.55,3.24,1.12,4.85,1.72,1.31.48,1.98,1.94,1.5,3.25-.38,1.02-1.34,1.66-2.37,1.66Zm-129.11-2.29c-1.06,0-2.05-.68-2.4-1.74-.44-1.33.29-2.76,1.61-3.19,1.62-.53,3.25-1.04,4.89-1.54,1.34-.4,2.75.36,3.15,1.7.4,1.34-.36,2.75-1.7,3.15-1.6.48-3.19.98-4.77,1.5-.26.09-.53.13-.79.13Zm104.86-4.9c-.18,0-.37-.02-.56-.06-1.62-.37-3.25-.72-4.88-1.04-1.37-.27-2.26-1.61-1.99-2.98.28-1.37,1.61-2.26,2.98-1.99,1.68.34,3.35.69,5.01,1.07,1.36.31,2.22,1.66,1.91,3.03-.27,1.17-1.31,1.97-2.47,1.97Zm-80.38-1.41c-1.19,0-2.25-.85-2.48-2.06-.26-1.37.64-2.7,2.01-2.96,1.68-.32,3.36-.62,5.05-.89,1.37-.22,2.68.71,2.9,2.09.22,1.38-.71,2.68-2.09,2.9-1.65.27-3.29.56-4.92.87-.16.03-.32.05-.47.05Zm55.42-2.57c-.08,0-.16,0-.24-.01-1.65-.16-3.31-.29-4.98-.4-1.39-.1-2.45-1.3-2.35-2.7.1-1.4,1.32-2.44,2.7-2.35,1.71.12,3.41.26,5.11.42,1.39.13,2.41,1.37,2.28,2.76-.12,1.31-1.23,2.29-2.52,2.29Zm-30.33-.53c-1.33,0-2.44-1.04-2.52-2.38-.08-1.4.98-2.59,2.38-2.68,1.7-.1,3.41-.18,5.12-.24.03,0,.06,0,.09,0,1.36,0,2.48,1.08,2.53,2.45.05,1.4-1.05,2.57-2.44,2.61-1.67.06-3.33.13-4.99.23-.05,0-.1,0-.15,0Z"/><circle class="cls-8_meditation-54" cx="63.15" cy="210.58" r="20.98"/><circle class="cls-8_meditation-54" cx="254.8" cy="63.18" r="20.98"/><circle class="cls-8_meditation-54" cx="441.19" cy="216.03" r="20.98"/><circle class="cls-7_meditation-54" cx="127.86" cy="117.03" r="15.35"/><circle class="cls-7_meditation-54" cx="380.9" cy="119.09" r="15.35"/></g></svg>