<svg id="Layer_1" xmlns="http://www.w3.org/2000/svg" xmlns:xlink="http://www.w3.org/1999/xlink" viewBox="0 0 500 500" data-imageid="surfing-91" imageName="Surfing" class="illustrations_image" style="width: 215px;"><defs><style>.cls-1_surfing-91{fill:url(#linear-gradient);}.cls-1_surfing-91,.cls-2_surfing-91,.cls-3_surfing-91,.cls-4_surfing-91,.cls-5_surfing-91,.cls-6_surfing-91,.cls-7_surfing-91,.cls-8_surfing-91,.cls-9_surfing-91,.cls-10_surfing-91,.cls-11_surfing-91,.cls-12_surfing-91,.cls-13_surfing-91,.cls-14_surfing-91,.cls-15_surfing-91,.cls-16_surfing-91,.cls-17_surfing-91,.cls-18_surfing-91,.cls-19_surfing-91,.cls-20_surfing-91,.cls-21_surfing-91,.cls-22_surfing-91,.cls-23_surfing-91,.cls-24_surfing-91,.cls-25_surfing-91,.cls-26_surfing-91,.cls-27_surfing-91,.cls-28_surfing-91,.cls-29_surfing-91,.cls-30_surfing-91,.cls-31_surfing-91,.cls-32_surfing-91,.cls-33_surfing-91,.cls-34_surfing-91,.cls-35_surfing-91,.cls-36_surfing-91,.cls-37_surfing-91,.cls-38_surfing-91,.cls-39_surfing-91,.cls-40_surfing-91,.cls-41_surfing-91,.cls-42_surfing-91,.cls-43_surfing-91,.cls-44_surfing-91,.cls-45_surfing-91,.cls-46_surfing-91,.cls-47_surfing-91,.cls-48_surfing-91,.cls-49_surfing-91,.cls-50_surfing-91{stroke-width:0px;}.cls-2_surfing-91{fill:url(#linear-gradient-38-surfing-91);}.cls-3_surfing-91{fill:url(#linear-gradient-33-surfing-91);}.cls-4_surfing-91{fill:url(#linear-gradient-29-surfing-91);}.cls-5_surfing-91{fill:url(#linear-gradient-32-surfing-91);}.cls-6_surfing-91{fill:url(#linear-gradient-30-surfing-91);}.cls-7_surfing-91{fill:url(#linear-gradient-31-surfing-91);}.cls-8_surfing-91{fill:url(#linear-gradient-36-surfing-91);}.cls-9_surfing-91{fill:url(#linear-gradient-39-surfing-91);}.cls-10_surfing-91{fill:url(#linear-gradient-34-surfing-91);}.cls-11_surfing-91{fill:url(#linear-gradient-37-surfing-91);}.cls-12_surfing-91{fill:url(#linear-gradient-35-surfing-91);}.cls-13_surfing-91{fill:url(#linear-gradient-28-surfing-91);}.cls-14_surfing-91{fill:url(#linear-gradient-25-surfing-91);}.cls-15_surfing-91{fill:url(#linear-gradient-11-surfing-91);}.cls-16_surfing-91{fill:url(#linear-gradient-12-surfing-91);}.cls-17_surfing-91{fill:url(#linear-gradient-13-surfing-91);}.cls-18_surfing-91{fill:url(#linear-gradient-10-surfing-91);}.cls-19_surfing-91{fill:url(#linear-gradient-17-surfing-91);}.cls-20_surfing-91{fill:url(#linear-gradient-16-surfing-91);}.cls-21_surfing-91{fill:url(#linear-gradient-19-surfing-91);}.cls-22_surfing-91{fill:url(#linear-gradient-15-surfing-91);}.cls-23_surfing-91{fill:url(#linear-gradient-23-surfing-91);}.cls-24_surfing-91{fill:url(#linear-gradient-21-surfing-91);}.cls-25_surfing-91{fill:url(#linear-gradient-18-surfing-91);}.cls-26_surfing-91{fill:url(#linear-gradient-14-surfing-91);}.cls-27_surfing-91{fill:url(#linear-gradient-22-surfing-91);}.cls-28_surfing-91{fill:url(#linear-gradient-20-surfing-91);}.cls-29_surfing-91{fill:url(#linear-gradient-27-surfing-91);}.cls-30_surfing-91{fill:url(#linear-gradient-24-surfing-91);}.cls-31_surfing-91{fill:url(#linear-gradient-26-surfing-91);}.cls-32_surfing-91{fill:url(#linear-gradient-45-surfing-91);}.cls-33_surfing-91{fill:url(#linear-gradient-46-surfing-91);}.cls-34_surfing-91{fill:url(#linear-gradient-44-surfing-91);}.cls-35_surfing-91{fill:url(#linear-gradient-42-surfing-91);}.cls-36_surfing-91{fill:url(#linear-gradient-43-surfing-91);}.cls-37_surfing-91{fill:url(#linear-gradient-40-surfing-91);}.cls-38_surfing-91{fill:url(#linear-gradient-41-surfing-91);}.cls-51_surfing-91{fill:none;stroke:#000;stroke-miterlimit:10;stroke-width:.39px;}.cls-39_surfing-91{fill:url(#linear-gradient-4-surfing-91);}.cls-40_surfing-91{fill:url(#linear-gradient-2-surfing-91);}.cls-41_surfing-91{fill:url(#linear-gradient-3-surfing-91);}.cls-42_surfing-91{fill:url(#linear-gradient-8-surfing-91);}.cls-43_surfing-91{fill:url(#linear-gradient-9-surfing-91);}.cls-44_surfing-91{fill:url(#linear-gradient-7-surfing-91);}.cls-45_surfing-91{fill:url(#linear-gradient-5-surfing-91);}.cls-46_surfing-91{fill:url(#linear-gradient-6-surfing-91);}.cls-47_surfing-91{fill:#231f20;}.cls-48_surfing-91{fill:#ffb4a3;}.cls-49_surfing-91,.cls-50_surfing-91{fill:#68e1fd;}.cls-50_surfing-91{isolation:isolate;opacity:.19;}</style><linearGradient id="linear-gradient-surfing-91" x1="-2319.81" y1="-4203.48" x2="-2022.19" y2="-4207.15" gradientTransform="translate(2459.77 4462.85)" gradientUnits="userSpaceOnUse"><stop offset="0" stop-color="#000" stop-opacity="0"/><stop offset=".88" stop-color="#000" stop-opacity=".8"/><stop offset=".97" stop-color="#000"/></linearGradient><linearGradient id="linear-gradient-2-surfing-91" x1="-2308.85" y1="-4196.9" x2="-2416.36" y2="-4189.62" xlink:href="#linear-gradient-surfing-91"/><linearGradient id="linear-gradient-3-surfing-91" x1="-2464.12" y1="-4302.6" x2="-2019.85" y2="-4397.3" xlink:href="#linear-gradient-surfing-91"/><linearGradient id="linear-gradient-4-surfing-91" x1="-2265.46" y1="-4225.66" x2="-2322.66" y2="-4106.17" xlink:href="#linear-gradient-surfing-91"/><linearGradient id="linear-gradient-5-surfing-91" x1="-2323.97" y1="-4340.22" x2="-2139.23" y2="-4422.42" gradientTransform="translate(2459.77 4462.85)" gradientUnits="userSpaceOnUse"><stop offset="0" stop-color="#fff" stop-opacity="0"/><stop offset=".84" stop-color="#fff" stop-opacity=".84"/><stop offset=".97" stop-color="#fff"/></linearGradient><linearGradient id="linear-gradient-6-surfing-91" x1="-2269.62" y1="-4393.79" x2="-2183.54" y2="-4393.79" xlink:href="#linear-gradient-5-surfing-91"/><linearGradient id="linear-gradient-7-surfing-91" x1="-2328.85" y1="-4112.6" x2="-2109.33" y2="-4112.6" xlink:href="#linear-gradient-5-surfing-91"/><linearGradient id="linear-gradient-8-surfing-91" x1="-2216.08" y1="-4048.86" x2="-2166.45" y2="-4254.47" xlink:href="#linear-gradient-surfing-91"/><linearGradient id="linear-gradient-9-surfing-91" x1="-2258.62" y1="-4160.76" x2="-2469.32" y2="-4052.08" xlink:href="#linear-gradient-5-surfing-91"/><linearGradient id="linear-gradient-10-surfing-91" x1="-2269.28" y1="-4154.54" x2="-2123.7" y2="-4154.54" xlink:href="#linear-gradient-5-surfing-91"/><linearGradient id="linear-gradient-11-surfing-91" x1="-2393.14" y1="-4176.02" x2="-2270.35" y2="-4176.02" xlink:href="#linear-gradient-5-surfing-91"/><linearGradient id="linear-gradient-12-surfing-91" x1="-2226.36" y1="-4173.32" x2="-2267.58" y2="-4164.97" xlink:href="#linear-gradient-5-surfing-91"/><linearGradient id="linear-gradient-13-surfing-91" x1="-2325.76" y1="-4189.63" x2="-2333.04" y2="-4188.16" gradientTransform="translate(2503.04 4464.1)" xlink:href="#linear-gradient-5-surfing-91"/><linearGradient id="linear-gradient-14-surfing-91" x1="-2338.72" y1="-4099.14" x2="-2345.99" y2="-4097.66" gradientTransform="translate(2503.04 4464.1)" xlink:href="#linear-gradient-5-surfing-91"/><linearGradient id="linear-gradient-15-surfing-91" x1="-2324.36" y1="-4206.65" x2="-2329.59" y2="-4205.59" gradientTransform="translate(2503.04 4464.1)" xlink:href="#linear-gradient-5-surfing-91"/><linearGradient id="linear-gradient-16-surfing-91" x1="-3041.2" y1="-3451.05" x2="-3044.56" y2="-3450.36" gradientTransform="translate(2540.26 4340.68) rotate(12.17)" xlink:href="#linear-gradient-5-surfing-91"/><linearGradient id="linear-gradient-17-surfing-91" x1="-2197.69" y1="-4132.35" x2="-2205.91" y2="-4114.84" gradientTransform="translate(2503.04 4464.1)" xlink:href="#linear-gradient-5-surfing-91"/><linearGradient id="linear-gradient-18-surfing-91" x1="-2196.13" y1="-4144.85" x2="-2204.34" y2="-4127.34" gradientTransform="translate(2503.04 4464.1)" xlink:href="#linear-gradient-5-surfing-91"/><linearGradient id="linear-gradient-19-surfing-91" x1="-2188.02" y1="-4165.91" x2="-2193.25" y2="-4164.85" gradientTransform="translate(2503.04 4464.1)" xlink:href="#linear-gradient-5-surfing-91"/><linearGradient id="linear-gradient-20-surfing-91" x1="-2365" y1="-4174.05" x2="-2370.23" y2="-4172.99" gradientTransform="translate(2503.04 4464.1)" xlink:href="#linear-gradient-5-surfing-91"/><linearGradient id="linear-gradient-21-surfing-91" x1="-2395.98" y1="-4201" x2="-2401.21" y2="-4199.94" gradientTransform="translate(2503.04 4464.1)" xlink:href="#linear-gradient-5-surfing-91"/><linearGradient id="linear-gradient-22-surfing-91" x1="-2376.21" y1="-4301.19" x2="-2381.44" y2="-4300.13" gradientTransform="translate(2503.04 4464.1)" xlink:href="#linear-gradient-5-surfing-91"/><linearGradient id="linear-gradient-23-surfing-91" x1="-2304.53" y1="-4213.52" x2="-2309.77" y2="-4212.46" gradientTransform="translate(2503.04 4464.1)" xlink:href="#linear-gradient-5-surfing-91"/><linearGradient id="linear-gradient-24-surfing-91" x1="-2298.53" y1="-4252.51" x2="-2365.88" y2="-4246.59" xlink:href="#linear-gradient-5-surfing-91"/><linearGradient id="linear-gradient-25-surfing-91" x1="-2385.78" y1="-4214.83" x2="-2336.95" y2="-4214.83" xlink:href="#linear-gradient-5-surfing-91"/><linearGradient id="linear-gradient-26-surfing-91" x1="-2141.49" y1="-4314.49" x2="-2138.23" y2="-4283.62" gradientTransform="translate(2459.77 4462.85)" gradientUnits="userSpaceOnUse"><stop offset="0" stop-color="#000" stop-opacity="0"/><stop offset=".91" stop-color="#000" stop-opacity=".8"/><stop offset="1" stop-color="#000"/></linearGradient><linearGradient id="linear-gradient-27-surfing-91" x1="-2184.7" y1="-4262.62" x2="-2183.42" y2="-4250.54" xlink:href="#linear-gradient-26-surfing-91"/><linearGradient id="linear-gradient-28-surfing-91" x1="-2188.61" y1="-4294.04" x2="-2186.95" y2="-4285.62" xlink:href="#linear-gradient-26-surfing-91"/><linearGradient id="linear-gradient-29-surfing-91" x1="-2230.07" y1="-4279.73" x2="-2231.34" y2="-4212.03" gradientTransform="translate(2503.04 4464.1)" xlink:href="#linear-gradient-26-surfing-91"/><linearGradient id="linear-gradient-30-surfing-91" x1="-2152.58" y1="-4296.82" x2="-2157.99" y2="-4243.75" xlink:href="#linear-gradient-26-surfing-91"/><linearGradient id="linear-gradient-31-surfing-91" x1="-2200.14" y1="-4292.24" x2="-2205.12" y2="-4254.89" xlink:href="#linear-gradient-5-surfing-91"/><linearGradient id="linear-gradient-32-surfing-91" x1="-3220.71" y1="-3439.33" x2="-3225.69" y2="-3401.98" gradientTransform="translate(2527.5 4321.74) rotate(14.54)" xlink:href="#linear-gradient-5-surfing-91"/><linearGradient id="linear-gradient-33-surfing-91" x1="-3208" y1="-3446.02" x2="-3212.99" y2="-3408.68" gradientTransform="translate(2527.5 4321.74) rotate(14.54)" xlink:href="#linear-gradient-5-surfing-91"/><linearGradient id="linear-gradient-34-surfing-91" x1="-3193.83" y1="-3477.33" x2="-3198.81" y2="-3439.98" gradientTransform="translate(2527.5 4321.74) rotate(14.54)" xlink:href="#linear-gradient-5-surfing-91"/><linearGradient id="linear-gradient-35-surfing-91" x1="1608.55" y1="-4991.66" x2="1604.32" y2="-4959.93" gradientTransform="translate(2496.32 4913.56) rotate(-43.12)" xlink:href="#linear-gradient-5-surfing-91"/><linearGradient id="linear-gradient-36-surfing-91" x1="1622.27" y1="-4986.03" x2="1618.04" y2="-4954.3" gradientTransform="translate(2496.32 4913.56) rotate(-43.12)" xlink:href="#linear-gradient-5-surfing-91"/><linearGradient id="linear-gradient-37-surfing-91" x1="1649.05" y1="-4965.47" x2="1644.82" y2="-4933.74" gradientTransform="translate(2496.32 4913.56) rotate(-43.12)" xlink:href="#linear-gradient-5-surfing-91"/><linearGradient id="linear-gradient-38-surfing-91" x1="1611.45" y1="-4972.98" x2="1609.32" y2="-4957.06" gradientTransform="translate(2496.32 4913.56) rotate(-43.12)" xlink:href="#linear-gradient-5-surfing-91"/><linearGradient id="linear-gradient-39-surfing-91" x1="1630.97" y1="-4974.01" x2="1628.85" y2="-4958.09" gradientTransform="translate(2496.32 4913.56) rotate(-43.12)" xlink:href="#linear-gradient-5-surfing-91"/><linearGradient id="linear-gradient-40-surfing-91" x1="1633.73" y1="-4957.75" x2="1631.61" y2="-4941.83" gradientTransform="translate(2496.32 4913.56) rotate(-43.12)" xlink:href="#linear-gradient-5-surfing-91"/><linearGradient id="linear-gradient-41-surfing-91" x1="-2075.76" y1="-4268.68" x2="-2309.23" y2="-4155.12" xlink:href="#linear-gradient-surfing-91"/><linearGradient id="linear-gradient-42-surfing-91" x1="-2149.72" y1="-4251.01" x2="-2114.13" y2="-4174.75" xlink:href="#linear-gradient-surfing-91"/><linearGradient id="linear-gradient-43-surfing-91" x1="-2061.12" y1="-4303.94" x2="-2431.97" y2="-4034.14" xlink:href="#linear-gradient-5-surfing-91"/><linearGradient id="linear-gradient-44-surfing-91" x1="-2211.9" y1="-4158.03" x2="-2272.92" y2="-4172.65" xlink:href="#linear-gradient-surfing-91"/><linearGradient id="linear-gradient-45-surfing-91" x1="-2054.84" y1="-4243.49" x2="-2259.92" y2="-4170.19" xlink:href="#linear-gradient-26-surfing-91"/><linearGradient id="linear-gradient-46-surfing-91" x1="-2054.79" y1="-4292.45" x2="-2051.3" y2="-4205.06" xlink:href="#linear-gradient-5-surfing-91"/></defs><g id="background_surfing-91"><path class="cls-50_surfing-91 targetColor" d="M380.38,306.72c8.54-14.4,25.12-24.39,28.37-40.83,3.78-19.14-12.44-36.94-12.44-56.45,0-12.36,6.51-23.68,9.57-35.66,4.48-17.7.85-37.48-10.4-51.85s-30.11-22.71-48.22-20.4c-10.03,1.28-19.42,5.56-29.31,7.65-13.65,2.86-27.85,1.52-40.73-3.83-11.86-4.96-22.47-13.27-35.1-15.68-12.99-2.48-26.37,1.69-38.27,7.46-58.04,28.18-91.66,99.14-76.69,161.9,14.97,62.76,76.94,110.97,141.48,109.93,16.27-.26,32.27-3.27,48.22-6.29,13.86-2.6,42.86-2.11,53.06-12.96,9.77-10.41,2.79-30.06,10.47-43h0Z" style="fill: rgb(104, 225, 253);"/></g><g id="wave_surfing-91"><path class="cls-49_surfing-91 targetColor" d="M270.3,299.28c-27.08-8.54-53.94-19.2-76.55-36.44-22.61-17.23-40.63-41.77-45.21-69.78-4.95-30.21,6.36-61.55,25.55-85.42,19.18-23.86,45.56-40.99,73.13-54.27,4.06-1.91,8.8-4.87,8.54-9.36-.4-6.7-10.17-6.99-16.52-4.91-25.83,8.52-49.8,21.78-73.15,35.71-21.15,12.63-42.18,26.07-58.96,44.1-18.53,19.91-31.11,44.6-41.72,69.65-14.9,35.16-26.55,73.06-22.53,111.04,2.32,21.87,9.77,42.92,18.92,62.93,11,24.07,24.81,47.33,44.22,65.35,13.96,12.97,30.51,22.91,47.84,30.81,26.35,12.01,55.01,19.48,83.96,19.56,38.08-.02,75.09-12.64,105.25-35.88,19-14.74,35.22-34.22,41.62-57.41s-2.47-49.84-23.1-62.19c-4.18-2.5-8.73-4.32-13.47-5.4-4.59-1.04-9.33-1.38-13.91-2.49" style="fill: rgb(104, 225, 253);"/><path class="cls-1_surfing-91" d="M270.3,299.28c-27.08-8.54-53.94-19.2-76.55-36.44-22.61-17.23-40.63-41.77-45.21-69.78-4.95-30.21,6.36-61.55,25.55-85.42,19.18-23.86,45.56-40.99,73.13-54.27,4.06-1.91,8.8-4.87,8.54-9.36-.4-6.7-10.17-6.99-16.52-4.91-25.83,8.52-49.8,21.78-73.15,35.71-21.15,12.63-42.18,26.07-58.96,44.1-18.53,19.91-31.11,44.6-41.72,69.65-14.9,35.16-26.55,73.06-22.53,111.04,2.32,21.87,9.77,42.92,18.92,62.93,11,24.07,24.81,47.33,44.22,65.35,13.96,12.97,30.51,22.91,47.84,30.81,26.35,12.01,55.01,19.48,83.96,19.56,38.08-.02,75.09-12.64,105.25-35.88,19-14.74,35.22-34.22,41.62-57.41s-2.47-49.84-23.1-62.19c-4.18-2.5-8.73-4.32-13.47-5.4-4.59-1.04-9.33-1.38-13.91-2.49"/><path class="cls-40_surfing-91" d="M184.65,111.15s-113.3,79.73-94,178.38c40.25,205.13,170.86,98.46,170.86,98.46,0,0-47.91,17.62-82.23-10.53-57.42-47.05-100.9-162.49,5.37-266.32h0Z"/><path class="cls-41_surfing-91" d="M163.97,83.33c-6.31,5.04-9.87,13.3-17.05,16.97-1.86.96-3.88,1.54-5.66,2.6-3.34,2.17-5.78,5.47-6.87,9.3-.64,1.97-.96,4.04-1.76,5.97-1.47,3.83-4.31,6.92-7.1,9.91-10.79,11.61-21.88,23.19-29.73,36.96-4.32,7.58-7.59,15.69-10.85,23.78,7.65-12.07,18.4-21.75,29.03-31.26l17.94-16.05c16.06-14.35,32.11-28.71,48.17-43.06,3.42-3.19,7.05-6.16,10.86-8.89,3.88-2.66,8.25-4.94,10.86-8.85,1.91-2.81,3.1-8.61-.51-10.6-3.36-1.91-7.88,1.13-10.84,2.45-8.67,3.9-18.89,4.67-26.49,10.75v.02Z"/><path class="cls-39_surfing-91" d="M157.3,247.02l-12.1-21.61c-2.22,6.23-1.45,13.07-.66,19.63l3.44,28.36c1.85,15.19,3.93,31.06,12.63,43.65,8.7,12.59,26.24,20.51,39.79,13.4,2.97-1.47,5.46-3.76,7.17-6.6,1.19-2.27,1.94-4.76,2.2-7.31,2.13-16.09-6.86-30.91-20.23-39.23-5.56-3.45-11.89-5.55-16.99-9.74-6.59-5.41-11.08-13.18-15.24-20.55h0Z"/><path class="cls-49_surfing-91 targetColor" d="M227.59,46.4c-8.15-2.53-17.33,1.11-23.07,7.46-5.74,6.35-8.32,14.95-9.2,23.43-15.2-3.3-31.86,9.08-33.09,24.6-12.75-.25-23.29,9.89-23.54,22.65-.08,4.13.95,8.2,2.98,11.8-8.17,7.87-5.66,23.71,4.53,28.71.81.47,1.74.69,2.67.63,2.07-.28,3.06-2.62,3.72-4.6,10.53-31.77,35.04-56.65,62.89-74.18,14.55-9.16,93.61-36.44,55.76-61.06-17.49-11.4-38.13,2.94-43.65,20.56h0Z" style="fill: rgb(104, 225, 253);"/><path class="cls-45_surfing-91" d="M275.76,51.81h0c-14.18,15.53-50.81,29.13-60.28,35.07-15.98,10.07-30.86,22.55-42.62,37.37-8.87,10.99-15.74,23.45-20.29,36.82-.65,1.97-1.65,4.32-3.71,4.59-.93.05-1.86-.16-2.67-.63-10.19-4.99-12.69-20.82-4.53-28.71-6.27-11.11-2.35-25.2,8.76-31.47,3.6-2.03,7.67-3.06,11.8-2.98,1.22-15.52,17.87-27.9,33.09-24.6.87-8.49,3.49-17.09,9.2-23.43,5.7-6.34,14.92-9.97,23.06-7.44,5.52-17.63,26.17-31.96,43.67-20.57,13.27,8.63,12.18,17.59,4.52,25.98h0Z"/><path class="cls-46_surfing-91" d="M275.87,47.83h0c-11.07,12.1-39.58,22.69-46.95,27.28-12.44,7.85-24.04,17.57-33.19,29.11-1.47.37-3.02-.05-4.1-1.11-1.2-1.27-1.36-3.16-1.41-4.89-.19-2.69.03-5.39.64-8.02,1.78-6.12,7.06-10.57,13.4-11.28,1.01.03,2.01-.24,2.87-.77.45-.43.8-.95,1.02-1.53,1.18-2.53,2.23-5.18,3.96-7.37,1.73-2.19,4.36-3.9,7.16-3.71,1.13.08,2.38.43,3.31-.24.51-.45.9-1.03,1.13-1.67,3.2-6.29,10.51-9.32,17.22-7.14,1.18-5.54,3.06-11.08,6.6-15.51,5.24-6.54,13.4-9.01,21.21-5.83,5.76,2.34,8.55,7.48,7.13,12.68Z"/><path class="cls-49_surfing-91 targetColor" d="M132.42,351.17c4.73-21.88,20.68-39.57,37.77-54.03,49.01-41.19,110.68-64.31,174.69-65.5,1.66,0,3.53,0,4.69,1.25,2.42,2.52-.65,6.47-3.52,8.47-13.68,9.52-28.51,17.53-40.84,28.75-12.32,11.22-22.16,26.6-21.89,43.25.53,32.32,37.32,55.64,37.11,87.95-.12,15.46-9.24,29.82-21.32,39.46-12.08,9.64-26.88,15.2-41.67,19.67-24.45,7.39-50.92,12.15-75.32,4.62-19.14-5.9-36.83-21.38-41.97-41.14-2.71-10.45-3.57-21.56-5.97-32.25-2.99-13.25-4.65-27.09-1.75-40.51h0Z" style="fill: rgb(104, 225, 253);"/><path class="cls-44_surfing-91" d="M132.42,351.17c4.73-21.88,20.68-39.57,37.77-54.03,49.01-41.19,110.68-64.31,174.69-65.5,1.66,0,3.53,0,4.69,1.25,2.42,2.52-.65,6.47-3.52,8.47-13.68,9.52-28.51,17.53-40.84,28.75-12.32,11.22-22.16,26.6-21.89,43.25.53,32.32,37.32,55.64,37.11,87.95-.12,15.46-9.24,29.82-21.32,39.46-12.08,9.64-26.88,15.2-41.67,19.67-24.45,7.39-50.92,12.15-75.32,4.62-19.14-5.9-36.83-21.38-41.97-41.14-2.71-10.45-3.57-21.56-5.97-32.25-2.99-13.25-4.65-27.09-1.75-40.51h0Z"/><path class="cls-49_surfing-91 targetColor" d="M201.37,393.96c7.04-26.1,34.1-42.67,42.59-68.34,3.83-11.48,3.83-24.46,10.71-34.34,10.97-15.63,33.26-16.27,51.32-22.45-13.05,15.58-25.36,33.32-26.87,53.58-1.22,16.32,4.73,32.21,7.97,48.24,3.24,16.04,3.65,33.43-3.76,48.02-6.27,12.2-17.32,21.24-30.51,24.97-33.81,9.41-61.05-14.14-51.45-49.7v.02Z" style="fill: rgb(104, 225, 253);"/><path class="cls-49_surfing-91 targetColor" d="M216.34,392.03c6.01-22.28,29.12-36.42,36.36-58.37,3.23-9.78,3.57-37.27,9.48-45.7,9.31-13.3,34.19-18.04,49.57-23.3-11.14,13.29-35.57,36.48-36.86,53.78-1.04,13.93,4.03,27.48,6.8,41.14s3.64,26.12-2.68,38.58c-5.21,10.3-7.29,16.76-18.42,19.84-28.86,8.03-52.44,4.36-44.26-25.99v.02Z" style="fill: rgb(104, 225, 253);"/><path class="cls-42_surfing-91" d="M216.34,392.03c6.01-22.28,29.12-36.42,36.36-58.37,3.23-9.78,3.57-37.27,9.48-45.7,9.35-13.34,29.32-16.09,44.73-21.36-11.15,13.3-30.72,34.5-32.02,51.8-1.04,13.93,4.03,27.48,6.8,41.14s3.64,26.12-2.68,38.58c-5.21,10.3-7.29,16.76-18.42,19.84-28.86,8.07-52.44,4.4-44.26-25.95v.02Z"/><path class="cls-43_surfing-91" d="M200.87,320.41c-18.66,18.63-43.93,34.51-69.9,29.94-15.9-2.8-29.74-13.1-39.83-25.71s-16.9-27.49-23.27-42.33c-.75-1.74-1.62-3.62-3.29-4.48-2.55-1.3-5.83.53-7.07,3.11s-1.02,5.64-.7,8.51c4.46,37.6,21.26,72.66,47.78,99.68,8.96,9.07,19.14,17.22,31.13,21.71,19.91,7.41,43.74,3.03,59.72-10.97,15.31-13.4,22.61-33.49,28.45-52.92,2.94-9.82,5.91-20.16,13.16-27.41,4.37-4.38,10.2-7.51,13.16-12.95,8.49-15.62-11.37-14.25-19.63-10.63-11.77,5.12-20.78,15.55-29.69,24.45h-.02Z"/><path class="cls-18_surfing-91" d="M257.79,286.99c10.67-12.2,28.07-16.41,44.26-15.81,11.62.42,23.86,3.38,31.85,11.81.83.8,1.48,1.75,1.91,2.81,1.13,3.16-1.54,6.7-4.78,7.51s-6.7-.57-9.41-2.52c-2.71-1.94-5-4.47-7.65-6.49s-6.99-2.99-8.37-.09c-.96,2.1.48,5.08-1.21,6.7-1.04.96-2.71.8-4.1.45-3.97-1.02-7.76-2.92-11.85-3.13-7.33-.38-13.8,4.66-18.81,10.02-5.01,5.36-9.63,11.48-16.27,14.58-3.53,1.64-7.65,2.45-10.18,5.44-3.02,3.63-2.46,9.21-5.2,13.06-1.78,2.51-4.68,3.91-7.49,5.16-4.47,1.98-8.98,3.82-13.56,5.53-7.65,2.87-16.38,5.23-23.76,1.72-1.39-.67-2.87-1.87-2.66-3.4.14-.73.52-1.4,1.06-1.91,4.97-5.34,12.95-5.15,19.19-8.03,6.25-2.88,11.33-8.01,17.71-11.02,15.06-7.08,18.99-20.64,29.29-32.41l.03.02Z"/><path class="cls-15_surfing-91" d="M163.51,294.3c-3.76,4.39-6.04,9.89-9.8,14.29-3.76,4.39-10.01,7.65-15.31,5.24-5.8-2.62-7.65-10.64-13.45-13.2-4.96-2.19-11.14.39-15.98-2.05-8.54-4.3-4.46-17.8-9.29-26.04-3.38-5.74-10.67-8.06-14.94-13.2-5.31-6.39-5.34-16.39-11.69-21.74-.68-.69-1.62-1.07-2.58-1.03-.81.2-1.52.71-1.96,1.43-3.76,5.05-1.23,12.25,1.91,17.7,4.02,6.94,8.86,13.37,14.43,19.14,2.01,2.09,4.19,4.2,5.09,6.96.8,2.47.47,5.15.73,7.73,1.22,12.44,14.65,19.31,21.77,29.54,2.11,3.02,3.69,6.43,6.16,9.17,5.65,6.31,14.76,7.99,23.21,8.61,11.07.84,23.58-.05,31.06-8.26,1.91-2.14,3.95-4.95,6.84-4.85,1.51.05,2.87.96,4.41,1,4.91.21,5.88-6.88,5.02-11.71-.96-5.61-1.24-24.6-6.18-27.58-4.67-2.79-17.33,4.62-19.45,8.86h0Z"/><path class="cls-16_surfing-91" d="M191.41,291.69c3.16-.55,5.88-2.54,7.37-5.39,1.29-2.32,2.09-5.25,4.48-6.4s5.34.13,8.02-.2c3.94-.49,6.51-4.23,9.7-6.59,3.14-2.3,7.03-3.32,10.9-2.87.51.03,1.01.18,1.45.44.87.72,1.14,1.95.63,2.97-.53.98-1.33,1.78-2.32,2.3-2.55,1.58-5.47,2.46-8.47,2.57-.67-.03-1.35.08-1.98.32-1.38.69-1.6,2.58-2.67,3.68-1.82,1.85-5.11.75-7.36,2.02-.98.65-1.78,1.53-2.33,2.56-1.57,2.53-2.96,5.31-5.36,7.07-1.91,1.42-4.45,2.09-6.05,3.88-3.57,4.02-.47,10.53-2.27,15.63-.9,2.52-2.99,4.43-5.58,5.11-2.61.63-5.35-.18-7.21-2.11-1.86-2.01-2.39-4.87-2.87-7.57-.67-4.11-1.25-8.53.51-12.31.63-1.35,3.12-6.41,4.68-6.84s4.52,2.03,6.72,1.74h.01Z"/><circle class="cls-17_surfing-91" cx="172.73" cy="275.39" r="5.38"/><circle class="cls-26_surfing-91" cx="159.78" cy="365.89" r="5.38"/><circle class="cls-22_surfing-91" cx="175.41" cy="258.12" r="3.87"/><circle class="cls-20_surfing-91" cx="292.81" cy="326.05" r="2.48"/><circle class="cls-19_surfing-91" cx="302.17" cy="338.54" r="3.18"/><circle class="cls-25_surfing-91" cx="303.73" cy="326.05" r="3.18"/><circle class="cls-21_surfing-91" cx="311.76" cy="298.85" r="3.87"/><circle class="cls-28_surfing-91" cx="134.77" cy="290.72" r="3.87"/><circle class="cls-24_surfing-91" cx="103.79" cy="263.77" r="3.87"/><circle class="cls-27_surfing-91" cx="123.56" cy="163.58" r="3.87"/><circle class="cls-23_surfing-91" cx="195.24" cy="251.25" r="3.87"/><path class="cls-30_surfing-91" d="M146.48,180.07c-2.87,8.17-5.02,16.57-6.42,25.12-2.2,15.09-.55,30.45,1.11,45.6,1.37,12.44,2.76,25.05,7.06,36.82.96,2.55,2.01,5.16,1.77,7.86-.24,2.7-2.33,5.46-5.04,5.35-2.87-.12-4.65-3.16-5.62-5.88-1.87-5.22-2.86-10.72-2.94-16.27,0-2.5.1-5.11-.96-7.37-1.05-2.26-3.21-3.83-4.53-5.97-1.74-2.81-1.91-6.29-1.98-9.57-.16-8.88.21-17.76,1.11-26.6.07-1.74.47-3.45,1.19-5.04.61-1.19,1.56-2.2,2.09-3.44,1.83-4.28-2.02-8.96-1.77-13.61.16-3.3,2.37-6.12,3.3-9.3,2-6.81-1.91-14.71,1.34-21,.96-1.76,2.34-3.23,3.14-5.06,2.13-4.87-.75-10.87,1.44-15.71,1.37-3.02,4.45-4.96,6.02-7.87.81-1.8,1.45-3.67,1.91-5.59,1.78-5.54,5.74-10.06,9.65-14.35,2.3-2.55,9.45-11.65,11.17-5.18,1.02,3.88-6.54,14.88-8.2,18.65-5.59,12.53-10.54,25.34-14.85,38.41h0Z"/><path class="cls-14_surfing-91" d="M109.09,181.71c-.99,1.57-2.3,2.92-3.83,3.97-1.64.96-3.62,1.2-5.21,2.2-6.1,3.83-3.18,15.68-9.88,18.32-1.66.64-3.64.54-4.99,1.67-2.94,2.43-.17,7.2-.85,10.95s-4.73,5.99-5.57,9.64c-.55,2.34.33,4.74.87,7.08,1.84,8.12-.6,16.67-4.4,24.08-.72,1.13-1.15,2.43-1.24,3.77.15,1.34.62,2.63,1.37,3.76,2.78,5.16,4.16,10.95,4.03,16.8-.19,7.5-2.58,16.11,2.37,21.76,1.12,1.28,2.56,2.29,3.55,3.68,2.3,3.2,1.72,7.51,1.91,11.43.19,3.92,1.91,8.61,5.85,9.08,2.53-2.1,2.4-5.93,2.05-9.2l-2.49-23.31c-.83-7.79-1.66-15.6-1.91-23.43-.42-15.31,1.5-30.56,3.43-45.75.62-4.9,1.25-9.85,2.87-14.52,1.85-5.39,4.92-10.26,7.97-15.06l15.98-25.19c1.38-2.17,2.55-4.99,1.36-7.3-5.21.84-10.23,11.45-13.21,15.54l-.03.03Z"/></g><g id="character_surfing-91"><path class="cls-31_surfing-91" d="M316.91,192.61l3.83-2.98s7.75-14.91,5.5-21.46"/><path class="cls-49_surfing-91 targetColor" d="M291.59,206.58s-.68,6.31-10.96,9.2c-5.97,1.72-12.14,2.68-18.35,2.87l-1.73-6.06,31.04-6.01Z" style="fill: rgb(104, 225, 253);"/><path class="cls-29_surfing-91" d="M291.59,206.58s-.68,6.31-10.96,9.2c-5.97,1.72-12.14,2.68-18.35,2.87l-1.73-6.06,31.04-6.01Z"/><path class="cls-48_surfing-91" d="M324.31,129.29c-2.87,5.08-11.42,4.05-26.69-.4-2.36-.69-4.36-1.24-6.04-1.7-2.35-.63-4.77.77-5.4,3.13-.12.44-.17.9-.14,1.36.11,2.46.22,4.95.48,7.43,1.15,10.67,4.21,21.04,9.03,30.62.57.94.9,2,.96,3.1-.08,2.24-2.37,3.68-4.47,4.54-9.4,3.83-19.92,3.97-29.96,2.58-3.32-.46-6.83-1.19-9.22-3.52-1.33-1.4-2.31-3.09-2.87-4.94-.32-.88-.59-1.77-.84-2.66,0-.13-.08-.26-.1-.39-2.78-9.92-4.7-20.06-5.74-30.31-.21-2.3-2.25-4-4.56-3.79-.08,0-.15.02-.23.03-.75.1-1.45.4-2.03.88-8.78,7.08-17.49,14.29-25.65,22.09-3.96,3.83-7.81,7.74-12.53,10.6-1.98,1.17-3.79,2.59-5.42,4.22-.63.58-1.2,1.22-1.69,1.91-.96,1.47-1.3,3.32-2.27,4.78-.29.45-.81.96-1.29.66-.27-.21-.44-.53-.46-.87-.19-.94-.11-1.91.22-2.8.12-.33.19-.51.19-.52s-.52.96-.44.13c0-.41-.12-.96-.55-1-.24.02-.46.12-.62.29-2.46,2.1-4.71,4.44-6.7,6.99-.51,1.01-1.69-.81,2.2-6.09,0,0-.17-.39-.43-.14-1.01.96-3.83,4.32-4.78,5.07-.71.55-1.14-.29-.82-.96s2.33-2.96,4.1-5.29c-.82-.11-5.05,5.74-6.05,5.25-.19-.09-.18-.4-.15-.61.12-.63.42-1.21.88-1.66l3.83-4.66c-.81.11-4.12,2.94-4.74,2.4-1.42-1.22,3.47-4.21,4.23-4.49s4.63-2.8,5.35-3.28c1.64-1.12,3.34-2.12,5.03-3.17,17.67-10.88,29.49-28.93,44.42-43.33,6.3-6.08,15.85-8.07,18.62-8.42,1-.12,2.01-.24,3.02-.33,1.79-1.83,2.98-4.17,3.42-6.7.55-2.37,1.27-12.18,4.64-12.18,2.77,0,5.14,8.77,5.66,11.07.25,1.3.34,2.62.27,3.93,0,1.42-.39,3.07,1.55,3.61.73.19,1.49.24,2.24.17h.25c3.01.28,6.02.69,8.99,1.24,0,0,9.45,3.21,14.59,4.72,6.52,1.91,19.65,5.86,19.23,3-.55-3.72-1.62-8.91-4.97-11.61-.76-.6-8.89-4.78-8.89-4.78,0,0,.33-1.91,2.01-1.08,1.3.65,2.81.79,4.21.39.56-.23-3.67-3.43-8.35-3.9-4.68-.48-2.37-2.22.38-3.23,3.02-1.12,7.73-1.14,10.99.96,1.5.96,2.59,5.31,4.05,6.63,1.71,1.59,12.89,19.92,10.03,25.01l.02.02Z"/><path class="cls-48_surfing-91" d="M264.42,170.96l-13.9,1.91-1.47-4.43c-2.78-9.92-4.7-20.06-5.74-30.31-.21-2.3-2.25-4-4.56-3.79-.08,0-.15.02-.23.03,0,0,8.17-5.22,11.88-1.42,3.71,3.8,14.02,38.01,14.02,38.01h0Z"/><path class="cls-48_surfing-91" d="M263.14,111.41c.77,1.91,2.5,3.67,4.56,3.61.89,0,1.91-.59,1.91-1.48-.06-.45-.2-.89-.4-1.29-.16-.58-.21-1.18-.14-1.78l.2-5.39c.1-.74-.02-1.5-.34-2.17-.31-.45-.75-.8-1.26-1-1.76-.83-5.18-.78-5.95,1.4-.69,1.8.73,6.36,1.43,8.11h-.01Z"/><path class="cls-48_surfing-91" d="M272.05,112.03h-.25.15s.06-.01.1,0Z"/><path class="cls-48_surfing-91" d="M284.56,92.96c-1.37,6.04-5.31,11.18-10.78,14.08-1.74,1.05-3.8,1.48-5.82,1.22-.96-.22-1.86-.62-2.67-1.18-4.7-3.11-6.54-9.18-6.7-14.8-.16-5.42,1.17-11.31,5.38-14.71,1.62-1.25,3.47-2.16,5.44-2.68,5.66-1.6,11.27-.37,15.11,4.23,2.94,3.55,1.01,9.43.04,13.85h0Z"/><path class="cls-47_surfing-91" d="M285.54,77.74c.18.81-.05,1.65-.61,2.26-.51.34-1.12.49-1.72.42-2.87-.09-5.61-1.29-8.41-1.99s-6.05-.78-8.27,1.06c-1.2,1.07-2.03,2.49-2.37,4.06-.34,1.55-.51,3.14-.52,4.73-1.06-.08-.96-2.09-2-2.28-.56-.11-1.03.44-1.3.96-1.09,2.08-1.09,4.56,0,6.64.35.47.56,1.03.63,1.61,0,.83-.78,1.44-1.46,1.91-.18.15-.4.25-.63.27-.41,0-.67-.43-.85-.8-.91-2.24-2.2-4.3-3.83-6.09-1.47-1.44-3.45-2.48-4.34-4.33-.26-.47-.34-1.01-.25-1.53.1-.55.58-.95,1.14-.96.3.08.59.17.87.28.3.07.7-.07.73-.37,0-.2-.1-.38-.25-.51-.84-.92-1.81-1.72-2.87-2.37-.43-.22-.8-.55-1.07-.96-.16-.3-.25-.62-.27-.96-.13-1.18.21-2.7,1.38-2.87.4-.02.8.03,1.19.15,1.45.2,2.93-.1,4.18-.86.2-.1.37-.26.46-.47.2-.55-.54-.96-.91-1.42-.68-.82-.1-2.17.85-2.66,1-.39,2.09-.48,3.14-.26,1.05.23,2.15.13,3.15-.27-.72-1.09-2.63-1.39-2.67-2.69.05-.71.59-1.29,1.29-1.41.69-.08,1.39.04,2.01.35,1.24.55,2.36,1.35,3.6,1.91,1.21.65,2.62.83,3.95.5.73-.24,1.36-.7,2.08-.96,1.18-.42,2.49-.27,3.54.4.78.61,1.5,1.31,2.12,2.08.65.8,1.6,1.29,2.62,1.36.35-.04.69-.06,1.04-.06,1.28.11,1.85,1.6,2.65,2.38,1.14.92,1.86,2.27,1.99,3.73v.02Z"/><path class="cls-48_surfing-91" d="M271.8,112.02c-.75.07-1.51.01-2.24-.17.75.05,1.49.11,2.24.17Z"/><path class="cls-49_surfing-91 targetColor" d="M294.46,166.48v-2.87s-15.76,6.88-27.31,7.09c-6.56.06-13.09.8-19.49,2.21l2.75,4.68s38.1-2.16,44.05-11.11Z" style="fill: rgb(104, 225, 253);"/><path class="cls-13_surfing-91" d="M294.46,166.48v-2.87s-15.76,6.88-27.31,7.09c-6.56.06-13.09.8-19.49,2.21l2.75,4.68s38.1-2.16,44.05-11.11Z"/><path class="cls-48_surfing-91" d="M267.43,175.76c-4.66.22-9.35-.09-13.98.42-.75,0-1.48.25-2.1.69-.62.69-.95,1.6-.91,2.54-.55,9.72,6.51,17.94,11.61,26.23,1.1,1.56,1.84,3.35,2.16,5.23.24,2.22-.57,4.41-1.43,6.48-2.19,5.3-4.63,10.5-7.36,15.54-2.07,3.81-3.62,9.72-7.5,11.91-2.05,1.16-4.45,2.28-5.19,4.51-.57,1.73.08,3.66,1.1,5.17s2.41,2.74,3.54,4.18c1.4,1.78,2.4,3.85,3.81,5.63,1.41,1.78,3.41,3.3,5.68,3.32,1.28.01,2.51-.45,3.7-.91,1.29-.49,2.86-1.61,2.29-2.87,1.11.36,2.27.72,3.41.48s2.19-1.31,1.97-2.45c-.21-1.07-1.38-1.67-2.46-1.85s-2.22-.11-3.22-.56c-.85-.39-1.48-1.11-2.09-1.81-1.66-1.91-3.4-4.04-3.48-6.58-.13-4.12,3.98-6.87,7.13-9.54,3.75-3.19,5.4-7.37,8.4-10.99,1.7-2.2,3.17-4.56,4.41-7.04,2.32-4.33,4.56-8.79,5.38-13.63.86-5.12,4.57-15.65,3.78-20.78,14.06-.9,36.08-4.31,45.66,7.28,1.94,2.35,3.12,5.22,3.96,8.12,1.25,4.31,4.39,6.78,7.03,10.22.98,1.28,1.8,2.7,2.39,4.2.52,1.33.87,2.72,1.49,4.01s1.54,2.5,2.85,3.06c1.41.61,3.05.38,4.52-.07,2.29-.7,4.5-1.58,6.79-2.25,3.03-.89,6.13-1.53,9.26-1.91,1.52-.18,3.08-.32,4.45-1s2.51-2.08,2.38-3.61c-.02-.24-.07-.48-.21-.69-.58-.88-1.95-.31-2.79.33.78-.98.91-2.54.03-3.44s-2.72-.61-3.04.6c.4-1.48-.1-3.36-1.54-3.87-1.57-.56-3.12.73-4.47,1.71-2.41,1.76-5.36,2.76-8.34,2.84-.52,0-1.08-.02-1.49-.34-.41-.34-.55-.9-.66-1.42-.7-3.26-1.39-6.52-2.09-9.78-.61-2.87-1.36-4.69-2.9-7.14-1.83-2.91-3.67-5.82-5.5-8.74-.7-1.26-1.59-2.4-2.65-3.38-2.53-2.11-3.88-6.25-16.67-8.81-7.17-1.43-29.77-7.43-32.89-5.94-7.92,3.79-15.28,6.31-24.23,6.71h0Z"/><path class="cls-48_surfing-91" d="M344.76,202.3c-4.48-3.73-10.52-6.2-15.24-8.9,1.21.69,2.4,5.47,2.95,6.72,1.04,2.38,1.88,4.79,3.41,6.95,3.28,4.64,8.09,8.26,10.29,13.62.63,1.55,1.01,3.19,1.67,4.73.18.43.4.86.79,1.11s.88.27,1.35.27c4.5-.04,8.98-1.52,12.62-4.16-2.56.34-5.36.64-7.55-.73-1.94-1.22-2.94-3.5-3.47-5.73s-.68-4.55-1.47-6.7c-1.07-2.89-2.99-5.21-5.36-7.18h0Z"/><path class="cls-49_surfing-91 targetColor" d="M259.59,210.98c.09.63.44,1.2.96,1.58.48.17,1,.17,1.48,0l29.56-5.98c.11-4.74-.77-9.46-2.59-13.84,9.28-1.07,18.64-1.12,27.93-.13,3.5-7.99,6.62-16.14,9.35-24.44-7.74-1.42-15.55-2.38-23.4-2.87-1.75-.18-3.52-.13-5.25.14-2.57.5-4.86,1.91-7.21,3.08-6.37,3.06-13.24,4.94-20.28,5.55-5.41.57-13.82-1.13-18.28,2.65-9.47,8.03,5.39,25.95,7.73,34.25h0Z" style="fill: rgb(104, 225, 253);"/><polygon class="cls-4_surfing-91" points="262.25 218.63 269.97 216.12 281.41 211.99 282.6 208.33 264.23 212.16 262.25 218.63"/><path class="cls-6_surfing-91" d="M288.98,192.74s.38-4.2,5.63-7.97c5.24-3.77,26.36-1.91,26.36-1.91l-4.06,9.76-27.93.12h0Z"/><path class="cls-7_surfing-91" d="M258.57,185.54c.16-.06.34-.06.5,0,.16.09.27.23.33.4.58,1.43,0,3.07-1.35,3.83.65.26,1.22.69,1.66,1.24.62.55.89,1.4.7,2.21-.49.82-1.56,1.08-2.38.59-.02,0-.05-.03-.07-.05-.76-.58-1.33-1.38-1.63-2.29-.63.42-.56,1.53-1.27,1.83-.33.1-.69.03-.96-.2-.26-.25-.45-.55-.56-.89-.19-.52-.31-1.07-.33-1.63,0-.33.05-.75.35-.88s.89.11,1.09-.21c-.4-.22-.73-.55-.96-.96-.3-.53-.17-1.21.32-1.59.71-.45,1.02.24,1.66.34,1.22.13,1.73-1.37,2.92-1.76l-.02.02Z"/><path class="cls-5_surfing-91" d="M268.67,198.2c.31-.07.62.13.68.44.01.05.01.09.01.14.19,1.53-.78,2.95-2.27,3.35.57.42,1.01.97,1.29,1.62.46.69.51,1.58.12,2.32-.68.67-1.78.66-2.45-.02l-.06-.06c-.58-.75-.92-1.66-.96-2.61-.72.25-.96,1.33-1.69,1.44-.36.02-.71-.15-.91-.45-.18-.29-.29-.62-.32-.96-.07-.56-.04-1.12.08-1.66.07-.33.24-.71.56-.76s.83.33,1.11.07c-.35-.33-.59-.74-.71-1.21-.15-.59.15-1.21.71-1.45.79-.26.96.49,1.51.75,1.16.49,2.03-.84,3.27-.93l.03-.02Z"/><path class="cls-3_surfing-91" d="M282.65,194.92c.17-.03.34,0,.49.11.13.12.21.29.22.47.19,1.53-.78,2.95-2.27,3.35.57.42,1.01.97,1.29,1.62.46.69.51,1.58.11,2.32-.68.67-1.77.66-2.44-.02-.02-.02-.04-.04-.06-.07-.6-.75-.95-1.67-1-2.62-.72.25-.96,1.34-1.68,1.44-.36.04-.71-.13-.91-.44-.18-.29-.29-.62-.33-.96-.06-.56-.03-1.12.09-1.66.07-.33.23-.71.56-.77s.83.34,1.11.08c-.35-.32-.6-.74-.71-1.21-.16-.59.14-1.21.7-1.45.8-.26.96.49,1.52.75,1.19.48,2.06-.84,3.3-.93h.01Z"/><path class="cls-10_surfing-91" d="M304.24,168.17c.31-.07.62.13.68.44.01.05.01.09.01.14.19,1.53-.78,2.95-2.27,3.35.57.41,1.01.97,1.29,1.62.46.69.51,1.58.12,2.32-.68.67-1.78.66-2.45-.02-.02-.02-.04-.04-.06-.06-.59-.75-.94-1.66-1-2.61-.71.24-.96,1.33-1.68,1.44-.36.04-.71-.13-.91-.44-.18-.29-.29-.62-.32-.96-.07-.56-.04-1.12.08-1.66.07-.33.23-.71.56-.77s.83.34,1.11.08c-.35-.33-.59-.74-.71-1.21-.16-.59.14-1.21.7-1.45.8-.26.96.49,1.52.75,1.19.49,2.06-.84,3.31-.93l.02-.03Z"/><path class="cls-12_surfing-91" d="M266.53,180.36c.06-.13.17-.23.3-.3.15-.04.31-.02.44.05,1.18.56,1.77,1.9,1.37,3.15.56-.21,1.16-.28,1.75-.19.71-.02,1.37.34,1.72.96.17.79-.34,1.57-1.13,1.74-.03,0-.05,0-.08,0-.81.09-1.62-.08-2.33-.47-.14.63.54,1.28.27,1.87-.14.28-.42.45-.73.45s-.6-.07-.86-.22c-.43-.21-.82-.48-1.16-.81-.2-.2-.4-.49-.29-.76s.62-.44.55-.76c-.39.12-.8.12-1.19,0-.5-.15-.81-.64-.73-1.16.17-.7.78-.45,1.22-.76.92-.61.35-1.85.86-2.8h.02Z"/><path class="cls-8_surfing-91" d="M280.41,175.11c.06-.13.17-.23.3-.3.15-.04.31-.02.44.05,1.18.56,1.77,1.9,1.37,3.15.56-.21,1.16-.28,1.75-.19.71-.02,1.37.34,1.72.96.17.79-.34,1.57-1.13,1.74-.03,0-.05,0-.08,0-.81.09-1.62-.08-2.33-.47-.14.63.54,1.28.27,1.91-.14.28-.42.45-.73.45s-.6-.07-.86-.22c-.43-.21-.82-.48-1.16-.81-.2-.2-.4-.49-.29-.76s.62-.44.55-.76c-.39.1-.8.09-1.19-.05-.5-.15-.81-.64-.73-1.16.17-.7.78-.45,1.22-.76.92-.64.35-1.88.86-2.8h.02Z"/><path class="cls-11_surfing-91" d="M314,171.83c.07-.25.33-.39.58-.32.05.02.1.04.15.07,1.18.56,1.77,1.9,1.38,3.15.55-.21,1.15-.28,1.74-.19.69.08,1.48.32,1.72.96.17.79-.33,1.57-1.12,1.74-.03,0-.06,0-.09.02-.8.09-1.62-.08-2.33-.47-.15.62.53,1.28.27,1.87-.14.27-.43.45-.74.45s-.6-.07-.86-.22c-.42-.21-.81-.49-1.16-.81-.2-.2-.4-.49-.29-.76s.62-.44.55-.76c-.39.11-.79.1-1.18-.02-.49-.16-.8-.65-.73-1.17.18-.69.78-.44,1.22-.75.91-.64.35-1.87.86-2.79h.03Z"/><path class="cls-2_surfing-91" d="M277.42,187.14c0-.07.08-.13.14-.15.07-.03.15-.03.22,0,.59.28.89.95.69,1.58.28-.11.58-.14.88-.1.36,0,.69.18.86.49.14.37-.21.79-.6.88-.4.04-.81-.04-1.17-.24-.08.32.27.64.13.96-.07.13-.21.22-.36.22s-.31-.03-.44-.11c-.21-.1-.41-.24-.57-.41-.12-.08-.18-.23-.14-.37.06-.15.31-.22.27-.38-.19.05-.4.05-.59,0-.25-.08-.4-.33-.36-.58.1-.35.39-.23.62-.38.46-.32.17-.94.43-1.4h0Z"/><path class="cls-9_surfing-91" d="M290.96,173.04c.03-.07.08-.12.14-.15.07-.03.15-.03.22,0,.59.28.89.95.69,1.58.28-.11.58-.14.88-.1.36,0,.69.18.86.49.14.37-.2.79-.6.88-.4.04-.81-.04-1.17-.24-.08.32.27.64.13.96-.07.14-.21.23-.36.23s-.3-.04-.44-.11c-.21-.11-.41-.24-.57-.41-.12-.08-.18-.23-.14-.37.06-.15.31-.22.28-.38-.2.05-.41.05-.6,0-.24-.09-.39-.33-.36-.58.1-.35.39-.23.62-.38.46-.32.17-.93.43-1.4v-.02Z"/><path class="cls-37_surfing-91" d="M304.09,183.02c.03-.06.08-.12.14-.15.07-.02.15-.02.22,0,.59.28.89.95.69,1.58.28-.1.58-.14.88-.1.36,0,.69.18.86.49.14.38-.21.79-.6.88-.4.05-.81-.04-1.17-.24-.08.32.27.65.13.96-.07.14-.21.22-.36.23-.15,0-.3-.04-.44-.11-.21-.1-.41-.24-.57-.4-.11-.11-.2-.25-.14-.38s.31-.22.28-.38c-.2.06-.41.06-.6,0-.24-.08-.4-.33-.36-.58.1-.34.39-.22.62-.37.46-.33.17-.94.43-1.41v-.02Z"/></g><g id="surfboard_surfing-91"><path class="cls-49_surfing-91 targetColor" d="M457.91,185.81s.25-1.17-7.38-2.96c-7.63-1.79-58.32-3.91-203.18,54.54,0,0-48.62,16.63-54.02,23.09-3.31,4.1-5.5,9-6.35,14.2l270.93-88.87h0Z" style="fill: rgb(104, 225, 253);"/><path class="cls-38_surfing-91" d="M457.91,185.81s.25-1.17-7.38-2.96c-7.63-1.79-58.32-3.91-203.18,54.54,0,0-48.62,16.63-54.02,23.09-3.31,4.1-5.5,9-6.35,14.2l270.93-88.87h0Z"/><path class="cls-51_surfing-91" d="M267.53,246.95l-1.77-2.57"/><path class="cls-49_surfing-91 targetColor" d="M203.63,258.2c28.37-12,57.41-22.44,86.36-32.87,32.09-11.56,64.22-23.13,97.2-31.87,23.07-6.12,47.07-10.88,70.72-7.65.25,5.96-5.32,10.33-10.35,13.54-48.89,31.06-103.02,52.78-156.8,74.31-27.94,11.19-56.05,22.43-85.5,28.63-3.02.63-6.21,1.21-9.15.26-8.88-2.87-10.33-17.6-9.49-25.38,1.09-10.04,7.83-15.08,17.01-18.96h0Z" style="fill: rgb(104, 225, 253);"/><path class="cls-35_surfing-91" d="M457.91,185.81c.25,5.96-5.32,10.33-10.35,13.53-2.62,1.66-5.24,3.3-7.9,4.91-46.78,28.49-98,49.02-148.9,69.41-18.8,7.53-37.68,15.09-56.99,21.11-9.4,2.93-18.88,5.5-28.5,7.52-3.02.63-6.22,1.21-9.15.25-8.88-2.87-10.33-17.59-9.48-25.36,1.08-10.04,7.82-15.08,17-18.97,28.38-12,57.41-22.44,86.36-32.87,32.1-11.56,64.23-23.12,97.21-31.87,23.05-6.12,47.06-10.87,70.72-7.65h-.02Z"/><path class="cls-36_surfing-91" d="M292.8,229.58c-3.83.74-7.78.33-11.48,1.37-5.2,1.47-9.2,5.58-14.08,7.91-7.12,3.44-15.76,2.95-22.57,6.96-2.63,1.54-4.87,3.69-7.58,5.11-2.63,1.19-5.38,2.09-8.21,2.69-10.01,2.72-19.32,7.45-28.55,12.15-2.37,1.22-4.46,3.06-4.96,5.68-5.07,26.6,173.12-50.48,172.23-52.39-.35-.6-.85-1.1-1.46-1.43-12.59-8.09-25.6.88-38.57,1.78-5.91.4-11.4-.23-17.05,2.05-6.07,2.43-11.21,6.84-17.72,8.11h0Z"/><path class="cls-49_surfing-91 targetColor" d="M212.4,282.32l-21.38,46.53,4.43,2.19s33.23-19.49,54.96-50.85l4.35-11.37-4.43-2.19-37.94,15.68h0Z" style="fill: rgb(104, 225, 253);"/><path class="cls-34_surfing-91" d="M212.4,282.32l-21.38,46.53,4.43,2.19s33.23-19.49,54.96-50.85l4.35-11.37-4.43-2.19-37.94,15.68h0Z"/><path class="cls-49_surfing-91 targetColor" d="M207.97,280.13l-16.95,48.72s33.23-19.49,54.96-50.85l4.35-11.37-42.37,13.49h0Z" style="fill: rgb(104, 225, 253);"/><path class="cls-32_surfing-91" d="M457.9,185.82c-.37.38-7.9,7.97-18.25,18.43-46.78,28.49-98,49.02-148.9,69.41-18.8,7.53-37.68,15.09-56.99,21.11l21.05-25.93,203.09-83.02h0Z"/><path class="cls-33_surfing-91" d="M453.5,184.77s-62.57,2.87-96.91,17.61c0,0,80.37-11.48,84.83-11.59l-27.87,13.15s34.49-8.17,39.42-13.15.53-6.02.53-6.02h0Z"/></g></svg>