<svg id="_0547_surfing_1" xmlns="http://www.w3.org/2000/svg" xmlns:xlink="http://www.w3.org/1999/xlink" viewBox="0 0 500 500" data-imageid="surfing-1-5" imageName="Surfing 1" class="illustrations_image" style="width: 215px;"><defs><style>.cls-1_surfing-1-5{fill:url(#linear-gradient);}.cls-1_surfing-1-5,.cls-2_surfing-1-5,.cls-3_surfing-1-5,.cls-4_surfing-1-5,.cls-5_surfing-1-5,.cls-6_surfing-1-5,.cls-7_surfing-1-5,.cls-8_surfing-1-5,.cls-9_surfing-1-5{stroke-width:0px;}.cls-2_surfing-1-5{opacity:.18;}.cls-2_surfing-1-5,.cls-3_surfing-1-5,.cls-4_surfing-1-5{isolation:isolate;}.cls-2_surfing-1-5,.cls-4_surfing-1-5,.cls-9_surfing-1-5{fill:#68e1fd;}.cls-3_surfing-1-5{fill:#fff;opacity:.64;}.cls-4_surfing-1-5{opacity:.37;}.cls-5_surfing-1-5{fill:#231f20;}.cls-6_surfing-1-5{fill:#c14834;}.cls-7_surfing-1-5{fill:#e59f89;}.cls-8_surfing-1-5{fill:#ffb4a3;}</style><linearGradient id="linear-gradient-surfing-1-5" x1="226.73" y1="1811.11" x2="248.43" y2="1761.17" gradientTransform="translate(-233.34 1895.55) rotate(8.62) scale(1 -1)" gradientUnits="userSpaceOnUse"><stop offset="0" stop-color="#231f20"/><stop offset=".13" stop-color="#231f20" stop-opacity=".69"/><stop offset=".25" stop-color="#231f20" stop-opacity=".32"/><stop offset="1" stop-color="#231f20" stop-opacity="0"/></linearGradient></defs><g id="background_surfing-1-5"><path class="cls-2_surfing-1-5 targetColor" d="M480.32,317.52c-4.64,47.31-41.79,91.78-89,97.49-35.93,4.34-71.71-12.62-107.78-9.48-44.32,3.81-79.68,34.28-121.21,47.52-30.58,9.8-66.4,10.69-92.49-7.95-10.37-7.43-18.54-17.48-25.86-27.95-7.81-10.85-14.26-22.62-19.22-35.03-5.21-13.84-7.84-28.52-7.76-43.31v-2c.58-34.76,14.8-69.63,38.24-95.69,6.62-7.35,13.92-14.12,19.64-22.17,17.92-25.17,17.91-59.02,31.17-86.98,14.07-29.59,39.52-44.05,68.04-54.93,4.08-1.56,8.23-3.05,12.4-4.49,32.99-11.4,74.43-12.73,107.02.73,39.43,16.28,59.21,53.31,87.57,82.12,13.39,13.59,29.7,23.84,44.12,36.39,24.61,21.3,43.56,50.2,51.51,81.49,3.77,14.43,4.99,29.4,3.6,44.25Z" style="fill: rgb(104, 225, 253);"/><path class="cls-4_surfing-1-5 targetColor" d="M179.29,379.14c-2.24-.05-4.44-.61-6.44-1.63l6.44,1.63Z" style="fill: rgb(104, 225, 253);"/></g><g id="sea_surfing-1-5"><path class="cls-4_surfing-1-5 targetColor" d="M480.32,317.52c-.49,5.05-1.35,10.05-2.57,14.97-2.38,9.7-6.02,19.06-10.82,27.82-15.68,28.72-43.29,50.8-75.61,54.7-35.93,4.34-71.71-12.62-107.78-9.48-44.32,3.81-79.68,34.28-121.21,47.52-30.58,9.8-66.4,10.69-92.49-7.95-10.37-7.43-18.54-17.48-25.86-27.95-4.35-6.18-8.33-12.61-11.92-19.26-2.75-5.09-5.17-10.35-7.26-15.75-1.46-3.82-2.7-7.71-3.74-11.67-2.7-10.33-4.03-20.97-3.97-31.64l-2.16.93.87-1.19c.44-.58.86-1.18,1.32-1.75,7.48-9.99,15.89-19.42,25.92-26.76,10.95-8.01,24.29-13.48,37.99-13.31,14.24.15,28.2,6.24,42.39,4.57,16.91-2,30.46-14.57,42.07-27.05,11.6-12.48,23.36-26.11,39.54-31.46,18.68-6.19,38.9,0,57.82,5.39,18.91,5.39,40.08,9.87,57.52.78,9.74-5.07,25.91,1.06,34.33,8.11,8.42,7.05,16.13,16.12,26.9,18.29,8.56,1.72,17.22-1.32,25.71-3.55,20.9-5.39,42.82-5.42,63.74-.08,1.91.49,3.81,1.02,5.72,1.56,3.74,14.42,4.94,29.37,3.54,44.2Z" style="fill: rgb(104, 225, 253);"/><path class="cls-4_surfing-1-5 targetColor" d="M477.75,332.51c-2.38,9.7-6.02,19.06-10.82,27.82-9.86,11.33-22.53,19.87-36.73,24.76l4.49-16.81c-12.74,13.25-27.61,24.27-43.99,32.61,9.55-10.37,19.1-20.73,28.66-31.09l-20.62,4.13c2.86-5.44.38-12.49-4.17-16.61-4.56-4.12-10.72-5.95-16.7-7.35-11.74-2.76-23.71-4.41-35.76-4.93-4.86-.2-10.36-.52-13.48-4.25-1.32-1.66-2.07-3.77-3.34-5.51-4.5-6.12-13.71-5.19-21.19-4.15-12.01,1.67-24.17,2-36.25.98-9.35-.79-18.8-2.4-28.04-.81-27.71,4.77-47.83,36.81-75.75,33.43.57,5.51,3.92,10.35,8.89,12.82-16.4-3.97-34.08-6.36-47.96,2.65-4.33,2.79-8.53,6.74-13.68,6.62-7.76-.24-13.58-9.84-21.19-8.3-6,1.21-10.04,9.11-16.04,7.95-4.52-.91-6.86-6.74-11.42-7.36-10.6-1.46-20.36,15.75-30.46,18.95-2.75-5.09-5.17-10.35-7.26-15.75-1.5-3.87-2.78-7.83-3.84-11.84,1.12-3.79,2.84-7.37,5.11-10.6,13.43-17.02,38.6-17.38,58.28-26.33,7.17-3.26,13.71-7.74,20.78-11.21,10.37-5.1,21.7-7.95,32.91-10.76l34.97-8.74,59.39-14.85c15.34-3.84,30.89-7.71,46.72-7.54,12.11.13,24.05,2.65,35.91,5.13l45.03,9.44c7.95,1.66,15.97,3.38,22.9,7.54,6.4,3.83,11.43,9.51,17.22,14.27,16.99,13.84,39.33,19.25,60.77,14.73,3.75-.81,7.56-1.95,11.36-1.42,1.96.27,3.8,1.09,5.31,2.37Z" style="fill: rgb(104, 225, 253);"/><path class="cls-4_surfing-1-5 targetColor" d="M287.71,302.76c-.6,1.64-1.15,3.6-.12,5.01,1.03,1.4,3.18,1.44,4.94,1.21,15.79-2.11,29.27-12.48,44.68-16.45,11.05-2.82,22.69-2.27,33.43,1.58-3.4,7.14-11.13,11.03-18.44,14.08-19.63,8.19-42.29,15.75-51.58,34.89,32.5-10.9,67.9-9.3,99.27,4.5,1.17.42,2.22,1.12,3.06,2.03,2.95,3.76-2.42,8.54-7.03,9.79-8.72,2.37-17.87,2.42-26.89,2.12-28.07-.91-56.2-5.05-84.14-2.09-27.93,2.95-56.7,14.34-72.37,37.64-3.76-1.54-5.92-5.71-6.23-9.78-.3-4.07.89-8.05,2.07-11.92.58-1.36.66-2.89.21-4.3-.98-2.08-3.79-2.33-6.09-2.29l-43.51.76c-1.32-5.78,4.36-10.6,9.48-13.52,22.84-13.25,48.81-21.82,68.2-39.74,11.43-10.6,20.4-24.32,33.87-32.49,4.76-2.89,14.34-8.19,19.87-4.3,7.09,5.01-.44,17.29-2.69,23.3Z" style="fill: rgb(104, 225, 253);"/><path class="cls-3_surfing-1-5" d="M193.76,298.07c-2.25-3.14-6.12-4.69-9.92-3.97-3.75.77-7.01,3.06-9.01,6.33-.67,1.32-1.54,2.53-2.57,3.59-2.77,2.41-6.97,1.32-10.6,1.13s-8.45,1.8-7.84,5.43c-3.54-1.21-7.25-2.41-10.91-1.8-3.3.56-6.2,2.53-9.47,3.19-5.01,1.01-10.03-1.14-14.99-2.33s-11.13-.97-14.03,3.23c-.66.95-1.23,2.16-2.36,2.44-.76.11-1.53-.03-2.21-.38-5.38-2.23-10.81-5.06-16.62-4.81-8.18.61-14.71,7.05-15.44,15.22-5.22-1.28-10.56,1.64-12.29,6.73-6.17-3.02-17.03-.95-22.52,3.14-5.58,4.27-8.39,11.23-7.34,18.17-3.54.9-7.66,2.37-8.53,5.92-1.15,4.65,4.99,8.37,9.56,6.94s7.51-5.78,10.09-9.81c2.58-4.04,5.55-8.36,10.16-9.7,4.05-1.19,8.81.16,12.36-2.12,1.91-1.23,3.09-3.28,4.58-4.99,6.38-7.26,18.25-7.19,26.7-2.48,8.45,4.72,14.27,12.9,19.87,20.84-1.48-11.89-10.29-21.56-21.99-24.13,12.25-13.36,33.01-14.26,46.37-2.01,3.13,2.87,5.67,6.31,7.48,10.14,2.55-9.71-2.26-19.85-11.39-24.03,12.41-3.99,25.92,1.26,32.39,12.58-.82-5.1-2.66-9.98-5.4-14.36l25.7-9.54c.53,4.74,7.76,3.79,11.92,1.32,13.55-8.09,28.41-17.93,43.71-14.36,13.96,3.26,22.93,16.46,30.46,28.62-3.35-12.68-11.7-23.45-23.14-29.87,8.85-1.51,16.5-7.09,25.17-9.4,8.66-2.32,20.27.56,22.19,9.27l6.62-3.06-1.46,20.08c2.44-1.32,4.16-3.75,6.62-5.03,4.65-2.42,10.6,0,13.99,3.97s4.69,9.27,5.92,14.44c4.69-10.04-4.99-20.57-13.7-27.43,5.23.25,9.91,3.36,12.16,8.09,2.44-8.33,14.29-8.52,22.52-5.64,8.23,2.87,18.05,7.06,24.91,1.76-1.75,7.22-3.47,15.05-.57,21.88,2.9,6.83,12.57,11.11,18.01,6.07,0,4.69,6.29,6.48,10.94,5.87,4.65-.61,10.03-2.04,13.59,1.02,1.55,1.32,2.42,3.31,3.97,4.69,3.19,2.71,7.98,2.32,10.7-.87,0,0,0,0,0,0h0c4.92,4.94,8.62,10.96,10.82,17.58,1.6-7.37,1.76-14.99.46-22.42l8.83,10.78c-1.32-4.28,3.39-8.25,7.83-8.72,4.44-.46,8.82,1.19,13.25,1.32,10.6.38,20.48-8.95,20.74-19.51-13.1,5.94-27.7,7.72-41.84,5.11-2.49-.57-5.01-.96-7.55-1.18-2.46,0-4.91.17-7.34.53-8.91.93-17.92.38-26.65-1.62,2.42-9.51,6.7-18.45,12.6-26.29-9.01,4.01-15.96,11.57-19.21,20.87.08-4.41-5.3-7.95-9.27-6.04l-2.28-6.62c-4.2-.53-8.46-.25-12.56.83-.53-6.62-7.95-9.87-14.28-11.81l-21.19-6.52c-4.93-1.52-10.89-2.85-14.74.57,2.56-8.12,6.73-15.63,12.27-22.09-9.15,4.42-16.54,11.8-20.98,20.94-4.2-6.21-12.54-8.03-18.94-4.13.97-5.15-3.97-9.88-9.18-10.68s-10.33,1.19-15.19,3.15l1.06-11.66c-5.88,2.98-10.53,7.93-13.13,13.99-12.17-3.26-25.11-2.04-36.46,3.43,2.07-9.89,6.07-19.28,11.78-27.62-11.3,7.98-19.04,20.05-21.55,33.66-6.2-1.11-12.41,1.9-15.39,7.44-2.95-.97-5.48-2.92-7.17-5.54.29,4.44.69,7.76.89,12.25Z"/></g><g id="character_surfing-1-5"><path class="cls-6_surfing-1-5" d="M291.61,161.65c-.79.37-1.64.61-2.5.72-1.25-.05-2.49.28-3.55.94-.4.43-.71.93-.91,1.48-.07.15-.12.29-.19.42-1.26,3.3-3.92,5.88-7.26,7.03-3.51.98-7.19-.3-10.73-1.15-.4-.11-.82-.11-1.22,0-.52.23-.97.57-1.32,1.01-1.37,1.32-3.36,1.79-5.18,1.21-1.6-.76-3.07-1.79-4.32-3.05-1.42-1.07-3.32-1.91-4.93-1.18-.49.33-1.02.58-1.58.75h-.15c-.34.29-.73.54-1.14.73-1.77.63-3.76.11-4.98-1.32-1.16-1.45-1.82-3.25-1.85-5.11-.12-1.84.11-3.68.09-5.54.06-.76-.03-1.52-.26-2.24-.43-.91-1.01-1.74-1.72-2.45-2.24-2.65-3.34-5.95-.68-8.7,1.66-1.71,4.16-1.23,6.29-1.22,2.27-.04,4.52.37,6.62,1.21,2.85,1.23,5.3,3.31,8.09,4.54,3.08,1.19,6.38,1.68,9.67,1.42,4-.03,7.89-1.27,11.17-3.56.9-.84,1.89-1.58,2.94-2.23,1-.46,2.08-.73,3.18-.78,1.43-.12,2.87,0,4.27.36.73.17,1.43.43,2.11.75.64.3,1.15.32,1.71.54,2.52,1.2,4.12,3.75,4.11,6.54,0,3.84-2.27,7.32-5.78,8.87Z"/><path class="cls-1_surfing-1-5" d="M291.61,161.65c-.79.37-1.64.61-2.5.72-1.25-.05-2.49.28-3.55.94-.4.43-.71.93-.91,1.48-.07.15-.12.29-.19.42-1.26,3.3-3.92,5.88-7.26,7.03-3.51.98-7.19-.3-10.73-1.15-.4-.11-.82-.11-1.22,0-.52.23-.97.57-1.32,1.01-1.37,1.32-3.36,1.79-5.18,1.21-1.6-.76-3.07-1.79-4.32-3.05-1.42-1.07-3.32-1.91-4.93-1.18-.49.33-1.02.58-1.58.75h-.15c-.34.29-.73.54-1.14.73-1.77.63-3.76.11-4.98-1.32-1.16-1.45-1.82-3.25-1.85-5.11-.12-1.84.11-3.68.09-5.54.06-.76-.03-1.52-.26-2.24-.43-.91-1.01-1.74-1.72-2.45-2.24-2.65-3.34-5.95-.68-8.7,1.66-1.71,4.16-1.23,6.29-1.22,2.27-.04,4.52.37,6.62,1.21,2.85,1.23,5.3,3.31,8.09,4.54,3.08,1.19,6.38,1.68,9.67,1.42,4-.03,7.89-1.27,11.17-3.56.9-.84,1.89-1.58,2.94-2.23,1-.46,2.08-.73,3.18-.78,1.43-.12,2.87,0,4.27.36.73.17,1.43.43,2.11.75.64.3,1.15.32,1.71.54,2.52,1.2,4.12,3.75,4.11,6.54,0,3.84-2.27,7.32-5.78,8.87Z"/><path class="cls-5_surfing-1-5" d="M275.08,272.74c-.81-.12-1.64-.04-2.41.24-10.41,3.74-86.61,32.17-115.16,74.02-29.26,42.89,96.69-16.19,134.9-64.13,1.67-2.18,1.26-5.31-.93-6.98-.66-.5-1.43-.84-2.25-.97l-14.16-2.17Z"/><path class="cls-9_surfing-1-5 targetColor" d="M275.88,267.61c-.81-.12-1.64-.04-2.41.24-10.41,3.74-86.63,32.17-115.17,74.02-29.26,42.89,96.69-16.19,134.9-64.13,1.67-2.18,1.26-5.31-.93-6.98-.66-.5-1.43-.84-2.25-.97l-14.15-2.17Z" style="fill: rgb(104, 225, 253);"/><path class="cls-7_surfing-1-5" d="M225.55,260.62c5.54,6.03,11.39,11.78,17.51,17.22,2.65,2.28,5.44,4.45,7.95,6.95,1.5,1.48,0,3.63-1.48,4.57-1.35.72-2.73,1.36-4.15,1.93-.68.34-1.43,1.07-1.07,1.76-.88,0-1.58.73-1.57,1.61,0,.7.47,1.31,1.14,1.51.54.13,1.12.03,1.59-.26v.48c.77.15,1.56-.07,2.15-.58,2.9-1.87,6.08-3.09,9.01-4.93.77-.48,8.29-5.87,7.81-6.5-2.16-2.76-5.79-3.83-8.6-5.92-7.83-5.83-8.56-18.81-17.5-22.78-1.85-.57-3.65-1.3-5.38-2.19-3.44-2.28-4.08-6.95-4.81-11.01-.09-.99-.45-1.93-1.02-2.74-1.32-1.54-3.75-1.32-5.52-.46-9.79,5.22-.9,16.28,3.95,21.35Z"/><path class="cls-8_surfing-1-5" d="M294.61,198.52c-1.43,2.52-2.89,4.99-4.37,7.48-.57,1.03-1.22,2.01-1.95,2.93-.76.66-1.4,1.43-1.92,2.29-.36,1.2-.55,2.44-.57,3.7-.64,3.97-4.72,6.33-6.45,9.93-.29.85-.74,1.63-1.32,2.32-.59.69-1.63.77-2.32.17,0,0,0,0,0,0h0c-.16-.24-.27-.52-.3-.81-1.14-3.97-.76-8.22,1.07-11.92l-1.79.5h-.54c-.36-.16-.53-.59-.37-.95h0v-.09c.06-.1.15-.2.24-.28.22-.2.48-.36.76-.46,1.39-.55,2.73-1.24,3.97-2.07,2.65-1.93,2.78-5.19,3.54-8.17.21-.85,2.37-10.04,2.52-10.01-8.13-2.84-16.36-5.41-24.69-7.71-2.24,6.44,1.7,13.25,5.67,18.81,1.11,1.52,2.25,3.13,3.31,4.78,2.65,4.28,4.78,8.87,3.91,13.74-.1.58-.24,1.16-.42,1.72-1.32,4.17-4.82,7.52-8.5,10.07-8.08,5.58-17.6,8.38-26.69,11.92-6.01,2.3-22.84,7.23-18.19,16.5,1.17,1.87,2.45,3.67,3.84,5.38,6.4,9.51,1.4,23.34,7.34,33.11,1.01,1.66,2.36,3.36,2.09,5.3-.35,1.44-1.18,2.72-2.34,3.63-3.03,2.91-6.21,5.67-9.54,8.24-1.1,1.02-2.49,1.68-3.97,1.89-1.74-.09-3.36-.9-4.48-2.24-1.01-1.02-1.93-2.46-1.48-3.83.53-1.59,2.53-2.01,4.09-2.65,2.53-1.11,4.79-2.76,6.62-4.82,2.07-2.9-.82-6.93-2.04-9.62l-10.29-22.69c-2.52-5.54-5.07-11.32-4.89-17.42.3-9.36,7.1-17.3,14.57-22.86,6.03-4.44,12.74-7.95,18.69-12.4,1.53-1.12,2.99-2.33,4.38-3.62.96-.79,1.59-1.91,1.77-3.14-.04-.6-.18-1.19-.41-1.75-.79-2.17-1.63-4.33-2.5-6.46-.32-1.09-.98-2.06-1.89-2.74-1.14-.42-2.33-.69-3.54-.78-1.51-.48-2.76-1.55-3.47-2.97-.69-1.41-1.09-2.95-1.18-4.52-.26-2.65.3-5.3.29-7.95-.01-2.65-.61-5.02-.58-7.55.03-2.53.82-5.42,2.97-6.89,3.02-2.08,9.21-1.5,12.78-1.77,5.66-.28,11.32.45,16.73,2.15,10.7,3.05,20.49,8.62,30.05,14.19,1.24.59,2.3,1.51,3.07,2.65,1.48,2.28.12,5.3-1.27,7.74Z"/><path class="cls-8_surfing-1-5" d="M236.49,174.16c-.17,1.97-.62,3.9-1.32,5.75-.69,1.93-.98,3.98-.87,6.03.12,2.08,1.22,3.98,2.95,5.13,2.25,1.15,4.95.9,6.95-.64,1.95-1.53,3.43-3.58,4.27-5.91.83-1.72,1.15-3.64.91-5.54-.45-2.24-2.13-3.97-3.21-6.01-1.85-3.5-1.81-7.66-1.71-11.62-2.17-.85-4.52.85-5.85,2.76-.83,1.19-2.9,3.47-3.28,4.83-.5,1.63,1.19,3.3,1.17,5.22Z"/><path class="cls-8_surfing-1-5" d="M225.21,178.56c-6.85,6.86-5.6,18.38-10.32,26.86-.26.55-.65,1.04-1.13,1.42-.69.41-1.47.64-2.26.68-8.3,1.05-16.36,3.54-24.35,6-2.6.65-5.08,1.74-7.31,3.22-2.26,1.53-3.57,4.11-3.48,6.83,3.63-.57,7.01-2.22,9.71-4.72l.29,3.03c.6.48,1.52.08,1.97-.54.45-.62.61-1.4.99-2.05,1.14-1.95,3.72-2.33,5.96-2.52l18-1.48c2.12-.03,4.22-.48,6.16-1.32,4.34-2.29,5.52-7.79,7.46-12.32,1.93-4.53,5.09-8.62,7.7-12.9,1.58-2.65,7.01-11.66,3.77-14.57-3.03-2.69-11.03,2.24-13.17,4.38Z"/><path class="cls-7_surfing-1-5" d="M237.19,173.86c.41.72,1.03,1.51,1.87,1.43.55-.09,1.04-.42,1.32-.9.61-.95,1.06-1.99,1.32-3.09.97-2.78,1.3-5.75.98-8.68-1.09,1.85-3.27,2.65-4.87,4.13-.85.74-2.37,2.29-2.32,3.52.3,1.3.88,2.52,1.7,3.58Z"/><path class="cls-8_surfing-1-5" d="M228.27,164.81c.23,2.4.9,5.21,3.14,6.12,2,.82,4.23-.28,6.05-1.44,1.35-.8,2.58-1.77,3.67-2.9.7-.79,1.32-1.68,1.99-2.48,1.59-1.81,3.97-3.35,4.15-5.76.13-.75-.19-1.5-.81-1.93-.54-.28-1.26-.15-1.75-.53-.32-.33-.52-.76-.57-1.22-.49-2.37-1.59-4.56-3.19-6.37-1.65-1.8-3.99-2.81-6.44-2.77-3.64.17-5.3,2.65-5.71,5.88-.65,4.44-.82,8.93-.53,13.4Z"/><path class="cls-9_surfing-1-5 targetColor" d="M269.04,209.04c2.65,4.28,4.78,8.87,3.91,13.74-.1.58-.24,1.16-.42,1.72h-.08c-.48-2.2-.72-4.15-2.19-6.01-1.93-2.31-4.51-3.98-7.4-4.78-6.54-1.94-13.6-.7-19.09,3.35-2.21,1.67-4.09,3.75-6.38,5.3.02-.14.06-.27.11-.4,1.53-1.12,2.99-2.33,4.38-3.62.77-.73,1.89-2,1.22-3.14-.19-.33-.48-.61-.65-.95-.18-.39-.23-.83-.12-1.25.09-.34.36-.7.72-.72.26.03.5.12.72.26.88.27,1.83.18,2.65-.24,2.75-1.03,5.58-1.87,8.45-2.49,2.97-.58,5.98-.88,9.01-.89,1.71.03,3.44.05,5.18.11Z" style="fill: rgb(104, 225, 253);"/><path class="cls-9_surfing-1-5 targetColor" d="M230.26,187.14c-.52,2.29-.87,4.61-1.03,6.95-.02,1.19.04,2.37.17,3.55-.05.99.16,1.97.61,2.85.53.74,1.17,1.4,1.89,1.96,1.96,1.67,4.17,3.44,6.77,3.42,2.16,0,3.8-1.32,5.54-2.42,1.91-1.18,3.93-2.16,6.03-2.94,2.76-1.06,5.72-1.46,8.48-2.52.55-.16,1.05-.46,1.44-.87.36-.54.57-1.17.61-1.81.39-2.72.6-5.46.61-8.21.04-.46-.07-.93-.32-1.32-.36-.35-.83-.57-1.32-.62-6.03-1.61-9.74-7.66-8.45-13.76-1.31-.31-2.64-.51-3.97-.61-.38,0-.82,0-1.03.29-.11.2-.16.43-.15.66-.06,3.7-1.47,7.25-3.97,9.97-1.01,1.1-2.48,2.12-3.89,1.67-1.19-.57-1.99-1.71-2.12-3.02-.22-1.14-.27-2.3-.16-3.46.31-1.04.49-2.12.54-3.21-.32-1.32-2-1.03-2.83-.32-1.46,1.32-1.5,4.53-1.85,6.29l-1.58,7.48Z" style="fill: rgb(104, 225, 253);"/><path class="cls-6_surfing-1-5" d="M224.31,145.99c.68-2.19,2.12-4.07,4.05-5.3,3.58-2.44,8.07-3.1,12.4-3.15,2.16-.08,4.33.15,6.42.68,4.6,1.32,8.24,4.7,11.92,7.75,1.12,1,2.37,1.84,3.71,2.5,4.44,1.93,9.67-.12,13.4-3.19,1.22-1.21,2.62-2.21,4.16-2.98,1.28-.44,2.62-.68,3.97-.7,2.32-.28,4.66-.09,6.9.57,2.24.71,3.89,2.6,4.29,4.91.25,3.07-2.52,5.55-5.3,6.89-5.18,2.48-11.03,2.81-16.68,2.74-2.65.16-5.3.16-7.95,0-2.88-.41-5.66-1.3-8.24-2.65-2.37-1.21-4.83-2.65-7.48-2.46-1.32.12-2.65.65-3.97.85-1.35.32-2.77-.12-3.7-1.15-.53-.74-.76-1.88-1.64-2.12-.68-.17-1.32.29-1.91.62-1.79,1-3.95,1.05-5.79.13-.62-.32-1.89-1.32-2.57-.74-.27.29-.46.64-.54,1.03l-1.42,4.66c-2.05-1.89-3.97-4.21-4.19-6.99-.06-.63-.01-1.27.13-1.89Z"/></g></svg>