<svg width="21" height="40" viewBox="0 0 21 40" fill="none" xmlns="http://www.w3.org/2000/svg">
<path d="M20.9914 37.7661C20.993 37.4738 20.9401 37.1841 20.8357 36.9135C20.7313 36.6429 20.5775 36.3967 20.383 36.1892L11.568 26.8699C7.92125 23.0144 7.92125 16.9818 11.568 13.1264L20.383 3.807C20.7781 3.38878 21 2.82155 21 2.23009C21 1.63863 20.7781 1.0714 20.383 0.653178C19.988 0.234955 19.4522 0 18.8935 0C18.3348 0 17.799 0.234955 17.404 0.653178L0.620563 18.4212C0.423927 18.6277 0.267854 18.8733 0.161345 19.144C0.0548366 19.4146 0 19.7049 0 19.9981C0 20.2913 0.0548366 20.5816 0.161345 20.8522C0.267854 21.1229 0.423927 21.3685 0.620563 21.575L17.404 39.343C17.599 39.5512 17.831 39.7164 18.0867 39.8292C18.3423 39.9419 18.6165 40 18.8935 40C19.1704 40 19.4447 39.9419 19.7003 39.8292C19.956 39.7164 20.188 39.5512 20.383 39.343C20.5775 39.1355 20.7313 38.8894 20.8357 38.6188C20.9401 38.3482 20.993 38.0584 20.9914 37.7661Z" fill="#1D1D1D"/>
</svg>
