<svg width="21" height="40" viewBox="0 0 21 40" fill="none" xmlns="http://www.w3.org/2000/svg">
<path d="M0.00858241 2.23388C0.00698596 2.52618 0.0599053 2.81594 0.164308 3.08654C0.26871 3.35714 0.422544 3.60326 0.616983 3.81079L15.9318 20.0019L0.616983 36.193C0.221937 36.6112 -6.55651e-07 37.1785 -6.55651e-07 37.7699C-6.55651e-07 38.3614 0.221937 38.9286 0.616983 39.3468C1.01203 39.765 1.54783 40 2.10651 40C2.66519 40 3.20099 39.765 3.59603 39.3468L20.3794 21.5788C20.5761 21.3723 20.7321 21.1267 20.8387 20.856C20.9452 20.5854 21 20.2951 21 20.0019C21 19.7087 20.9452 19.4184 20.8387 19.1478C20.7321 18.8771 20.5761 18.6315 20.3794 18.425L3.59603 0.65697C3.401 0.448798 3.16897 0.283564 2.91332 0.170809C2.65767 0.0580506 2.38346 -1.43051e-06 2.10651 -1.43051e-06C1.82956 -1.43051e-06 1.55535 0.0580506 1.2997 0.170809C1.04404 0.283564 0.812013 0.448798 0.616983 0.65697C0.422544 0.8645 0.26871 1.11062 0.164308 1.38122C0.0599053 1.65182 0.00698596 1.94158 0.00858241 2.23388Z" fill="#1D1D1D"/>
</svg>
