<svg width="80" height="80" viewBox="0 0 80 80" fill="none" xmlns="http://www.w3.org/2000/svg">
<circle cx="40" cy="40" r="40" fill="url(#paint0_linear_31_326)"/>
<path d="M23.9929 15.0983C23.9929 15.1518 24.0464 15.5688 24.1105 16.0286C24.3458 17.7289 25.1905 19.4077 26.4096 20.6054C27.0832 21.2576 28.2702 22.0489 28.9439 22.2842C29.1577 22.3591 29.3395 22.4553 29.3395 22.4874C29.3395 22.5301 29.1363 22.6692 28.8904 22.8082C27.4361 23.6102 25.7038 24.9575 24.2495 26.4118C22.0467 28.6253 20.293 31.32 19.1595 34.2713C18.8174 35.191 18.6783 35.4262 18.5179 35.4262C18.1544 35.4262 16.9033 35.9716 16.1654 36.4635C13.0109 38.5379 12.0592 42.7939 14.0161 46.066C14.8609 47.4561 16.4648 48.6965 18.0581 49.1777C18.411 49.2847 18.7104 49.3809 18.7318 49.3916C18.7532 49.4023 18.9243 49.8514 19.1275 50.3754C19.6193 51.7013 20.6887 53.7758 21.5121 54.9842C22.4638 56.4064 23.2551 57.3367 24.5917 58.6413C27.9708 61.9241 32.0128 63.9451 36.8783 64.8006C38.4074 65.0572 42.2249 65.0679 43.7861 64.8006C47.1117 64.2445 50.1165 63.079 52.7577 61.336C54.3083 60.3094 55.292 59.4967 56.618 58.1387C58.9491 55.7327 60.5745 53.1342 61.7722 49.8514C61.9432 49.4023 61.9967 49.3595 62.4779 49.2312C63.6756 48.9211 65.1405 48.0122 65.9639 47.0605C66.5627 46.3547 67.0439 45.5099 67.3647 44.5689C67.6214 43.8204 67.6641 43.5424 67.6641 42.4303C67.6748 41.3717 67.6321 41.0081 67.4289 40.3451C66.9263 38.7197 65.9104 37.3617 64.5417 36.4528C63.8039 35.9716 62.5528 35.4262 62.1892 35.4262C62.0288 35.4262 61.9005 35.2016 61.5904 34.3676C59.6014 29.1386 55.677 24.7436 50.6833 22.1773C47.5822 20.584 43.9786 19.7071 40.5247 19.7071C38.1721 19.7071 37.2204 19.4184 36.0763 18.3491C35.317 17.654 34.8358 16.7558 34.6648 15.7185L34.5471 15.0021H32.9645C31.136 15.0021 31.275 14.8952 31.4889 16.1677C31.6386 17.1194 31.9594 18.0283 32.4192 18.8517C32.633 19.2366 32.8255 19.5788 32.8469 19.6216C32.9004 19.7499 31.8204 19.7285 31.1146 19.5895C30.1629 19.4184 29.3609 18.9907 28.6338 18.2635C27.8852 17.5257 27.4789 16.7451 27.3078 15.7185L27.1795 15.0021H25.5862C24.6773 15.0021 23.9929 15.0449 23.9929 15.0983ZM41.872 23.129C45.6681 24.2945 46.8444 29.0423 44.0427 31.844C42.4067 33.48 40.0435 33.8436 37.8941 32.7743C36.4291 32.0471 35.1246 30.0368 35.1139 28.497V28.1548H33.5099H31.9059V28.5825C31.9059 29.8443 32.5475 31.737 33.3923 32.9347C34.4723 34.4638 35.9479 35.5652 37.7872 36.1961C38.7496 36.5169 38.8779 36.5383 40.3536 36.5383C41.8292 36.5383 41.9576 36.5169 42.9199 36.1961C44.2138 35.747 45.2083 35.1589 46.1386 34.282C47.8495 32.6673 48.8012 30.4752 48.8012 28.1548C48.8012 27.1924 48.5767 25.9413 48.2559 25.1286C48.1383 24.8399 48.0634 24.5726 48.0955 24.5512C48.1917 24.4442 50.6939 25.8237 51.6884 26.5294C53.0037 27.4597 55.2813 29.7374 56.201 31.042C56.9816 32.1541 58.1364 34.2927 58.5856 35.4797C58.7353 35.886 59.0026 36.7094 59.163 37.2975L59.4624 38.3669L60.4997 38.4417C62.0823 38.5593 63.1195 39.094 63.8253 40.1633C64.916 41.8315 64.67 43.8632 63.2264 45.1998C62.4565 45.9163 61.7828 46.1836 60.4569 46.3012L59.4624 46.3868L59.0668 47.7234C58.6069 49.2954 58.4038 49.8086 57.6873 51.2415C54.458 57.6789 47.6143 61.8492 40.3215 61.8385C33.0608 61.8279 26.2385 57.6468 23.0198 51.2415C22.3034 49.8086 22.1002 49.2954 21.6404 47.7234L21.2447 46.3868L20.2503 46.3012C18.9243 46.1836 18.2506 45.9163 17.4807 45.1998C16.5718 44.3658 16.2403 43.5852 16.2403 42.3234C16.251 41.5 16.2937 41.2754 16.5397 40.7728C16.9781 39.8532 17.4914 39.3292 18.3575 38.9015C19.0205 38.57 19.2772 38.5059 20.1861 38.4417L21.2447 38.3669L21.5441 37.2975C22.0574 35.4583 22.6348 34.0789 23.5117 32.5925C26.9763 26.7005 33.2746 22.99 39.8831 22.9258C40.9096 22.9151 41.3373 22.9579 41.872 23.129Z" fill="#FAFAFA" fill-opacity="0.980392"/>
<path d="M30.5156 37.7896C29.35 37.9179 28.4197 38.3563 27.5001 39.2331C26.5805 40.11 25.9175 41.4894 25.9175 42.5481V43.0293L27.4894 42.9972L29.0613 42.9651L29.1575 42.4946C29.2859 41.853 29.9916 41.1472 30.6332 41.0189C31.2534 40.8906 31.9592 41.0296 32.4083 41.3718C32.8146 41.6819 33.1889 42.3449 33.1889 42.7512V43.0186H34.7929H36.3969V42.6122C36.3969 41.6605 35.798 40.2918 35.0281 39.4577C33.8091 38.1638 32.28 37.5971 30.5156 37.7896Z" fill="#FAFAFA" fill-opacity="0.980392"/>
<path d="M48.9085 37.7896C47.6681 37.9179 46.6202 38.4632 45.6792 39.4577C44.8879 40.3132 44.3104 41.6391 44.3104 42.6122V43.0186H45.9144H47.5184V42.7512C47.5184 42.3449 47.8927 41.6819 48.299 41.3718C48.7481 41.0296 49.4539 40.8906 50.0741 41.0189C50.7157 41.1472 51.4214 41.853 51.5498 42.4946L51.646 42.9651L53.2179 42.9972L54.7898 43.0293V42.5587C54.7898 40.773 53.2072 38.6985 51.3359 38.0355C50.705 37.8109 49.7212 37.7147 48.9085 37.7896Z" fill="#FAFAFA" fill-opacity="0.980392"/>
<path d="M34.0777 50.3327C33.3612 50.7497 32.741 51.1347 32.6983 51.1775C32.5592 51.3058 33.8317 52.8456 34.6123 53.4979C35.532 54.2678 36.9862 55.0163 38.1625 55.3264C39.3601 55.6472 41.3491 55.6472 42.536 55.3264C44.4394 54.8239 46.1718 53.6904 47.3694 52.1719C47.7437 51.7014 48.0431 51.2737 48.0217 51.2202C48.011 51.1775 47.4015 50.7818 46.6743 50.3434L45.3484 49.5521L45.1345 49.8408C42.8248 52.9205 38.7292 53.2412 36.1736 50.5465C35.9062 50.2578 35.6175 49.9156 35.532 49.7873C35.3823 49.5628 35.3716 49.5628 34.0777 50.3327Z" fill="#FAFAFA" fill-opacity="0.980392"/>
<defs>
<linearGradient id="paint0_linear_31_326" x1="4.87549e-07" y1="12.8571" x2="83.629" y2="22.7756" gradientUnits="userSpaceOnUse">
<stop stop-color="#2A3676"/>
<stop offset="1" stop-color="#00A445"/>
</linearGradient>
</defs>
</svg>
