<svg width="80" height="80" viewBox="0 0 80 80" fill="none" xmlns="http://www.w3.org/2000/svg">
<circle cx="40" cy="40" r="40" fill="url(#paint0_linear_31_330)"/>
<g clip-path="url(#clip0_31_330)">
<path d="M38.8086 16.6602C38.0859 16.7871 37.3828 17.041 36.5332 17.4707C35.7714 17.8516 35.5175 18.0957 25.4296 28.1738C14.1992 39.3945 14.873 38.6523 15.0488 39.5801C15.1367 40.0488 15.7421 40.6445 16.2207 40.7422C16.8945 40.8691 17.207 40.7227 18.0859 39.8828L18.9062 39.0918V49.2383C18.9062 60.3613 18.8964 60.1074 19.4921 61.1328C19.8339 61.7285 20.6445 62.5391 21.25 62.8809C22.2753 63.4668 21.3769 63.4473 40.3125 63.418L57.6269 63.3887L58.3007 63.1055C59.1015 62.7637 60.0683 61.9043 60.5078 61.1523C61.1035 60.0977 61.0937 60.3809 61.0937 49.2383V39.0918L61.914 39.8828C62.7929 40.7227 63.1054 40.8691 63.7793 40.7422C64.2578 40.6445 64.8632 40.0488 64.9511 39.5801C65.1269 38.6523 65.791 39.3945 54.6191 28.2227C43.4277 17.041 43.9648 17.5195 42.2168 16.9336C41.5234 16.709 41.1328 16.6406 40.3027 16.6113C39.7363 16.5918 39.0625 16.6113 38.8086 16.6602ZM41.0254 19.8438C41.3476 19.9219 41.8066 20.1074 42.0507 20.2441C42.3144 20.3906 45.498 23.4961 50.2343 28.2227L57.9687 35.9473V47.5684C57.9687 58.4375 57.9589 59.209 57.7929 59.5215C57.705 59.707 57.5 59.9512 57.3535 60.0586C57.08 60.2539 56.9531 60.2637 52.4414 60.293L47.8125 60.3223V53.9258C47.8125 49.6289 47.7734 47.3633 47.705 47.0117C47.3242 45.1855 45.7519 43.6133 43.9257 43.2324C43.2324 43.0859 36.7675 43.0859 36.0742 43.2324C34.248 43.6133 32.6757 45.1855 32.2949 47.0117C32.2265 47.3633 32.1875 49.6289 32.1875 53.916V60.3125H27.6757C22.6367 60.3125 22.705 60.3223 22.2558 59.6387L22.0312 59.3066V47.627V35.9473L29.7753 28.2227C34.5214 23.4766 37.6757 20.3906 37.9492 20.2441C38.8769 19.7168 39.9902 19.5703 41.0254 19.8438ZM43.5839 46.3965C44.0722 46.6016 44.2871 46.8066 44.5019 47.2754C44.6679 47.6367 44.6875 48.0664 44.6875 53.9844V60.3125H40H35.3125V54.0137C35.3125 48.5645 35.332 47.6563 35.4589 47.3535C35.664 46.8652 35.8691 46.6504 36.3379 46.4355C36.6894 46.2695 37.0312 46.25 39.9804 46.25C42.6855 46.25 43.291 46.2793 43.5839 46.3965Z" fill="#FAFAFA"/>
</g>
<defs>
<linearGradient id="paint0_linear_31_330" x1="4.87549e-07" y1="12.8571" x2="83.629" y2="22.7756" gradientUnits="userSpaceOnUse">
<stop stop-color="#2A3676"/>
<stop offset="1" stop-color="#00A445"/>
</linearGradient>
<clipPath id="clip0_31_330">
<rect width="50" height="50" fill="white" transform="translate(15 15)"/>
</clipPath>
</defs>
</svg>
