<svg width="80" height="80" viewBox="0 0 80 80" fill="none" xmlns="http://www.w3.org/2000/svg">
<circle cx="40" cy="40" r="40" fill="url(#paint0_linear_31_328)"/>
<path d="M34.9462 14.1494C32.2802 14.5678 29.8974 15.8627 28.0321 17.8848C25.9813 20.106 24.9169 22.676 24.7704 25.7539C24.5653 30.057 26.6356 34.1709 30.2099 36.5516C31.9677 37.7269 33.6571 38.3246 35.7079 38.4939C39.5067 38.7928 42.7489 37.5775 45.3661 34.8582C47.9247 32.1986 49.0673 28.9215 48.7548 25.1562C48.4813 21.9289 47.0849 19.1498 44.663 17.0182C42.7489 15.3447 40.9911 14.508 38.5595 14.1494C37.3876 13.9801 36.0204 13.9701 34.9462 14.1494ZM39.1063 17.2771C40.6395 17.6756 41.7919 18.3629 43.081 19.6279C44.7606 21.2516 45.6102 23.0445 45.8349 25.3654C46.0985 28.1146 45.2685 30.6248 43.4423 32.617C42.3095 33.8521 40.6395 34.898 39.2235 35.2666C37.1239 35.8045 34.6239 35.5754 32.827 34.6689C30.3759 33.4338 28.5595 31.1228 27.8954 28.3935C27.6415 27.3476 27.6708 24.9869 27.954 23.9111C28.706 21.0225 31.1669 18.343 33.9013 17.4365C35.3856 16.9484 37.6024 16.8787 39.1063 17.2771Z" fill="#FAFAFA"/>
<path d="M26.079 38.7131C24.5849 38.8725 23.0419 39.4502 21.8212 40.2869C18.7744 42.3986 16.8017 47.1201 16.3427 53.3955C16.0888 56.9217 16.2939 58.6648 17.1826 60.4877C17.6708 61.5037 18.5986 62.6193 19.5458 63.3365C20.2685 63.8744 21.4794 64.4322 22.5439 64.7111L23.4228 64.9502H37.0947H50.7665L51.6455 64.7211C54.7314 63.8943 56.8896 61.7727 57.6611 58.7744C58.0615 57.2305 58.0126 53.5449 57.5439 50.6363C56.5185 44.1617 53.9208 40.277 49.8095 39.0617C48.872 38.7828 47.1923 38.5736 46.6943 38.6732C46.2158 38.7629 45.5517 39.1215 44.0478 40.1076C42.4267 41.1734 42.1728 41.3129 40.9619 41.7611C39.5361 42.2891 38.4716 42.4982 37.1533 42.4982C35.7861 42.4982 34.7314 42.299 33.3447 41.801C32.0361 41.3228 31.9775 41.293 29.9267 39.9682C28.8525 39.2709 28.0517 38.8227 27.7392 38.733C27.1923 38.5936 27.1923 38.5936 26.079 38.7131ZM28.6181 42.6477C30.454 43.8529 31.2255 44.2414 32.8369 44.7793C37.0361 46.1838 41.3232 45.5064 45.3662 42.807C47.1923 41.5818 47.1533 41.6018 47.9247 41.7014C51.4697 42.1596 53.6865 45.1977 54.624 50.9053C55.0048 53.2561 55.122 56.5332 54.8681 57.7783C54.458 59.7805 53.1298 61.1949 51.0986 61.7826C50.5126 61.952 49.7412 61.9619 37.0947 61.9619C24.4189 61.9619 23.6865 61.952 23.081 61.7826C21.6259 61.3643 20.3662 60.3482 19.7802 59.123C19.2724 58.0672 19.1455 57.1807 19.2236 55.0391C19.2919 52.8775 19.3896 51.8715 19.7314 50.1084C19.9853 48.7338 20.581 46.7814 21.0009 45.9348C22.2607 43.3848 23.9697 41.9902 26.1865 41.7014C26.5478 41.6516 26.8798 41.6117 26.9189 41.6018C26.958 41.6018 27.7197 42.0699 28.6181 42.6477Z" fill="#FAFAFA"/>
<path d="M57.1509 25.9531L57.1509 38.5786" stroke="#FAFAFA" stroke-width="2" stroke-linecap="round"/>
<path d="M63.1934 32.5647L50.8887 32.5647" stroke="#FAFAFA" stroke-width="2" stroke-linecap="round"/>
<defs>
<linearGradient id="paint0_linear_31_328" x1="4.87549e-07" y1="12.8571" x2="83.629" y2="22.7756" gradientUnits="userSpaceOnUse">
<stop stop-color="#2A3676"/>
<stop offset="1" stop-color="#00A445"/>
</linearGradient>
</defs>
</svg>
