<svg width="80" height="80" viewBox="0 0 80 80" fill="none" xmlns="http://www.w3.org/2000/svg">
<circle cx="40" cy="40" r="40" fill="url(#paint0_linear_31_327)"/>
<path d="M37.8026 15.1465C35.1366 15.5566 32.7538 16.8262 30.8886 18.8086C28.8378 20.9863 27.7733 23.5058 27.6268 26.5234C27.4218 30.7422 29.4921 34.7754 33.0663 37.1094C34.8241 38.2617 36.5136 38.8476 38.5644 39.0137C42.3632 39.3066 45.6054 38.1152 48.2226 35.4492C50.7811 32.8418 51.9237 29.6289 51.6112 25.9375C51.3378 22.7734 49.9413 20.0488 47.5194 17.959C45.6054 16.3183 43.8476 15.498 41.4159 15.1465C40.244 14.9805 38.8769 14.9707 37.8026 15.1465ZM41.9628 18.2129C43.496 18.6035 44.6483 19.2773 45.9374 20.5176C47.6171 22.1094 48.4667 23.8672 48.6913 26.1426C48.955 28.8379 48.1249 31.2988 46.2987 33.2519C45.1659 34.4629 43.496 35.4883 42.08 35.8496C39.9804 36.3769 37.4804 36.1523 35.6835 35.2637C33.2323 34.0527 31.4159 31.7871 30.7518 29.1113C30.4979 28.0859 30.5272 25.7715 30.8104 24.7168C31.5624 21.8848 34.0233 19.2578 36.7577 18.3691C38.2421 17.8906 40.4589 17.8223 41.9628 18.2129Z" fill="#FAFAFA"/>
<path d="M28.9355 39.2285C27.4413 39.3848 25.8984 39.9512 24.6777 40.7715C21.6308 42.8418 19.6581 47.4707 19.1992 53.623C18.9453 57.0801 19.1503 58.7891 20.039 60.5762C20.5273 61.5723 21.455 62.666 22.4023 63.3691C23.1249 63.8965 24.3359 64.4434 25.4003 64.7168L26.2792 64.9512H39.9511H53.623L54.5019 64.7266C57.5878 63.916 59.746 61.8359 60.5175 58.8965C60.9179 57.3828 60.8691 53.7695 60.4003 50.918C59.3749 44.5703 56.7773 40.7617 52.666 39.5703C51.7285 39.2969 50.0488 39.0918 49.5507 39.1895C49.0722 39.2773 48.4081 39.6289 46.9042 40.5957C45.2831 41.6406 45.0292 41.7773 43.8183 42.2168C42.3925 42.7344 41.3281 42.9395 40.0097 42.9395C38.6425 42.9395 37.5878 42.7441 36.2011 42.2559C34.8925 41.7871 34.8339 41.7578 32.7831 40.459C31.7089 39.7754 30.9081 39.3359 30.5956 39.248C30.0488 39.1113 30.0488 39.1113 28.9355 39.2285ZM31.4746 43.0859C33.3105 44.2676 34.082 44.6484 35.6933 45.1758C39.8925 46.5527 44.1796 45.8887 48.2226 43.2422C50.0488 42.041 50.0097 42.0605 50.7812 42.1582C54.3261 42.6074 56.5429 45.5859 57.4804 51.1816C57.8613 53.4863 57.9785 56.6992 57.7246 57.9199C57.3144 59.8828 55.9863 61.2695 53.955 61.8457C53.3691 62.0117 52.5976 62.0215 39.9511 62.0215C27.2753 62.0215 26.5429 62.0117 25.9374 61.8457C24.4824 61.4355 23.2226 60.4395 22.6367 59.2383C22.1288 58.2031 22.0019 57.334 22.08 55.2344C22.1484 53.1152 22.246 52.1289 22.5878 50.4004C22.8417 49.0527 23.4374 47.1387 23.8574 46.3086C25.1171 43.8086 26.8261 42.4414 29.0429 42.1582C29.4042 42.1094 29.7363 42.0703 29.7753 42.0605C29.8144 42.0605 30.5761 42.5195 31.4746 43.0859Z" fill="#FAFAFA"/>
<defs>
<linearGradient id="paint0_linear_31_327" x1="4.87549e-07" y1="12.8571" x2="83.629" y2="22.7756" gradientUnits="userSpaceOnUse">
<stop stop-color="#2A3676"/>
<stop offset="1" stop-color="#00A445"/>
</linearGradient>
</defs>
</svg>
