<svg width="80" height="80" viewBox="0 0 80 80" fill="none" xmlns="http://www.w3.org/2000/svg">
<circle cx="40" cy="40" r="40" fill="url(#paint0_linear_31_329)"/>
<g clip-path="url(#clip0_31_329)">
<path d="M33.8067 15.1099C30.3514 15.6516 27.4524 17.511 25.4612 20.4759C24.1508 22.4305 23.5505 24.4656 23.5432 27.0059C23.5359 28.4261 23.6457 29.2241 24.0117 30.4612C25.2562 34.656 28.7482 37.8697 33.082 38.7995C33.7555 38.9459 34.0556 38.9678 35.5344 38.9678C37.3719 38.9678 38.0381 38.8727 39.3631 38.4334C39.7877 38.2943 39.9634 38.2577 39.9634 38.3309C39.9634 38.4334 40.4246 38.5798 41.4641 38.8068C42.101 38.9459 42.4231 38.9678 43.8799 38.9678C45.7321 38.9678 46.3616 38.88 47.7599 38.4188C50.549 37.5037 53.3016 35.0952 54.6706 32.3719C56.0395 29.6413 56.2665 26.2812 55.3001 23.1992C54.1215 19.4876 50.6442 16.2592 46.8521 15.3588C45.366 15 43.5505 14.9049 42.1962 15.1099C41.2591 15.2563 40.0952 15.5564 40.0073 15.6882C39.9488 15.7687 39.8682 15.7687 39.5315 15.6443C37.9063 15.0806 35.4685 14.8536 33.8067 15.1099ZM37.4085 18.104C39.1215 18.4334 40.5198 19.2094 41.94 20.6296C42.7306 21.4129 43.2284 22.0718 43.6457 22.8917C44.8097 25.1684 44.9341 28.0162 43.9824 30.432C42.9283 33.1186 40.3075 35.3222 37.4378 35.9517C36.7423 36.0981 34.3631 36.0762 33.6091 35.9151C30.3953 35.2123 27.8697 32.8917 26.8228 29.6779C26.5666 28.8873 26.4934 28.3309 26.4934 27.0791C26.4934 24.9415 26.8448 23.7043 27.9136 22.1084C29.246 20.1172 31.2738 18.6311 33.265 18.1845C34.4583 17.921 36.2665 17.8844 37.4085 18.104ZM45.7613 18.104C47.4597 18.4334 48.8653 19.2094 50.2855 20.6296C51.0761 21.4129 51.5739 22.0718 51.9912 22.8917C53.1552 25.1684 53.2796 28.0162 52.328 30.432C51.5593 32.3719 49.9341 34.1362 47.9575 35.1538C46.7203 35.798 45.9004 36.003 44.429 36.0615L43.4407 36.0981L44.0703 35.4539C45.0732 34.4071 45.7906 33.4407 46.325 32.3719C47.694 29.6413 47.9209 26.2812 46.9546 23.1992C46.4129 21.5008 45.2855 19.7072 43.9239 18.4188C43.6823 18.1845 43.4773 17.9722 43.4773 17.9503C43.4773 17.8771 45.1757 17.9942 45.7613 18.104Z" fill="#FAFAFA"/>
<path d="M24.8829 39.1948C23.0747 39.4217 21.4861 40.044 20.1904 41.0322C19.9707 41.2006 19.5169 41.6252 19.1874 41.9693C16.5886 44.7218 15.0586 49.8097 15.044 55.7394C15.0366 57.4598 15.0586 57.716 15.205 58.4114C15.6003 60.1977 16.4056 61.6179 17.7233 62.8404C18.6091 63.6603 19.6779 64.2021 21.3324 64.6779L22.2035 64.9268H39.9781C57.6501 64.9268 57.7599 64.9268 58.4334 64.7731C59.8463 64.4583 60.7101 64.0776 61.6691 63.3529C62.3939 62.7965 62.9283 62.2475 63.4554 61.5081C64.6486 59.839 65 58.4773 65 55.5344C65 53.1845 64.6047 50.1977 64.041 48.2724C63.104 45.0952 62.1523 43.265 60.6955 41.8521C58.8653 40.0806 56.6399 39.1508 54.2021 39.1582C53.5066 39.1582 53.3968 39.2021 52.0645 40.0293C51.53 40.3514 51.0615 40.6223 51.0322 40.6223C50.9956 40.6223 50.6296 40.4466 50.205 40.227C48.858 39.5242 47.1303 39.1142 45.7907 39.1728C45.0513 39.2021 44.7658 39.3338 42.8331 40.5418C41.1274 41.6179 40.6662 41.8521 39.4656 42.2621C37.9503 42.7819 37.5037 42.8551 35.8639 42.8551C34.246 42.8551 33.7921 42.7819 32.3134 42.2987C31.1713 41.918 30.4905 41.574 28.8068 40.5198C26.5593 39.1069 26.2738 39.0117 24.8829 39.1948ZM25.8273 42.123C25.9444 42.1743 26.6691 42.6281 27.4524 43.1113C29.1801 44.1948 30.0513 44.6267 31.4568 45.0879C33.2284 45.6735 33.9239 45.7833 35.8639 45.7833C37.2914 45.7833 37.6208 45.7614 38.3529 45.615C40.3661 45.205 42.2694 44.3924 44.429 43.0088C45.0952 42.5769 45.7614 42.1889 45.9151 42.145C46.1201 42.0864 46.3324 42.0864 46.8009 42.1523C50.3514 42.6794 52.5989 45.9005 53.4261 51.6399C53.7848 54.1215 53.8214 57.1816 53.5066 58.265C53.1113 59.6413 52.2035 60.7321 50.9444 61.3617C49.7072 61.9766 50.6076 61.94 38.2065 61.9766C32.0352 61.9912 26.0469 61.9766 24.5901 61.94C21.7131 61.8595 21.7057 61.8595 20.6442 61.3031C19.6926 60.798 18.9751 60.0659 18.5139 59.1069C18.0674 58.1772 17.9869 57.6721 17.9942 55.8712C18.0015 52.6647 18.3748 50.183 19.2167 47.6501C20 45.3075 21.369 43.5505 23.0967 42.6867C23.6384 42.4158 24.224 42.2401 24.9927 42.1157C25.3148 42.0718 25.5857 42.0278 25.6003 42.0205C25.615 42.0132 25.7175 42.0644 25.8273 42.123ZM55.8126 42.2694C56.4934 42.4451 57.511 42.9576 58.082 43.4114C59.2533 44.3412 60.0366 45.5637 60.8053 47.6867C61.7204 50.1904 62.0718 52.4671 62.0718 55.8565C62.0718 57.1377 62.0498 57.3719 61.8961 57.9942C61.6179 59.0849 61.2665 59.7365 60.571 60.4246C59.5315 61.4568 58.7116 61.8229 57.2035 61.9254C56.0981 62.0059 54.8975 62.0205 54.8975 61.9546C54.8975 61.9327 55.0732 61.6398 55.2929 61.3104C56.4129 59.6267 56.7057 58.2724 56.6325 55.0513C56.53 50.3221 55.4832 46.2006 53.697 43.4773L53.2211 42.7526L53.4334 42.5989C53.5432 42.5183 53.8141 42.3646 54.0337 42.2621C54.3631 42.1084 54.4876 42.0864 54.8975 42.1157C55.1611 42.1377 55.571 42.2035 55.8126 42.2694Z" fill="#FAFAFA"/>
</g>
<defs>
<linearGradient id="paint0_linear_31_329" x1="4.87549e-07" y1="12.8571" x2="83.629" y2="22.7756" gradientUnits="userSpaceOnUse">
<stop stop-color="#2A3676"/>
<stop offset="1" stop-color="#00A445"/>
</linearGradient>
<clipPath id="clip0_31_329">
<rect width="50" height="50" fill="white" transform="translate(15 15)"/>
</clipPath>
</defs>
</svg>
