<svg version="1.1" id="Layer_1" xmlns="http://www.w3.org/2000/svg" xmlns:xlink="http://www.w3.org/1999/xlink" x="0px" y="0px" viewBox="0 0 500 500" style="width: 215px;" xml:space="preserve" data-imageid="beach-1" imageName="Beach" class="illustrations_image">
<style type="text/css">
	.st0_beach-1{fill:#FFC2A4;}
	.st1_beach-1{opacity:0.65;fill:#FFFFFF;enable-background:new    ;}
	.st2_beach-1{fill:#68E1FD;}
	.st3_beach-1{fill:url(#SVGID_1_);}
	.st4_beach-1{fill:url(#SVGID_00000008106586512732698300000006120737157555132590_);}
	.st5_beach-1{fill:url(#SVGID_00000172397929773025279620000002590418759552980097_);}
	.st6_beach-1{fill:#DD6F31;}
	.st7_beach-1{fill:#FFE266;}
	.st8_beach-1{fill:#FFD401;}
	.st9_beach-1{fill:#EFBA0F;}
	.st10_beach-1{fill:#F24044;}
	.st11_beach-1{fill:#FFFFFF;}
	.st12_beach-1{opacity:0.5;fill:#DD6F31;enable-background:new    ;}
	.st13_beach-1{opacity:0.39;fill:#4E62D4;enable-background:new    ;}
</style>
<g id="beach_beach-1">
	<path class="st0_beach-1" d="M484.9,242.9L249.2,106.2c-3.4-2-8.6-0.6-11.9,1.5l-196,112.9h0.1c0,0,62.2-22.1,90.1,5.6&#10;&#9;&#9;s-13.1,42.1,41.2,48.8s53.2-13.3,88.7,0s14.5,47.7,31.1,56.5s59.4-18.8,82.3-5l111.4-63.6C493.3,258.7,492,247.1,484.9,242.9z"/>
	<path class="st0_beach-1" d="M484.9,242.9L249.2,106.2c-3.4-2-8.6-0.6-11.9,1.5L78.3,199.2c3-0.6,6.1-1.1,9.2-1.5&#10;&#9;&#9;c18.8-2.4,41.4-0.9,57,11.2c11.5,9,16.3,22.2,17.9,36.3c0.6,5.5,0.2,12.6,5.5,15.8c7.8,4.8,19.4,4,28.1,2.8&#10;&#9;&#9;c18.9-2.8,36.4-8.2,55.7-7.2c16.1,0.8,35.4,4.1,48.4,14.4c10.6,8.3,11.2,20.2,9.1,32.7c-0.5,3.1-2.1,7.5-0.4,10.5s6.9,3.8,10.1,4&#10;&#9;&#9;c8.3,0.5,16.6-1.6,24.6-3.4c13.5-3,27.7-5.6,40.6,1.3c1.5,0.8,2.9,1.7,4.2,2.7l97.9-55.9C493.3,258.7,492,247.1,484.9,242.9z"/>
	<path class="st1_beach-1" d="M364.2,319.9c-16.1,0.2-31.5,8.4-47.8,6.4c-5.8-0.7-12.4-2.8-15.3-8.5c-2.5-4.9-1-10.5-0.2-15.6&#10;&#9;&#9;c1.1-6.5,2.2-13.8-1.4-19.6c-3.5-5.7-10.2-8.9-16.2-11.1c-17.2-6.5-36.1-7.9-54.3-5.5c-17,2.2-33.6,9-51.1,6.6&#10;&#9;&#9;c-12.7-1.7-21.4-6.9-23.2-20.1c-1.9-14.6-3.6-28.6-16.6-37.9c-14.9-10.6-36.6-10.9-53.9-8c-13.7,2.3-26.8,6.8-39.7,12l-3.3,1.9h0.1&#10;&#9;&#9;c0,0,62.2-22.1,90.1,5.6s-13.1,42.1,41.2,48.8s53.2-13.3,88.7,0s14.5,47.7,31.1,56.5s59.4-18.8,82.3-5l5-2.8&#10;&#9;&#9;C374.9,321,369.6,319.8,364.2,319.9z"/>
	<path class="st2_beach-1 targetColor" d="M292.4,331.4c-16.6-8.9,4.4-43.2-31.1-56.5s-34.4,6.6-88.7,0s-13.3-21.1-41.2-48.8s-90.1-5.6-90.1-5.6h-0.1&#10;&#9;&#9;l-29.3,17c-7,4.3-0.8,10.9,6.3,14.9l224.5,132.7c9.2,5.2,20.5,5.1,29.6-0.2l102.4-58.5C351.8,312.6,309,340.3,292.4,331.4z" style="fill: rgb(104, 225, 253);"/>
</g>
<g id="shadow_beach-1">
	
		<linearGradient id="SVGID_1_-beach-1" gradientUnits="userSpaceOnUse" x1="281.885" y1="348.6938" x2="176.685" y2="263.0638" gradientTransform="matrix(1 0 0 -1 0 502)">
		<stop offset="0" style="stop-color:#124577"/>
		<stop offset="1" style="stop-color:#DD6F31;stop-opacity:0"/>
	</linearGradient>
	<path class="st3_beach-1" d="M160.8,182.7l-40.2,20.5c0,0,77.5,54.4,90,59.6l83.7-38.2"/>
	
		<linearGradient id="SVGID_00000113329044721624758150000005697093220954208186_-beach-1" gradientUnits="userSpaceOnUse" x1="398.9242" y1="243.9049" x2="343.9641" y2="199.1749" gradientTransform="matrix(1 0 0 -1 0 502)">
		<stop offset="0" style="stop-color:#124577"/>
		<stop offset="1" style="stop-color:#DD6F31;stop-opacity:0"/>
	</linearGradient>
	<path style="fill:url(#SVGID_00000113329044721624758150000005697093220954208186_);" d="M353.3,272.2l-31.2,21.2&#10;&#9;&#9;c0,0,19.8,14.2,32.3,19.5l43.5-26.7"/>
	
		<linearGradient id="SVGID_00000078044758398250944190000009341532196728339120_-beach-1" gradientUnits="userSpaceOnUse" x1="344.0385" y1="260.8618" x2="304.9785" y2="229.0618" gradientTransform="matrix(1 0 0 -1 0 502)">
		<stop offset="0" style="stop-color:#124577"/>
		<stop offset="1" style="stop-color:#DD6F31;stop-opacity:0"/>
	</linearGradient>
	<path style="fill:url(#SVGID_00000078044758398250944190000009341532196728339120_);" d="M319.7,243l-35,17.3&#10;&#9;&#9;c0,0,22.5,20.5,34.9,25.7l28.5-19"/>
</g>
<g id="hat_beach-1">
	<path class="st6_beach-1" d="M207.9,152.1c-1.2,0-18.6-4-31.3,5.2s-6.8,19-18.2,26.2s-18.2,19.8-7.5,31.3s31.8,5.2,40.3,19.4&#10;&#9;&#9;s38.3,25,54.9,9.9s17.3-13.9,43-19.1s35.2-9.9,38-28.6s3.6-20.6-6.7-25.4s-5.2-8.7-16.7-14.3s-30.1-10.4-38.5-5.6"/>
	<path class="st7_beach-1" d="M272.3,224.6l0.3-0.1l-0.3-0.1C272.3,224.6,272.3,224.6,272.3,224.6z"/>
	<path class="st7_beach-1" d="M279.6,178.9c-1-0.1-2-0.6-2.7-1.4c-4.6-1.2-4-9.3,1.8-9.8c11.3-1,22.4-3.9,32.8-8.6c-1.3-1.9-3.3-3.8-7.9-6.1&#10;&#9;&#9;c-11.5-5.6-30.1-10.4-38.5-5.6l-57.1,0.9c-1.2,0-18.6-4-31.3,5.2c-3.6,2.4-6.3,5.8-8.1,9.8c6.8,2.6,13.2,6.2,19.1,10.5&#10;&#9;&#9;c5.7,2.2,11.1,5.1,16.2,8.4c5.3,3.5,0.3,12.2-5.1,8.6c-0.7-0.5-1.4-0.9-2.1-1.3c-3.7-2.4-4.4-3.8-6.5-5.9c-2.4-2.4-4.8,1.1-7.4-0.9&#10;&#9;&#9;c-7.1-2.7-14.5-4.3-22-4.8c-0.8,0.7-1.6,1.3-2.5,1.8c-10.1,6.2-16.5,16.8-10.8,27c10.9,5.6,24.1,5.8,34.9-0.5&#10;&#9;&#9;c11-6.5,19.5-16.9,33.6-13.4c6.3,1.5,3.6,11.2-2.7,9.6c-8.2-2-14.9,4.5-20.9,9c-4.9,3.8-10.6,6.6-16.7,8.1&#10;&#9;&#9;c-0.8,0.2-1.6,0.4-2.4,0.5c7,1.6,13.7,3.8,17.6,10.4c8.5,14.3,38.3,25,54.9,9.9c7.6-6.9,11.9-10.4,16.7-12.6&#10;&#9;&#9;c-12.4-3.2-24.1-12.5-32.4-22.8c-2.1-1.4-4.1-2.9-6.1-4.5c-2.5-2-2-4.8-0.2-6.5c0.6-4,6.6-6.3,9.3-1.9c1.4,2.2,2.9,4.3,4.6,6.3&#10;&#9;&#9;c18.6,12.6,40.5,19.7,63,20.3c16.8-4.5,23.7-10.4,26-25.8c1.8-12,2.8-17.1,0.5-20.4C312.5,179.1,295.8,181.4,279.6,178.9z"/>
	<path class="st8_beach-1" d="M192.5,211.4c6-4.5,12.7-11,20.9-9c6.2,1.5,8.9-8.1,2.7-9.6c-14.1-3.4-22.6,7-33.6,13.4&#10;&#9;&#9;c-10.8,6.3-24,6.1-34.9,0.5c0.9,1.6,2,3,3.2,4.3c5.8,6.2,14.5,7.2,22.7,9.1c0.8-0.2,1.6-0.3,2.4-0.5&#10;&#9;&#9;C181.9,218,187.6,215.2,192.5,211.4z"/>
	<path class="st8_beach-1" d="M189.8,186c3.2,1.7,5.4,3.1,6.9,3.5c0.7,0.4,1.4,0.9,2.1,1.3c5.4,3.6,10.4-5.1,5.1-8.6&#10;&#9;&#9;c-5.1-3.4-10.5-6.2-16.2-8.4c-5.9-4.4-12.3-7.9-19.1-10.5c-2.3,5.2-2.7,10.3-7.7,14.6c7.5,0.5,14.9,2.2,22,4.8&#10;&#9;&#9;C186.9,184.7,186.9,184.4,189.8,186z"/>
	<path class="st8_beach-1" d="M233.4,192c-2.7-4.4-8.8-2-9.3,1.9c-1.8,1.8-2.3,4.5,0.2,6.5c2,1.6,4,3.1,6.1,4.5c8.3,10.3,20,19.5,32.4,22.8&#10;&#9;&#9;c3.1-1.4,6.3-2.4,9.6-3.1c0-0.1,0-0.1,0-0.2l0.3,0.1c4.1-0.9,9.3-1.9,16.3-3.3c4.5-0.9,8.5-1.8,12-2.7c-22.5-0.6-44.4-7.6-63-20.3&#10;&#9;&#9;C236.3,196.3,234.7,194.2,233.4,192z"/>
	<path class="st8_beach-1" d="M320.2,167.3c-6.2-2.9-6.8-5.4-8.8-8.2c-10.4,4.7-21.4,7.6-32.8,8.6c-5.7,0.5-6.3,8.6-1.8,9.8&#10;&#9;&#9;c0.7,0.8,1.6,1.2,2.7,1.4c16.3,2.5,32.9,0.2,47.9-6.6C326.2,170.4,323.9,169.1,320.2,167.3z"/>
	<path class="st8_beach-1" d="M191.1,180.3c0,0,3.2-54,48.9-54s48.9,51.4,48.9,51.4s-8.5,24.5-51.7,24.5S191.1,180.3,191.1,180.3z"/>
	<path class="st9_beach-1" d="M243.2,126.4c18.7,16.2,24.5,45.4,17.1,69.1c0.4,0.8,0.5,1.8,0.2,2.7c-0.1,0.4-0.3,0.8-0.4,1.3&#10;&#9;&#9;c23.5-6.4,28.9-21.7,28.9-21.7S285.9,128.7,243.2,126.4z"/>
	<path class="st10_beach-1" d="M287.4,168.1c0,0-6.8,22.8-45.7,24c-2.1,0.1-4.1,0-6-0.1c0.2-0.7,0.3-1.5,0.2-2.3c-0.1-4.1-3.8-7.4-7.5-8.5&#10;&#9;&#9;c-0.6-0.2-1.1-0.3-1.7-0.4c0-0.2,0.1-0.4,0.1-0.6c0.3-4-2-8.1-6-9.1c-4.3-1-8.6,1.7-10.7,5.4c-0.4,0.6-0.7,1.2-0.9,1.9&#10;&#9;&#9;c-0.3-0.1-0.7-0.3-1-0.4c-2.2-0.7-4.6-0.6-6.7,0.5c-3.3-3-6.1-6.4-8.3-10.3l-2.1,12.2c0,0,1.5,5.2,7.7,10.6&#10;&#9;&#9;c0.2,0.3,0.4,0.5,0.6,0.8l-0.1,0.1c-2.8,3-3.3,7.5-1.1,11c2.3,3.2,6.3,4.6,10.1,3.6c1.7-0.5,3.3-1.3,4.6-2.5&#10;&#9;&#9;c0.1,0.4,0.1,0.7,0.2,1.1c1.3,5.3,5.9,7.9,11.1,6.9c4.9-0.9,6.5-5.1,5.9-9.5c3,0.2,6.3,0.4,9.8,0.4c45.5-0.4,48.9-24.9,48.9-24.9&#10;&#9;&#9;L287.4,168.1z"/>
	<path class="st10_beach-1" d="M336.7,204.1c-0.3-1.3,0.5-2.6,1.7-2.9c0.2,0,0.4-0.1,0.6-0.1c2.2,0.1,4.4,0.3,6.6,0.7&#10;&#9;&#9;c-3.4-2.4-19-13.3-26.1-16.4c-8-3.5-10.1,4.9-17.8,2.8S289,177.7,289,177.7l-6.1,7.6c0,0-1,7,12.9,11.2s15.3-9.7,27.1,0&#10;&#9;&#9;s15.7,13.2,15.7,13.2l0.1-0.1C338.2,207.8,337.2,206,336.7,204.1z"/>
	<path class="st10_beach-1" d="M331,167.8c-0.7-1.4,0.1-3.8,2-3.6c1.3,0.2,2.6,0.4,3.9,0.6c-3.5-2.4-11.8-7.3-19.1-6.4&#10;&#9;&#9;c-9.6,1.1-11.3,14.7-17.2,13.3s-13.2-3.6-13.2-3.6l1.6,9.6c3.7,3,8.7,4,13.3,2.7c7.9-2.3,8.2-14,17.9-13.1&#10;&#9;&#9;c5.9,0.6,11.5,4.8,14.9,7.9C333.7,172.8,332.2,170.4,331,167.8z"/>
	<path class="st11_beach-1" d="M222.6,188.2c-0.6-2-2-3.7-4-4.6c-2-0.9-4.3-0.8-6.2,0.4c-0.4,0.3-0.7,0.6-1,0.9c-3.3,2-4.4,6.3-2.5,9.7&#10;&#9;&#9;c2.1,3.4,6.6,4.6,10.1,2.6C222,195.4,223.5,191.7,222.6,188.2z"/>
	<path class="st12_beach-1" d="M253.4,233.9c0,0,12.1-16.2,21.5-16.6s18.2,2.4,26.1,1.3"/>
	<path class="st6_beach-1" d="M197.6,237.7c0,0-5.6-6.2-6.5-11.4s-2.4-8.2-10.2-10.2s-15,1.3-22.6,0s19.7,7.2,19.7,7.2l10,6.1L197.6,237.7z"/>
</g>
<g id="sandals_beach-1">
	<path class="st2_beach-1 targetColor" d="M436.6,249.8c0-0.2,0-5.6,0-5.6l-1.6,2.1c-0.4-0.4-0.9-0.7-1.5-1c-17.5-8.7-24.5-0.9-33.9,6.2l-0.6,0.4&#10;&#9;&#9;c-4.3,3.2-8.4,6.9-13,9.6c-6.4,3.7-13.7,6-20.5,9.1h-0.1c-4.2,1.8-8.3,3.9-12.1,6.5c-1.8,1.3-5,3.6-6.8,6.2l-1.2-0.8l0,4.1v0.3l0,0&#10;&#9;&#9;c0,0.2,0,0.3,0,0.5c0.2,0.8,0.6,1.6,1.2,2.2c2.1,2.5,5.5,3.6,8.5,4.6c7.5,2.7,15.6,3,23.3,0.9c15.3-4.4,24-11,28.5-16.6&#10;&#9;&#9;c2.9-3.6,7.1-6.4,10.8-9.2c4.4-3.3,8.8-6.4,13-9.9c2.6-1.9,4.5-4.6,5.6-7.6C436.6,251.2,436.7,250.4,436.6,249.8L436.6,249.8z" style="fill: rgb(104, 225, 253);"/>
	<path class="st13_beach-1" d="M436.6,249.8c0-0.2,0-5.6,0-5.6l-1.6,2.1c-0.4-0.4-0.9-0.7-1.5-1c-17.5-8.7-24.5-0.9-33.9,6.2l-0.6,0.4&#10;&#9;&#9;c-4.3,3.2-8.4,6.9-13,9.6c-6.4,3.7-13.7,6-20.5,9.1h-0.1c-4.2,1.8-8.3,3.9-12.1,6.5c-1.8,1.3-5,3.6-6.8,6.2l-1.2-0.8l0,4.1v0.3l0,0&#10;&#9;&#9;c0,0.2,0,0.3,0,0.5c0.2,0.8,0.6,1.6,1.2,2.2c2.1,2.5,5.5,3.6,8.5,4.6c7.5,2.7,15.6,3,23.3,0.9c15.3-4.4,24-11,28.5-16.6&#10;&#9;&#9;c2.9-3.6,7.1-6.4,10.8-9.2c4.4-3.3,8.8-6.4,13-9.9c2.6-1.9,4.5-4.6,5.6-7.6C436.6,251.2,436.7,250.4,436.6,249.8L436.6,249.8z"/>
	<polygon class="st2_beach-1 targetColor" points="310.4,253.6 310.5,259.7 312.9,256.3 &#9;" style="fill: rgb(104, 225, 253);"/>
	<path class="st2_beach-1 targetColor" d="M405.1,231.5c0.1-0.4,0.1-0.8,0-1.1l-0.1-3.9l-1.3,0.8c-0.5-0.6-1-1.2-1.5-1.8c-7.4-7.8-22.9-5.2-36.9,3.4&#10;&#9;&#9;c0,0-13.8,6.4-18.7,7.7s-35.4,10.6-36,21.6c-0.6,11,11.1,19.1,26.7,14.7s21.9-14.7,29.1-19.3s22.6-12,29.1-14.8&#10;&#9;&#9;C399.8,236.6,404.7,234.9,405.1,231.5L405.1,231.5L405.1,231.5z" style="fill: rgb(104, 225, 253);"/>
	<path class="st13_beach-1" d="M405.1,231.5c0.1-0.4,0.1-0.8,0-1.1l-0.1-3.9l-1.3,0.8c-0.5-0.6-1-1.2-1.5-1.8c-7.4-7.8-22.9-5.2-36.9,3.4&#10;&#9;&#9;c0,0-13.8,6.4-18.7,7.7s-35.4,10.6-36,21.6c-0.6,11,11.1,19.1,26.7,14.7s21.9-14.7,29.1-19.3s22.6-12,29.1-14.8&#10;&#9;&#9;C399.8,236.6,404.7,234.9,405.1,231.5L405.1,231.5L405.1,231.5z"/>
	<path class="st6_beach-1" d="M341.3,226.2c0,0,10.7-2.7,21.4,1.4c0,0,4.8,2.2,5.5,1.4s-2.1-2.8-4.3-4s-7.8-4.5-13.4-3.6&#10;&#9;&#9;C347,221.9,343.8,223.6,341.3,226.2z"/>
	<path class="st2_beach-1 targetColor" d="M365,224.4c0,0-13.8,6.4-18.7,7.7s-35.4,10.6-35.9,21.5c-0.6,10.9,11.1,19.1,26.7,14.7s21.9-14.7,29.1-19.3&#10;&#9;&#9;s22.6-12,29.1-14.8s14.1-5.3,6.7-13.1S379.1,215.9,365,224.4z" style="fill: rgb(104, 225, 253);"/>
	<path class="st8_beach-1" d="M331.9,259.4c0,0-2.3,0.7-2.5-0.4s1.5-7.2,3.5-9.4c0,0-1.9,0.3-2.1-1.1s-0.6-13.8,5.6-19.6s9.6-7.1,14.2-7.6&#10;&#9;&#9;c0,0-8.7,3.2-11,9.4s-1.9,14.5-1.9,14.5s6-1.4,8.1-1.8c3.5-0.6,7-0.2,10.5-0.4c4-0.2,8-0.7,11.9-1.5c2.9-0.5,5.9-1.2,8.3-2.9&#10;&#9;&#9;c0.5-0.3,3.8-3.6,4.1-2c0.1,1-7.7,9.1-16.4,10.5s-27.9,2.7-28.8,2.5S331.5,256.5,331.9,259.4z"/>
	<path class="st2_beach-1 targetColor" d="M399,247c-4.3,3.2-8.4,6.9-13,9.6c-6.4,3.7-13.7,6-20.5,9.1h-0.1c-4.2,1.8-8.3,3.9-12.1,6.5&#10;&#9;&#9;c-2.8,2-8.7,6.3-8,10.3c0.2,0.8,0.6,1.6,1.2,2.2c2.1,2.5,5.5,3.6,8.5,4.6c7.5,2.7,15.6,3,23.3,0.9c15.3-4.4,24-11,28.5-16.6&#10;&#9;&#9;s24.8-18.6,27.2-22.2c2.6-3.9,4.7-8.6-0.5-11.1c-17.5-8.7-24.5-0.9-33.9,6.2L399,247z" style="fill: rgb(104, 225, 253);"/>
	<path class="st6_beach-1" d="M395,250.1c0.8-0.6,1.5-1.3,2.3-1.9c-0.5-0.3-1-0.6-1.5-0.8c-2.2-1.2-7.8-4.5-13.4-3.6&#10;&#9;&#9;c-3.5,0.6-6.7,2.3-9.2,4.8c0,0,10.7-2.7,21.4,1.3L395,250.1z"/>
	<path class="st8_beach-1" d="M363.8,281.8c0,0-2.3,0.7-2.5-0.4s1.5-7.2,3.5-9.4c0,0-1.9,0.3-2.1-1.1s-0.6-13.8,5.6-19.7s9.6-7.1,14.2-7.6&#10;&#9;&#9;c0,0-8.7,3.2-11,9.4c-2.3,6.3-1.9,14.5-1.9,14.5s6-1.4,8.1-1.8c5.4-0.9,11-0.8,16.5-1.2c4.5-0.3,10.9-0.7,14.5-3.7&#10;&#9;&#9;c2.9-2.4,3.7-2.8,3.8-1.8s-7.7,9.1-16.4,10.5s-27.9,2.7-28.8,2.5S363.4,278.9,363.8,281.8z"/>
</g>
</svg>