<svg id="_0543_girl_swimming" xmlns="http://www.w3.org/2000/svg" viewBox="0 0 500 500" data-imageid="girl-swimming-24" imageName="Girl Swimming" class="illustrations_image" style="width: 215px;"><defs><style>.cls-1_girl-swimming-24{fill:#f4a28c;}.cls-2_girl-swimming-24{fill:#ce8172;}.cls-3_girl-swimming-24{fill:#e6e6e6;}.cls-4_girl-swimming-24{opacity:.09;}.cls-4_girl-swimming-24,.cls-5_girl-swimming-24,.cls-6_girl-swimming-24,.cls-7_girl-swimming-24{fill:none;}.cls-5_girl-swimming-24{opacity:.31;}.cls-6_girl-swimming-24{opacity:.3;}.cls-8_girl-swimming-24{fill:#24285b;}.cls-9_girl-swimming-24{fill:#000001;}.cls-10_girl-swimming-24{fill:#ffd200;}.cls-7_girl-swimming-24{opacity:.49;}.cls-11_girl-swimming-24{fill:#68e1fd;}</style></defs><g id="bg_girl-swimming-24"><g class="cls-6_girl-swimming-24"><path class="cls-3_girl-swimming-24" d="m106.07,61.92C56.85,83.65,20.34,138.76,13.14,205.42c-6.07,56.17,8.43,118.24,93.75,135.93,166.02,34.41,321.5,44.22,361.2-48.62,39.69-92.84,22.31-224.14-70.68-248.22-65.78-17.03-195.21-25.03-291.33,17.41Z"/></g><circle class="cls-10_girl-swimming-24" cx="357.43" cy="109.43" r="42.62"/><g class="cls-7_girl-swimming-24"><path class="cls-3_girl-swimming-24" d="m457.52,252.98c0-5.17-4.19-9.36-9.36-9.36-.51,0-1.01.05-1.5.13-2.13-3.95-6.3-6.64-11.11-6.64-.16,0-.31.02-.46.02.29-1.16.46-2.37.46-3.63,0-8.27-6.7-14.97-14.97-14.97s-14.97,6.7-14.97,14.97c0,1.25.17,2.46.46,3.63-.15,0-.31-.02-.46-.02-6.96,0-12.61,5.65-12.61,12.61s5.65,12.61,12.61,12.61h43.77v-.09c4.58-.6,8.14-4.51,8.14-9.27Z"/></g><g class="cls-7_girl-swimming-24"><path class="cls-3_girl-swimming-24" d="m236.33,129.59c0-5.31-4.31-9.62-9.62-9.62-.53,0-1.04.05-1.55.14-2.19-4.07-6.48-6.83-11.42-6.83-.16,0-.32.02-.47.02.3-1.2.47-2.44.47-3.73,0-8.5-6.89-15.4-15.4-15.4s-15.4,6.89-15.4,15.4c0,1.29.18,2.53.47,3.73-.16,0-.31-.02-.47-.02-7.16,0-12.97,5.81-12.97,12.97s5.81,12.97,12.97,12.97h45.02v-.09c4.72-.61,8.37-4.64,8.37-9.53Z"/></g><g class="cls-7_girl-swimming-24"><path class="cls-3_girl-swimming-24" d="m133.63,250.36c0-6.42-5.2-11.63-11.63-11.63-.64,0-1.26.06-1.87.16-2.65-4.91-7.83-8.25-13.8-8.25-.19,0-.38.02-.57.03.36-1.45.57-2.95.57-4.51,0-10.27-8.33-18.6-18.6-18.6s-18.6,8.33-18.6,18.6c0,1.56.21,3.06.57,4.51-.19,0-.38-.03-.57-.03-8.65,0-15.67,7.02-15.67,15.67s7.02,15.67,15.67,15.67h54.39v-.11c5.7-.74,10.11-5.61,10.11-11.52Z"/></g></g><g id="girl_girl-swimming-24"><path class="cls-3_girl-swimming-24" d="m152.16,387.53c10.37-1.21,19.79-6.41,29.75-9.53,10.46-3.27,21.65-4.22,32.51-2.77,13.41,1.8,26.61,7.2,40.02,5.42,10.51-1.39,19.94-7.08,30.21-9.72,11.53-2.97,24.06-1.92,34.94,2.92,8.46,3.77,15.91,9.72,24.69,12.68,9.36,3.16,20.47,3.24,29.91.39,8.85-2.67,16.37-6.74,25.97-3.44,5.73,1.97,10.42,6.32,16.19,8.19,8.79,2.84,18.21-.52,27.13-2.93,10.11-2.73,26.19-3.85,22.76,11.27-3.16,13.91-19.3,16.27-29.81,22.24-17.03,9.67-27.25,31.55-46.65,34.21-15.45,2.12-27.25-8.7-41.13-13.04-15.19-4.75-30.56,4.34-43.26,11.97-18.23,10.94-41.05,18.82-60.44,10.1-6.95-3.12-12.86-8.15-19.49-11.9-11.86-6.7-23.91-4.31-36.08.25-6.44,2.41-13.14,4.12-19.95,5.11-5.79.84-11.77,1.13-17.43-.33-5.84-1.51-12.72-4.92-17.33-8.88s-5.09-9.24-9.15-13.67c-12.03-13.15-20.44-2.26-34.71-4.19-11.12-1.5-15.68-15.62-25.59-20.86-6.2-3.28-13.8-2.68-20.27-5.37-6.32-2.63-11.19-8.51-12.59-15.21-.58-2.76-.55-5.8.93-8.19,2.38-3.83,7.71-4.74,12.11-3.75,4.4.99,8.33,3.42,12.6,4.89,12.33,4.22,25.72,0,38.45-2.81,8.81-1.94,18.82-3.19,27.53-.13,10.18,3.57,16.34,8.47,28.18,7.09Z"/><path class="cls-1_girl-swimming-24" d="m257.49,277.39s-18.55,63.43-42.85,63.44c-24.29,0-29.5-39.57-29.5-39.57l-14.91,12.67s17.51,61.89,47.3,61.34,57.13-59.25,57.13-59.25l-17.18-38.62Z"/><g class="cls-4_girl-swimming-24"><path class="cls-9_girl-swimming-24" d="m257.49,277.39s-18.55,63.43-42.85,63.44c-24.29,0-29.5-39.57-29.5-39.57l-14.91,12.67s17.51,61.89,47.3,61.34,57.13-59.25,57.13-59.25l-17.18-38.62Z"/></g><polygon class="cls-1_girl-swimming-24" points="323.54 215.85 321.67 258.19 298.41 255.49 309.11 225.77 323.54 215.85"/><g class="cls-5_girl-swimming-24"><path class="cls-2_girl-swimming-24" d="m306.49,232.17s4.41,0,8.32-2.9c0,0-1.88,7.53-11.76,13.32l3.44-10.42Z"/></g><path class="cls-1_girl-swimming-24" d="m300.63,209.5s-2.97,12.59-2.05,21.38c.37,3.57,3.61,6.2,7.17,5.78,4.42-.52,10.25-2.51,12.66-9.07l5.45-10.62s3.18-6.78-3.28-13.02c-6.46-6.24-18.53-2.22-19.96,5.54Z"/><path class="cls-1_girl-swimming-24" d="m312.64,222.44s.81-4.91,4.46-3.99c3.65.92,2.52,8.03-2.61,7.96l-1.85-3.96Z"/><path class="cls-1_girl-swimming-24" d="m299.17,217.53l-4.28,4.41c-1.06,1.09-.62,2.91.81,3.4l4.76,1.63-1.29-9.45Z"/><path class="cls-11_girl-swimming-24 targetColor" d="m298.41,255.49s-59.96,5.86-55.27,47.33c3.4,30.04,19.03,28.91,16.8,51.51l-1.95,22.32,59.84-1.61s1.89-32.93,11.07-52.65c9.18-19.71,34-68.26-30.49-66.91Z" style="fill: rgb(104, 225, 253);"/><g class="cls-4_girl-swimming-24"><path class="cls-9_girl-swimming-24" d="m309.74,271.43s-30.33,21.11-25.91,57.63c3.18,26.31-10.59,28.83-9.35,34.94l26.4,11.51,16.95-.45,1.36-13.67-9.45-89.95Z"/></g><path class="cls-10_girl-swimming-24" d="m317.1,218.44s-20.03,36-8.53,44.71c11.5,8.71,33.71,9.86,38.58-5.94s-10.47-21.74-7.87-44.36c2.6-22.62-40.99-26.28-43.03-13.34-2.03,12.94,20.85,18.92,20.85,18.92Z"/><rect class="cls-8_girl-swimming-24" x="103.62" y="338.57" width="300.17" height="60.51" rx="22.31" ry="22.31"/><path class="cls-1_girl-swimming-24" d="m306.26,292.31c-2.62-16.82,15.75-28.87,30.08-19.71,8.35,5.34,16.15,14.63,18.47,30.76,5.62,39.04,18.17,94.96-6.72,108.01-24.89,13.05-94.4-54.85-94.4-54.85l15.79-9.92s42.51,31.35,52.62,22.16c7.85-7.13-10.59-42.7-15.85-76.45Z"/><path class="cls-1_girl-swimming-24" d="m269.49,346.6s-10.41-11.57-18.19-8.98-15.19,6.67-13.16,11.49c2.04,4.82,15.56,7.41,15.56,7.41l15.79-9.92Z"/><path class="cls-1_girl-swimming-24" d="m140.31,300.69c-20.67,5.51-40.76,125.26-40.76,125.26,0,0-27.32,19.88-27.79,24.83-.45,4.69,16.96,5.56,27.07-2.59,10.11-8.15,17.52-14.21,17.52-14.21l59.29-94.75,19.88-.55s-7.04-50.84-55.21-37.99Z"/><g class="cls-4_girl-swimming-24"><path class="cls-9_girl-swimming-24" d="m140.31,300.69c-20.67,5.51-40.76,125.26-40.76,125.26,0,0-27.32,19.88-27.79,24.83-.45,4.69,16.96,5.56,27.07-2.59,10.11-8.15,17.52-14.21,17.52-14.21l59.29-94.75,19.88-.55s-7.04-50.84-55.21-37.99Z"/></g><path class="cls-1_girl-swimming-24" d="m222.45,338.68s-7.04-50.84-55.21-37.99c-20.67,5.51-43.23,131.43-43.23,131.43,0,0-21.49,23.22-16.31,26.19,5.19,2.96,25.45-7.41,29.15-10.87,3.71-3.46,7.81-15.69,7.81-15.69l57.9-92.52,19.88-.55Z"/><path class="cls-3_girl-swimming-24" d="m345.65,201.65l1.32-15.43-20.21-10.57-11.92,9.89c-11.28-4.94-19.53-7.32-20.45-5.56-1.31,2.5,12.74,12.43,31.39,22.18,18.64,9.75,34.81,15.62,36.12,13.12.92-1.76-5.74-7.17-16.24-13.62Z"/></g></svg>